<svg width="85" height="84" viewBox="0 0 85 84" fill="none" xmlns="http://www.w3.org/2000/svg">
<path d="M38.6053 73.5C37.791 73.5 37.0851 73.2328 36.4878 72.6985C35.8881 72.1642 35.516 71.498 35.3713 70.7L34.4508 63.378C33.3331 63.0397 32.1245 62.51 30.8248 61.789C29.5275 61.0657 28.4226 60.291 27.5103 59.465L20.8078 62.349C20.0681 62.6757 19.3168 62.7107 18.5538 62.454C17.7908 62.1973 17.2028 61.7132 16.7898 61.0015L13.0133 54.495C12.6003 53.7833 12.479 53.039 12.6493 52.262C12.8196 51.485 13.2256 50.848 13.8673 50.351L19.7193 45.976C19.6143 45.3414 19.5291 44.6892 19.4638 44.0195C19.3938 43.3475 19.3588 42.6954 19.3588 42.063C19.3588 41.475 19.3938 40.8567 19.4638 40.208C19.5291 39.5593 19.6143 38.829 19.7193 38.017L13.8673 33.642C13.2256 33.145 12.8313 32.4975 12.6843 31.6995C12.5373 30.9015 12.6691 30.1455 13.0798 29.4315L16.7898 23.1315C17.2028 22.4618 17.7908 21.9882 18.5538 21.7105C19.3168 21.4328 20.0681 21.4573 20.8078 21.784L27.4438 24.598C28.4891 23.7277 29.6208 22.9425 30.8388 22.2425C32.0521 21.5425 33.234 21.0012 34.3843 20.6185L35.3748 13.2965C35.5171 12.4985 35.8881 11.8323 36.4878 11.298C37.0875 10.7637 37.7933 10.4977 38.6053 10.5H45.8853C46.6996 10.5 47.4055 10.7672 48.0028 11.3015C48.6025 11.8358 48.9746 12.502 49.1193 13.3L50.0398 20.692C51.3815 21.1633 52.5668 21.7035 53.5958 22.3125C54.6248 22.9215 55.6853 23.6845 56.7773 24.6015L63.7493 21.7875C64.4913 21.4608 65.2438 21.4363 66.0068 21.714C66.7698 21.9917 67.3566 22.4653 67.7673 23.135L71.4773 29.5015C71.8903 30.2155 72.0116 30.9599 71.8413 31.7345C71.671 32.5092 71.265 33.1474 70.6233 33.649L64.5053 38.22C64.6966 38.9433 64.804 39.6072 64.8273 40.2115C64.8506 40.8159 64.8623 41.4108 64.8623 41.9965C64.8623 42.5402 64.839 43.113 64.7923 43.715C64.748 44.3193 64.6453 45.0497 64.4843 45.906L70.3993 50.351C71.041 50.848 71.4586 51.485 71.6523 52.262C71.846 53.039 71.7363 53.7833 71.3233 54.495L67.5923 60.9315C67.1816 61.6455 66.5831 62.1297 65.7968 62.384C65.0105 62.6407 64.2475 62.6057 63.5078 62.279L56.7773 59.395C55.6876 60.312 54.591 61.0972 53.4873 61.7505C52.3836 62.4039 51.2345 62.923 50.0398 63.308L49.1158 70.6965C48.9735 71.4945 48.6025 72.1607 48.0028 72.695C47.4031 73.2293 46.6973 73.4977 45.8853 73.5H38.6053ZM42.1508 50.75C44.5915 50.75 46.66 49.9018 48.3563 48.2055C50.0526 46.5092 50.9008 44.4407 50.9008 42C50.9008 39.5593 50.0526 37.4908 48.3563 35.7945C46.66 34.0982 44.5915 33.25 42.1508 33.25C39.6961 33.25 37.6241 34.0982 35.9348 35.7945C34.2455 37.4908 33.4008 39.5593 33.4008 42C33.4008 44.4407 34.2455 46.5092 35.9348 48.2055C37.6241 49.9018 39.6961 50.75 42.1508 50.75Z" fill="#D2448D"/>
</svg>
