<?xml version="1.0" encoding="utf-8"?>
<!-- Generator: Adobe Illustrator 28.0.0, SVG Export Plug-In . SVG Version: 6.00 Build 0)  -->
<svg version="1.1" id="Layer_1" xmlns="http://www.w3.org/2000/svg" xmlns:xlink="http://www.w3.org/1999/xlink" x="0px" y="0px"
	 width="200px" height="200px" viewBox="0 0 200 200" style="enable-background:new 0 0 200 200;" xml:space="preserve">
<style type="text/css">
	.st0{stroke:#FFFFFF;stroke-miterlimit:10;}
</style>
<g>
	<g>
		<path fill="white" class="st0" d="M133.776,126.776H66.231c-4.182,0-7.585-3.404-7.585-7.586v-59.27c0-4.182,3.403-7.585,7.585-7.585h22.632
			c0.294,0,0.518-0.13,0.664-0.385c0.146-0.256,0.144-0.514-0.005-0.768l-0.996-1.692c-4.383-7.442-2.09-16.881,5.219-21.487
			c5.149-3.244,11.802-3.244,16.95,0c7.309,4.606,9.602,14.045,5.219,21.487l-0.996,1.691c-0.149,0.254-0.151,0.512-0.005,0.768
			c0.146,0.255,0.37,0.385,0.664,0.385h18.197c4.182,0,7.585,3.403,7.585,7.585v18.185l-0.071,0.357
			c-0.512,2.551-2.247,4.713-4.642,5.785c-2.414,1.08-5.111,0.929-7.397-0.415l-1.697-0.998c-4.009-2.359-9.096-1.126-11.577,2.808
			c-1.747,2.769-1.747,6.347,0,9.116c2.482,3.931,7.566,5.167,11.577,2.808l1.696-0.997c2.287-1.345,4.984-1.497,7.397-0.416
			c2.395,1.071,4.13,3.235,4.642,5.786l0.071,0.357v16.895C141.361,123.373,137.958,126.776,133.776,126.776z M66.231,59.67
			c-0.138,0-0.251,0.112-0.251,0.251v59.27c0,0.139,0.112,0.251,0.251,0.251h67.545c0.138,0,0.251-0.112,0.251-0.251v-16.007
			c-0.108-0.197-0.288-0.297-0.374-0.336c-0.347-0.155-0.602-0.006-0.685,0.044l-1.696,0.997
			c-7.445,4.377-16.888,2.086-21.496-5.216c-3.248-5.146-3.248-11.797,0-16.945c4.608-7.302,14.05-9.594,21.496-5.215l1.696,0.997
			c0.083,0.048,0.337,0.198,0.685,0.043c0.086-0.038,0.266-0.138,0.374-0.335V59.921c0-0.138-0.112-0.251-0.251-0.251h-18.197
			c-2.943,0-5.571-1.525-7.032-4.079c-1.46-2.555-1.441-5.594,0.052-8.129l0.996-1.691c2.358-4.004,1.124-9.083-2.81-11.561
			c-2.774-1.749-6.357-1.748-9.13,0c-3.933,2.479-5.167,7.557-2.809,11.561l0.996,1.692c1.493,2.535,1.512,5.574,0.052,8.129
			c-1.46,2.554-4.089,4.079-7.032,4.079H66.231z"/>
	</g>
	<g>
		<g>
			<g>
				<path fill="white" class="st0" d="M198.889,110.31c-21.317,25.453-58.493,52.657-98.884,52.657S22.438,135.763,1.121,110.31
					c-1.3-1.556-1.3-3.819,0-5.375c0.666-0.799,16.279-19.279,40.473-34.207l4.29,7.177c-16.085,9.952-28.381,21.767-34.402,28.074
					l-1.566,1.638l1.566,1.648c16.156,16.935,49.135,45.336,88.523,45.336c40.79,0,75.489-31.709,88.523-45.336l1.566-1.648
					l-1.566-1.638c-5.928-6.205-18.02-17.836-33.849-27.726l4.31-7.167c23.876,14.877,39.234,33.06,39.9,33.849
					C200.189,106.491,200.189,108.754,198.889,110.31z"/>
			</g>
		</g>
		<g>
			<g>
				<g>
					<path fill="white" class="st0" d="M54.229,0v8.365H8.36v45.858h-8.365V4.177C-0.005,1.874,1.879,0,4.182,0H54.229z"/>
				</g>
			</g>
			<g>
				<g>
					<path fill="white" class="st0" d="M54.229,191.635V200H4.182c-2.304,0-4.188-1.874-4.188-4.177v-50.046H8.36v45.859H54.229z"/>
				</g>
			</g>
			<g>
				<g>
					<path fill="white" class="st0" d="M199.575,145.777v50.046c0,2.304-1.884,4.177-4.188,4.177h-50.046v-8.365h45.869v-45.859H199.575z"/>
				</g>
			</g>
			<g>
				<g>
					<path fill="white" class="st0" d="M200.005,4.177v50.046h-8.365V8.365h-45.858V0h50.046C198.131,0,200.005,1.874,200.005,4.177z"/>
				</g>
			</g>
		</g>
	</g>
</g>
</svg>
