<?xml version="1.0" encoding="utf-8"?>
<!-- Generator: Adobe Illustrator 28.0.0, SVG Export Plug-In . SVG Version: 6.00 Build 0)  -->
<svg version="1.1" id="Layer_1" xmlns="http://www.w3.org/2000/svg" xmlns:xlink="http://www.w3.org/1999/xlink" x="0px" y="0px"
	 width="200px" height="200px" viewBox="0 0 200 200" style="enable-background:new 0 0 200 200;" xml:space="preserve">
<style type="text/css">
	.st0{fill:#FFFFFF;}
</style>
<g>
	<path class="st0" d="M124.409,98.829H92.525V48.9c0-2.301-1.884-4.175-4.185-4.175s-4.175,1.874-4.175,4.175v54.104
		c0,2.301,1.874,4.185,4.175,4.185h36.069c2.312,0,4.185-1.884,4.185-4.185C128.595,100.703,126.721,98.829,124.409,98.829z
		 M157.475,151.426c-3.961,0-7.179,3.228-7.179,7.189s3.218,7.179,7.179,7.179s7.189-3.218,7.189-7.179
		S161.436,151.426,157.475,151.426z M91.344,8.656C40.978,8.656,0,49.633,0,100c0,50.367,40.978,91.344,91.344,91.344
		c2.312,0,4.185-1.874,4.185-4.175s-1.874-4.175-4.185-4.175c-45.754,0-82.984-37.23-82.984-82.994s37.23-82.994,82.984-82.994
		c45.764,0,82.994,37.23,82.994,82.994c0,2.301,1.874,4.175,4.175,4.175c2.312,0,4.185-1.874,4.185-4.175
		C182.699,49.633,141.721,8.656,91.344,8.656z M157.475,151.426c-3.961,0-7.179,3.228-7.179,7.189s3.218,7.179,7.179,7.179
		s7.189-3.218,7.189-7.179S161.436,151.426,157.475,151.426z M157.475,151.426c-3.961,0-7.179,3.228-7.179,7.189
		s3.218,7.179,7.179,7.179s7.189-3.218,7.189-7.179S161.436,151.426,157.475,151.426z M157.475,151.426
		c-3.961,0-7.179,3.228-7.179,7.189s3.218,7.179,7.179,7.179s7.189-3.218,7.189-7.179S161.436,151.426,157.475,151.426z
		 M199.664,156.965c-7.291-17.057-24.002-28.075-42.556-28.075c-18.554,0-35.255,11.018-42.546,28.086
		c-0.448,1.039-0.448,2.24,0,3.279c7.291,17.067,23.992,28.086,42.546,28.086c18.554,0,35.265-11.018,42.556-28.086
		C200.112,159.216,200.112,158.014,199.664,156.965z M190.804,159.45c-6.527,12.668-19.44,20.53-33.697,20.53
		c-14.246,0-27.159-7.861-33.697-20.53l-0.428-0.835l0.428-0.845c6.538-12.658,19.45-20.529,33.697-20.529
		c14.257,0,27.169,7.872,33.697,20.529l0.438,0.845L190.804,159.45z M157.475,151.426c-3.961,0-7.179,3.228-7.179,7.189
		s3.218,7.179,7.179,7.179s7.189-3.218,7.189-7.179S161.436,151.426,157.475,151.426z M157.475,151.426
		c-3.961,0-7.179,3.228-7.179,7.189s3.218,7.179,7.179,7.179s7.189-3.218,7.189-7.179S161.436,151.426,157.475,151.426z
		 M157.475,151.426c-3.961,0-7.179,3.228-7.179,7.189s3.218,7.179,7.179,7.179s7.189-3.218,7.189-7.179
		S161.436,151.426,157.475,151.426z"/>
</g>
</svg>
