<svg xmlns="http://www.w3.org/2000/svg" xmlns:xlink="http://www.w3.org/1999/xlink" viewBox="0 0 422.04 74"><defs><style>.cls-1{fill:url(#linear-gradient);}.cls-2{fill:url(#linear-gradient-2);}.cls-3{fill:url(#linear-gradient-3);}.cls-4{fill:url(#linear-gradient-4);}.cls-5{fill:#00a1fe;}.cls-6{fill:#00a2fe;}</style><linearGradient id="linear-gradient" x1="41.41" y1="73.92" x2="80.58" y2="6.34" gradientUnits="userSpaceOnUse"><stop offset="0" stop-color="#ee0278" stop-opacity="0.9"/><stop offset="1" stop-color="#e72429" stop-opacity="0.9"/></linearGradient><linearGradient id="linear-gradient-2" x1="24.44" y1="-4.25" x2="51.8" y2="59.28" gradientUnits="userSpaceOnUse"><stop offset="0" stop-color="#279200" stop-opacity="0.9"/><stop offset="1" stop-color="#f8ec1d" stop-opacity="0.9"/></linearGradient><linearGradient id="linear-gradient-3" x1="-0.59" y1="10.78" x2="50.74" y2="67.59" gradientUnits="userSpaceOnUse"><stop offset="0" stop-color="#00a1fe" stop-opacity="0.9"/><stop offset="1" stop-color="#83c5f1" stop-opacity="0.9"/></linearGradient><linearGradient id="linear-gradient-4" x1="42.46" y1="55.4" x2="47.85" y2="-1.69" gradientUnits="userSpaceOnUse"><stop offset="0" stop-color="#f8ec1d" stop-opacity="0.9"/><stop offset="1" stop-color="#e72429" stop-opacity="0.9"/></linearGradient></defs><g id="Layer_2" data-name="Layer 2"><g id="Layer_1-2" data-name="Layer 1"><path class="cls-1" d="M81.82,11.66c-.2-.5-.42-1-.67-1.49l0-.06c-.19-.38-.4-.75-.61-1.11l-.09-.14c-.21-.33-.42-.66-.65-1l-.12-.16c-.22-.31-.46-.62-.7-.92l-.12-.15c-.25-.29-.51-.59-.77-.87l-.14-.13c-.26-.28-.54-.55-.82-.81l-.17-.15c-.27-.24-.55-.48-.84-.71l-.26-.2c-.26-.2-.52-.4-.78-.58l-.46-.3c-.21-.14-.41-.27-.62-.39s-.54-.31-.81-.45l-.3-.16c-.48-.24-1-.45-1.47-.65a30.48,30.48,0,0,1,.87,9.55,48,48,0,0,1-5.81,20.34A65.78,65.78,0,0,1,59,42.26,95.26,95.26,0,0,1,41.54,58.42s-4.77,3.81-10.83,7.69A124.6,124.6,0,0,0,41.54,74a125.51,125.51,0,0,0,10.84-7.89A129,129,0,0,0,66.48,53,86.41,86.41,0,0,0,74.65,42.6c4.95-7.45,8.44-15.78,8.44-24.42A17.57,17.57,0,0,0,81.82,11.66Z"/><path class="cls-2" d="M74,41.56a124.23,124.23,0,0,0-7.54-10.4l0,0C56.62,18.83,38.28,0,18.18,0A17.55,17.55,0,0,0,11.7,1.25c-.5.2-1,.41-1.47.65l-.3.16q-.42.21-.81.45c-.21.12-.41.25-.62.39s-.31.19-.46.3-.53.38-.78.58L7,4l-.84.71L6,4.84c-.29.26-.56.53-.83.81L5,5.78c-.27.28-.52.58-.77.87l-.12.15c-.25.3-.48.61-.71.92a.91.91,0,0,0-.11.16c-.23.32-.44.65-.65,1L2.58,9c-.22.36-.42.73-.61,1.11l0,.06c-.24.49-.46,1-.66,1.49a30.75,30.75,0,0,1,9.55-.86c10.78.49,29.2,5.66,47.6,30.74,0,0,.21.26.56.72h0C60.23,43.88,63.38,48,66.48,53A86.41,86.41,0,0,0,74.65,42.6Z"/><path class="cls-3" d="M41.54,58.42A95.5,95.5,0,0,1,24.11,42.26a65.88,65.88,0,0,1-7.48-11.12A48.3,48.3,0,0,1,10.82,10.8a30.65,30.65,0,0,1,.88-9.55c-.5.2-1,.41-1.47.65l-.3.16q-.42.21-.81.45c-.21.12-.41.25-.62.39s-.31.19-.46.3-.53.38-.78.58L7,4l-.84.71L6,4.84c-.29.26-.56.53-.83.81L5,5.78c-.27.28-.52.58-.77.87l-.12.15c-.25.3-.48.61-.71.92a.91.91,0,0,0-.11.16c-.23.32-.44.65-.65,1L2.58,9c-.22.36-.42.73-.61,1.11l0,.06c-.24.49-.46,1-.66,1.49A17.57,17.57,0,0,0,0,18.18c0,8.64,3.49,17,8.44,24.42A86.41,86.41,0,0,0,16.61,53a127.25,127.25,0,0,0,14.1,13.15A124.6,124.6,0,0,0,41.54,74a125.51,125.51,0,0,0,10.84-7.89C46.31,62.23,41.54,58.42,41.54,58.42Z"/><path class="cls-4" d="M81.15,10.17l0-.06c-.19-.38-.4-.75-.61-1.11l-.09-.14c-.21-.33-.42-.66-.65-1l-.12-.16c-.22-.31-.46-.62-.7-.92l-.12-.15c-.25-.29-.51-.59-.77-.87l-.14-.13c-.26-.28-.54-.55-.82-.81l-.17-.15c-.27-.24-.55-.48-.84-.71l-.26-.2c-.26-.2-.52-.4-.78-.58l-.46-.3c-.21-.14-.41-.27-.62-.39s-.54-.31-.81-.45l-.3-.16c-.48-.24-1-.45-1.47-.65A17.55,17.55,0,0,0,64.91,0C44.81,0,26.47,18.83,16.63,31.14v0a121.42,121.42,0,0,0-7.54,10.4l-.64,1A86.41,86.41,0,0,0,16.61,53c3.1-4.92,6.24-9.08,7.49-10.69h0c.35-.46.56-.72.56-.72C43.06,16.46,61.48,11.29,72.26,10.8a30.9,30.9,0,0,1,9.56.86C81.62,11.16,81.4,10.66,81.15,10.17Z"/><g id="Reserved"><path class="cls-5" d="M403.33,53.85h2.17a3,3,0,0,1,1.23.19,1.35,1.35,0,0,1,.74,1.35,1.74,1.74,0,0,1-.29,1,1.81,1.81,0,0,1-1.37.62l1.89,2.48h-1.48l-1.69-2.39V59.5h-1.2Zm1.2,1.07v1.44h.76c.66,0,1-.25,1-.76A.61.61,0,0,0,406,55a1.71,1.71,0,0,0-.69-.1Z"/><path class="cls-5" d="M410.27,56.5h-.51a4.47,4.47,0,1,1-1.31-3.17,4.47,4.47,0,0,1,1.31,3.17h1a5.5,5.5,0,1,0-5.5,5.5,5.51,5.51,0,0,0,5.5-5.5Z"/></g><path id="S" class="cls-5" d="M422,20a2,2,0,0,1-2,2h-8.59a11.65,11.65,0,0,0-11.75,11.54v.25c-.07,4.11.43,8.28-.31,12.38-1.76,9-9.74,15.82-18.59,15.82H367.05c-1.18,0-1.61-.24-1.42-1.51a10,10,0,0,1,8.93-8.34c1.35-.1,2.72-.07,4.07-.17a11.74,11.74,0,0,0,11-11.24c.07-3.68-.14-7.37.24-11C391,19.47,399,12,409.1,12H420a2,2,0,0,1,2,2Z"/><path class="cls-5" d="M344.72,12a25,25,0,1,0,25,25A25,25,0,0,0,344.72,12Zm1.95,39.87A15,15,0,1,1,359.58,39,15,15,0,0,1,346.67,51.91Z"/><path id="U" class="cls-5" d="M266,13.8V36.57a28.54,28.54,0,0,0,.9,7.12,24.88,24.88,0,0,0,26.34,18.2c12.35-1.27,20.85-9.72,22.35-22,.42-2.57.27-13.6.27-13.6V13.86c0-1.87-.61-1.95-2.18-1.65-4.88,1-7.85,5.31-7.85,10.3V36.72c0,8.66-6.4,15.19-14.63,15.26-8.47.08-15.08-6.31-15.18-15.11-.07-4.81.09-9.74,0-14.55-.1-5-3.2-9.22-8.1-10.14-1.5-.29-1.91,0-1.91,1.65"/><path class="cls-5" d="M264.4,62c1.53,0,1.74-.53,1.52-1.8a10.17,10.17,0,0,0-7.87-7.89c-1.69-.29-2-.28-6.62-.4-8.76,0-15.1-5.64-15.1-14.8-.1-8.32-.1-16.64-.1-25A27.58,27.58,0,0,0,236,8.87c-.73-4.39-3.52-7.86-7.89-8.7-1.37-.26-2-.05-2,1.68.12,6.25.08,30.87.14,36.86a23.27,23.27,0,0,0,20.64,22.94c1.88.19,4.28.3,6.7.35Z"/><path class="cls-5" d="M244.25,12.08c-2.39,0-4.4,2.3-4.48,4.85A4.93,4.93,0,0,0,244.18,22a24,24,0,0,0,4.48,0A10.09,10.09,0,0,0,257,13.58c.2-1.21-.1-1.51-1.23-1.51Z"/><path id="R" class="cls-5" d="M220.84,12.07c1.51.06,1.36.72,1.24,1.68A9.94,9.94,0,0,1,213,22c-2.38.12-4.79,0-7.15.22a14.23,14.23,0,0,0-13.21,14.68V52.06c-.22,4.89-3.19,9-8,9.87-1.37.22-2,0-1.93-1.59.08-4.22-.3-22.31.29-27.2,1.42-11.59,9.47-21.07,22.51-21.07Z"/><path id="I" class="cls-6" d="M178.69,60.69c0,1.16-.3,1.4-1.44,1.28-4.65-.63-7.66-4.26-8.35-8.9-.1-.9-.16-1.8-.17-2.71-.08-12.16,0-24.39,0-36.65,0-1.5.24-1.82,1.76-1.53,5,.84,8.09,5.12,8.22,10.22C178.73,28.68,178.64,54.21,178.69,60.69Z"/><path class="cls-5" d="M164.53,12.92h0a1.42,1.42,0,0,0-.49-.54,4.75,4.75,0,0,0-1.87-.36h0a12,12,0,0,0-2.6.43h0c-4.41,1.09-7.68,4.46-10.79,8.3h0l0,0a46.32,46.32,0,0,0-5,7.87c-1.67,3.13-3.27,6.52-4.57,9.33a81.35,81.35,0,0,1-4.58,9.21l-.09.12a9.54,9.54,0,0,1-8,4.12h-.16a9.53,9.53,0,0,1-8-4.13l-.08-.11A81.43,81.43,0,0,1,113.59,38c-1.3-2.81-2.9-6.2-4.57-9.33a45.71,45.71,0,0,0-5-7.87v0h0c-3.12-3.85-6.39-7.23-10.81-8.31h0l-.1,0A11.83,11.83,0,0,0,90.34,12a4.87,4.87,0,0,0-1,.1h0a1.58,1.58,0,0,0-1.08.79A3.3,3.3,0,0,0,88,14.48v6.24a2.59,2.59,0,0,0,.36,1.41,1.85,1.85,0,0,0,1,.76h0c4.28,1.29,7.88,5.84,10.31,9.69l.1.15c2.45,3.9,4.08,8,6.06,12.14a40.54,40.54,0,0,0,6.78,10.71h0c4,4.24,8.61,6.58,13.82,6.58h0c5.21,0,9.83-2.34,13.81-6.58h0A40.38,40.38,0,0,0,147,44.88c2-4.13,3.61-8.24,6.07-12.14l.08-.14c2.43-3.85,6-8.41,10.32-9.7a2.2,2.2,0,0,0,1-.77,2.68,2.68,0,0,0,.35-1.41V14.48A3.3,3.3,0,0,0,164.53,12.92Z"/></g></g></svg>