<svg fill="#000" id="Layer_1" enable-background="new 0 0 68 68" height="512" viewBox="0 0 68 68" width="512" xmlns="http://www.w3.org/2000/svg"><g id="_x33_0"><path d="m14.2202196 44.6328545c-.1846895-.4584885-.6296997-.7800331-1.1502686-.7830811-.6377687-.0047531-6.571157-.0489388-7.210937-.0537109-.6850586 0-1.2446289.5546875-1.2495117 1.2402344-.0907502 20.3489799-.2738104 19.2603034-.0048218 19.8077964l.0745239.3085938c.2147827.8895264 1.3944092 1.5588989 2.7020874 1.5331421l5.316833-.1045532c.5142822-.0366821.9639282-.2288208 1.2196655-.5280762.3848267-.4577026.9034424-1.0419312 1.239502-1.5917969.0283813-.017395.0485229-.0288086.0780029-.046936.0012817-.0267944.0015259-.0525513.0028076-.0793457.00177-.0031128.0043945-.0064087.0061035-.0095215-.0020142.0001221-.0037231.0003052-.0057373.0004272.2895508-6.1641808.2490234-11.9382896.2678833-18.1721764-.4287108-.507019-.8574218-1.013977-1.2861327-1.520996zm-8.1126704.6651611 6.7011714.0498047-.1386719 18.7558556-6.7011714-.0498047z"/><path d="m47.3089027 49.9423637c-.5423584-.5376587-.9559937-.84375-1.6403809-1.2077637-.0020142.0493774-.0037842.09729-.0057373.1466064-.6737404-.4826431-.5791855-.1639748-7.8140259-.3175659-.7382813-.0146484-1.3168945.5810547-1.3227539 1.3037109l-.105957 14.3310509c-.0032349.4014893.1854248.75.4685669.9934692.2402344.8693237 1.3991699 1.5193481 2.6870117 1.4939575l5.3168335-.1045532c.5142822-.0366821.9639893-.2288208 1.2197266-.5280762.4163208-.4952393.5623779-.6832275.8896484-1.2705688-.0680542.0050659-.1265259.0078735-.1928711.0125122.3758546-4.9181479.5944825-9.9047812.499939-14.8527793zm-9.2843628.1222535 6.7011719.0507813-.1030273 13.958004-6.7011719-.0498047z"/><path d="m30.3665218 34.6782646c-.1925755-.5480995-.6698513-.8353844-1.1613159-.8382568l-7.2011719-.0537109c-.5825405-.0514755-1.2533054.4899635-1.2587891 1.2402344-.0946083 31.0172462-.563982 29.5040321.1875 30.2040367.2640991.8493652 1.4039307 1.4802246 2.6721191 1.4552612l5.3168335-.1045532c1.5598412-.1112518 1.5556812-1.3195953 2.1968994-2.4701538.4520874-9.199276.4081421-18.8984947.1890869-28.1226768-.3639525-.6398317-.6046751-.9562989-.941162-1.3101808zm-8.1232299.6099854 6.7011719.0498047-.2128906 28.786129-6.7011719-.0498047z"/><path d="m62.3812904 23.8173637c-.1780396-.4681396-.6231689-.805603-1.1531372-.8093872l-7.2011719-.0537109c-.3198242.046875-.6494141.1259766-.887207.3603516-.6969261.688324-.2219849-1.2739658-.6547852 41.3378868-.0013428.270752.1021729.5089722.2479858.7149048.3486328.7684937 1.4230347 1.3216553 2.6115723 1.2982788l5.3168335-.1045532c.5142822-.0367432.9639893-.2288818 1.2197266-.5281372.4163208-.4952393 1.0128784-1.371521 1.3401489-1.9588623.4521484-11.8162193.3451538-26.9794273.1260986-38.8276329-.3898315-.8803101-.6080321-1.0645753-.9660644-1.4291383zm-8.1155395.638855 6.7011719.0498047-.2768555 39.746212c-5.0010147.3270416-3.6560936.1150436-6.703125.1600342z"/><path d="m61.9967079 9.3234062c.3467369-.3457003.2739563-.922493-.1416016-1.1728516-5.7827148-3.494141-10.2666015-5.7314455-16.0717773-6.8242191-.4602051-.0853239-.9191475.2608994-.8699951.8055421-.2962036.4627075-.5922852.925354-.8884888 1.3880615.5215454 1.3140256.9736938 2.6640623 1.4686279 3.9918821-16.6152934 4.7180181-31.0924062 17.164002-38.1017441 32.9473272-.346158.7799797.6838546 1.4418221 1.2480464.8007813 4.4550304-5.0395584 8.7468557-9.9511986 13.9009409-14.3886719 5.1848755-3.8190308 10.9553204-6.8533325 17.0391827-8.9715576 2.0675049-.7198486 6.319458-1.3776855 8.9671631-1.6270752.3052368 1.3325806.8348999 2.7251587 1.253418 3.8706665.4161377.1032104.8461914.1193237 1.2727051.0800781.3349686.2971268.7507095.2379646 1.0079956-.0083618 3.5633124-3.4212952 6.5216826-7.509182 9.9155272-10.8916016zm-10.0268555 8.8896485c-.2862244-1.1089783-.8616066-3.2358599-1.0678711-4.1318359-.078125-.3388672-.3793945-.5791016-.7270508-.5810547-8.8944435 0-17.282177 3.6209126-24.5043926 8.9365234-5.4467773 4.0097656-9.8852549 8.5791016-14.2597666 13.4404297 7.8188487-13.5058594 21.3632804-23.8095704 36.5166007-27.4794922.2148438-.0517578.3964844-.1962891.4951172-.3945313.2397881-.4843426-.1287804-.8465228-.324707-1.4062505-.5004883-1.1289063-1.0517578-2.3730469-1.4223633-3.5556638 4.7734375 1.066406 8.7319336 3.0107419 13.5898438 5.9042969-2.8837777 2.9941876-5.4183503 6.3330347-8.2954103 9.2675784z"/></g></svg>