<svg fill="#000" id="Layer_1" enable-background="new 0 0 68 68" height="512" viewBox="0 0 68 68" width="512" xmlns="http://www.w3.org/2000/svg"><g id="_x35_5"><path d="m35.5854454 25.3454285c0-5.4580078-4.4404316-9.8984375-9.8984394-9.8984375-5.4589844 0-9.8994141 4.4404297-9.8994141 9.8984375 0 5.4589844 4.4404297 9.8994141 9.8994141 9.8994141 5.4580078-.0000001 9.8984394-4.4404298 9.8984394-9.8994141zm-8.138979 8.2106323c-7.9915066.1191597-11.8630266-9.2929077-6.4217529-14.446106 5.2183266-4.9422541 13.0607319-.4425354 13.0607319 6.2354736 0 4.0280152-2.8505268 7.3992921-6.638979 8.2106324z"/><path d="m39.8776817 38.4300842c2.1664467.6134338 3.0875702.8250732 4.4460449 1.2493286.3525391.1113281.7275391-.0507813.8935547-.3779297 2.9654312-5.8760757 2.8867569-4.9466743 3.0256958-7.4483643-.9868774-.8746948-2.2692871-2.2590942-3.3017578-2.9307861.7785645-2.7646484.5830078-5.7792358-.3823853-8.4902344.9959717-.7304077 1.9956665-1.6141968 2.9888306-2.2283936.0836792-.6704102.0777588-.9187012.1421509-1.4984741.2114868-.2064209.2862549-.5161133.1837158-.7953491-.734375-1.9902344-1.9267578-3.7890625-2.8837891-5.1337891-.1992188-.2783203-.5585938-.3886719-.8779297-.2666016-1.3925781.5292969-3.0498047.8945313-5.0566406 1.1162109-2.4072266-2.34375-5.4199219-4.0429688-8.3876972-4.7353516-.2314453-1.6738281-.625-3.3300784-1.171875-4.9296875-.1188965-.3479614-.4706421-.5374756-.8208618-.4849243l-5.8724976.1382446c-.4062347.0095811-.7796822.3509785-.7151489.8446045-.3074436.2223868-.2591171.3336112-.7125854 1.6641848-.3369141.9873047-.6845703 2.0039063-.8964844 3.0253906-3.0263672.7177734-5.8681641 2.4072266-7.9287109 4.7167969-1.5478516-.5634766-3.2236328-1.0175781-5.2255859-1.4150391-.3076172-.0595703-.6240234.0761719-.7871094.3447266-1.1219559 1.8430719-2.113277 3.5551119-3.2353516 5.4003906-.1738281.2851563-.1376953.6513672.0888672.8974609 1.2792969 1.3916016 2.5488281 2.6064453 3.9589844 3.7871094-1.2993631 2.8982468-.8186517 6.0829182-.2089844 9.1015625-1.1563201 1.2117062-2.3431969 2.4757729-3.4824219 3.5087891-.2871094.2607422-.328125.6962891-.0957031 1.0058594 1.0890622 1.4524345 2.0510125 3.1093369 3.0253906 4.7568359.1630859.2724609.4804688.4111328.7900391.3535156 1.7724667-.3483887 3.6785479-.5710144 5.5205078-.9101563 2.0386963 2.281311 4.8609619 3.8964233 7.8551025 4.5227051.4146118 1.7803955.9898682 3.6298218 1.71521 5.501709.1123047.2890625.390625.4785156.6992188.4785156.1001339 0 5.4890518-.0863533 5.7843628-.0930786-.0072632.0090942-.0124512.0195313-.0198364.0285034 1.3388367-.3765488 3.1083431-2.013279 4.0213642-3.0725708.0248413-.8972168.1424561-1.8274536.1672974-2.7247314 2.8884276-1.3251342 4.7735595-2.7927246 6.7570189-4.9069824zm-16.1975116 9.2571411c-1.3577461-3.6256065-1.3480225-4.8092995-1.6118164-5.171875-.0293579-.3304443-.2626953-.6160278-.6049805-.6757813-2.9658203-.515625-5.7744141-2.1347656-7.7060547-4.4423828-.1757813-.2089844-.453125-.3037109-.7197266-.2548828-1.7323532.3405037-3.6184015.5645714-5.4267578.8925781-.7800651-1.3179741-1.5630364-2.6409798-2.4501953-3.8925781.972579-.9216805 1.9686251-1.976738 3.3320313-3.4052734.171875-.1767578.2451172-.4277344.1962891-.6699219-.6018486-2.9557056-1.2343316-6.2976494.2539063-9.0283203.1728516-.3173828.0957031-.7128906-.1845703-.9404297-1.3974609-1.1386719-2.6416016-2.2949219-3.8808594-3.609375.9453249-1.5679073 1.8032103-3.0367317 2.6669922-4.4628906 1.9013672.3984375 3.4882813.8554688 4.9609375 1.4238281.2978516.1162109.6425781.0273438.8486328-.2207031 1.9746094-2.3876953 4.8613281-4.1074219 7.9189453-4.7197266.3066406-.0615234.5439453-.3076172.5927734-.6171875.3039017-1.894608 1.3513813-4.2279034 1.3867188-4.7880859l4.9925537-.1175537c1.3252716 4.18398.623764 5.0741692 1.6051025 5.262085 2.9531269.5703125 6.0136738 2.2783203 8.3964863 4.6875.1591797.1611328.3857422.2460938.6074219.21875 2.0400391-.2041016 3.7607422-.546875 5.2392578-1.0458984.7539063 1.0878906 1.5986328 2.4228516 2.1923828 3.859375-.6728516.6386719-1.3310547 1.328125-1.9707031 1.9970703-.515625.5400391-1.0283203 1.078125-1.5429688 1.5830078-.2021484.1982422-.2753906.4951172-.1884766.7646484.9384766 2.9150391.7724609 6.1689453-.4570313 8.9267578-.1230469.2783203-.0673828.6025391.1425781.8232422 1.3154449 1.3817558 2.7503586 2.5369949 4.0517578 3.8427734-.6817245 1.3370056-1.4407463 2.7569199-2.1572266 4.1572266-1.6964226-.4995995-3.3389931-.8834457-5.0009766-1.3994141-.2646484-.0839844-.5517578-.0126953-.7490234.1806641-2.3515625 2.3134766-5.3583984 4.0126953-8.2500019 4.6630859-.9377041.2087135-.3105907 1.0076981-1.7578125 6.109375-1.3967113.0286141-3.0410136.0384064-4.7255858.0703125z"/><path d="m50.860836 45.2760925c-3.5029297 0-6.3535156 2.8505859-6.3535156 6.3544922s2.8505859 6.3544922 6.3535156 6.3544922c3.5039063 0 6.3544922-2.8505859 6.3544922-6.3544922s-2.8505859-6.3544922-6.3544922-6.3544922zm-.637146 11.1445313c-4.1228218-1.2443008-5.0590553-6.5582199-1.781189-8.9736938 3.2883911-1.9100418 7.2728271.5045242 7.2728271 4.1836548.0000001 2.8126067-2.4403075 5.1967658-5.4916381 4.790039z"/><path d="m64.6782761 55.6168518c-.6045532-.5358276-1.3900719-1.3838501-2.0225182-1.7953491.4290161-1.5233154.3738403-3.1706543-.0707397-4.6953735-.0338135-.1669922-.0479126-.3375244-.0913696-.5023804.3522873-.3585701 1.3150749-1.0935898 1.7586632-1.367981.0256348-.2051392.036499-.3407593.0462646-.4714966.0755615-.0718384.1508789-.1504517.2263184-.2191162.2265625-.2050781.3056641-.5273438.2001953-.8144531-.4628906-1.2539063-1.2070274-2.3759766-1.8027306-3.2128906-.1992188-.2773438-.5566406-.3876953-.8769531-.2666016-.7998047.3037109-1.7490234.5166016-2.8925781.6503906-1.4414063-1.3710938-3.2167969-2.3789063-4.9804688-2.8320313-.1484375-.9775391-.3837891-1.9433594-.703125-2.8779297-.1121216-.3282471-.4318237-.5162964-.7617188-.4931641-1.4717636.0345421-3.7685623.0884438-3.6201172.0849609-.3796387.0089722-.6741943.3028564-.7150879.670105-.072998.0792236-.1334229.1713257-.1677246.2810669-.2392387.7643852-.5788727 1.6260757-.7792969 2.4902344-1.7802734.4589844-3.4472656 1.4501953-4.6962891 2.7890625-.9082031-.3193359-1.8955078-.5810547-3.0595703-.8125-.3056641-.0605469-.6230469.0761719-.7871094.3457031-.6093559.9991989-1.3134232 2.2075119-1.9814453 3.3066406-.1738281.2851563-.1376953.6513672.0888672.8974609.7412109.8066406 1.4775391 1.5185547 2.2871094 2.2070313-.6948242 1.7381134-.4559517 3.5852356-.0908203 5.4003906-.6609917.6925507-1.3462296 1.4196053-2.0136719 2.0253906-.2871094.2607422-.328125.6962891-.0957031 1.0058594 1.7748337 2.3674049 1.7226334 3.4060402 2.625 3.2412109 1.0497971-.2061157 2.1519699-.3372269 3.2197266-.5273438 1.2391357 1.3353271 2.9086304 2.2926025 4.6852417 2.7023315.2532959 1.0482178.5870972 2.1304932 1.0120239 3.227356.1123047.2900391.3896484.4794922.6992188.4794922.1069069 0 3.4411888-.0546341 3.5732422-.0576172.3242188-.0078125.6074219-.2226563.7001953-.5341797.0116577-.0387573.0223999-.0814819.0339966-.1207275.6317139-.4096069 1.2819214-1.0297241 1.6871948-1.499939.0151978-.5496216.0872192-1.1194458.102478-1.6690674 1.6566162-.7600098 2.7746582-1.6000977 3.9077148-2.7665405 1.0497627.3035355 1.9598808.5201645 2.8692017.8033447.3476563.1113281.7265625-.0507813.8925781-.3779297.5268059-1.0437851 1.1406364-2.1824646 1.6445274-3.1826172.1361694-.2685547.0922241-.5869751-.0986938-.81604.0189209-.1650998.0296631-.365051.0479737-.6947629zm-2.6475182 3.4580689c-1.0051041-.286068-1.9270935-.5084648-2.828125-.7890625-.2646484-.0839844-.5517578-.0117188-.7490234.1816406-1.4013672 1.3798828-3.1923828 2.3925781-4.9130859 2.7792969-.3027344.0673828-.5322266.3144531-.578125.6210938-.1523438 1.0244141-.3867188 2.1328125-.6572266 3.1181641-1.0820656.0190811-1.5795708.0195923-2.4726563.0361328-.7685242-2.1074486-.7087021-2.5524483-.9049072-2.939209-.0449829-.3129272-.2755737-.5776978-.6038818-.6350098-1.75-.3046875-3.4072266-1.2607422-4.546875-2.6210938-.1757813-.2089844-.4511719-.3027344-.7197266-.2548828-1.01437.1991615-2.0195465.3188286-3.1210938.5097656-.4003906-.6748047-.8125-1.3642578-1.2675781-2.0253906.5307617-.5141449 1.069603-1.0834579 1.8701172-1.921875.5356636-.5570908-.1451111-1.1888695-.203125-3.4560547-.0263672-1.0048828.1503906-1.8613281.5244141-2.546875.1728516-.3173828.0957031-.7128906-.1845703-.9404297-.7900391-.6435547-1.4980469-1.2958984-2.1972656-2.0263672.4657364-.7749405.9603081-1.6159096 1.4121094-2.3652344 1.0615234.2304688 1.9589844.4941406 2.7919922.8154297.2998047.1162109.6425781.0273438.8486328-.2207031 1.1679688-1.4121094 2.875-2.4296875 4.6835938-2.7919922.3066406-.0615234.5439453-.3076172.5927734-.6162109.134716-.8423119.4922791-1.729866.7991943-2.6940308l2.5947266-.0610962c.2522583.838501.4500122 1.6949463.5523682 2.5637207.0390625.3242188.2822266.5869141.6025391.6484375 1.7539063.3388672 3.5732422 1.3554688 4.9921875 2.7900391.1591797.1611328.3837891.2490234.6074219.21875 1.1767578-.1171875 2.1855469-.3095703 3.0644531-.5859375.3867188.5703125.7978516 1.2382813 1.1132813 1.9501953-.7001495.6779785-1.3651733 1.4242477-2.0097656 2.0566406-.2021484.1992188-.2753906.4951172-.1884766.7646484.5537109 1.71875.4550781 3.6367188-.2685547 5.2597656-.3388977.757843.4959221 1.1011467 2.4794922 3.0341797-.183594.3554688-.7695505 1.4709702-1.1152346 2.1435548z"/></g></svg>