<svg id="Layer_1" enable-background="new 0 0 68 68" height="512" viewBox="0 0 68 68" width="512" xmlns="http://www.w3.org/2000/svg"><g id="_x38_1"><path d="m49.6697807 34.6594429c-1.947464-.4194031-3.549984-.3821259-3.4494629-.3762817-.0431519 0-.0852661.0058594-.1283569.0062256-.6919937-14.708643.334465-18.0609722-.883728-22.699461-.3363037-1.2804565-1.032959-3.0177002-2.0318604-4.4064336-1.6239014-2.666687-4.0599365-4.5296021-6.9599609-5.2089233-.1182251-.0281982-.2339478-.0185547-.3449707.008606-.508709-.1989381 1.3570023-.0451351-29.7145977-.3582153-.7158203 0-1.2983398.5825197-1.2983398 1.29834v49.2558594c0 .3482666.1937256.6401978.4689941.8085938.3318481.4789429.5847778.8813477 1.0007324 1.4420776 7.9491572-.1262207 16.7405396.0986938 24.6994629-.0233765 1.6783848 6.8408165 7.7900524 12.0111275 15.2332134 11.9683266 9.7330017-.0559006 16.7994881-7.1933632 16.8799438-15.943119.0663872-7.229124-4.9888839-14.463602-13.4710693-15.7722186zm-12.8682251-30.9310286c2.9059448 1.0244138 5.1716309 3.5044553 6.2781372 6.8733521-2.0110474.0288696-4.0911865.0482178-6.3496094-.1037598-.0538482-2.2631576.0488091-4.1751993.0714722-6.7695923zm9.430481 32.0547469c12.8442688 0 19.0881157 15.1560059 10.1601563 23.8857422-4.5719643 4.4706383-10.2630882 4.1329193-10.1630859 4.1132813-3.8325195 0-7.4365234-1.4560547-10.1469727-4.0996094-5.6033859-5.4660034-5.611557-14.3120537-.0131836-19.7861328 4.5719642-4.4706384 10.263092-4.1329156 10.1630859-4.1132813zm-39.8735337-32.6567366 28.947752.1943359c-.009922 2.5603387-.1376762 4.7766914-.0732422 7.3007813.0219727.7236328.6088867 1.324707 1.3300781 1.3681641 2.4765625.1704102 4.7260742.1381836 6.8398438.0395508l.2296753 22.4769268c-8.1768074 1.3128281-14.1600094 8.6593208-13.1302471 17.1334229h-24.1438599z"/><path d="m36.1955376 57.6709175c20.076622-.0570145 19.295372-.0798988 19.5494995-.1755981.2032471-.0765381.3745728-.2801514.4812622-.5083008.3470459-.0639038.6154785-.3530884.6185303-.7180176.0031586-.431839-.2269211-.8282394-.309082-1.050293-.7459984-2.0455704-1.4816742-3.899498-3.1054688-5.4121094-1.6871223-1.5722656-3.9257469-2.4910507-6.1977539-2.5053711-1.6049805.0007324-3.1096191.4706421-4.6282959 1.446228-2.8794708 1.3864632-5.7438316 4.3623047-6.8046875 8.4194336-.0666504.2548829.1325073.505127.3959961.5040284zm18.8538818-2.1494751-16.2978516.1567383c.4580078-1.6132813 1.4326172-3.0014648 3.1333008-4.5039063 1.7339325-1.5314903 3.5872383-2.5505295 5.9003906-2.3491211 1.7036133.1499023 3.3452148.8881836 4.6225586 2.0791016 1.3503685 1.2582054 1.9963112 2.858696 2.6416016 4.6171875z"/><path d="m42.7782402 44.1932564c.6876831 1.6940308 2.553833 2.6590576 4.387146 2.5640259 2.236496.2443199 4.2529716-.9497719 5.0686035-2.8334961 1.6362038-3.777874-2.3390427-7.5821037-6.3242188-6.109375-1.0527344.3898926-1.8886719 1.1032715-2.4396362 2.0164185-.9398193 1.222351-1.274353 2.9274291-.6918945 4.3624267zm8.0792847-.8656616c-.3481445.8046875-1.0185547 1.4248047-1.887207 1.7460938-2.7802925 1.0333252-5.5300751-1.5582352-4.4272461-4.1064453.5439415-1.2564735 1.8355675-1.9716797 3.1474609-1.9716797 1.3618164-.0000001 4.0638046 2.2598533 3.1669922 4.3320312z"/><path d="m28.9293041 12.5190029h-19.6796884c-.4140625 0-.75.3359375-.75.75s.3359375.75.75.75h19.6796875c.4140625 0 .75-.3359375.75-.75s-.3359366-.75-.7499991-.75z"/><path d="m27.0157299 24.1161709h-17.3149424c-.4140625 0-.75.3359375-.75.75s.3359375.75.75.75h17.3149414c.4140625 0 .75-.3359375.75-.75s-.3359365-.75-.749999-.75z"/><path d="m20.5552807 35.7133369h-10.5532236c-.4140625 0-.75.3359375-.75.75s.3359375.75.75.75h10.5532236c.4140625 0 .75-.3359375.75-.75s-.3359375-.75-.75-.75z"/><path d="m14.0704165 43.269001h-2.4125977c-.4140625 0-.75.3359375-.75.75s.3359375.75.75.75h2.4125977c.4140625 0 .75-.3359375.75-.75s-.3359375-.75-.75-.75z"/><path d="m32.9708061 13.8437099c.4140625 0 .75-.3359375.75-.75v-.3515625c0-.4140625-.3359375-.75-.75-.75s-.75.3359375-.75.75v.3515625c0 .4140625.3359375.75.75.75z"/><path d="m31.5650463 25.8202724c.4140625 0 .7499981-.3359375.7499981-.75v-.5556641c0-.4140625-.3359356-.75-.7499981-.75s-.75.3359375-.75.75v.5556641c0 .4140625.3359375.75.75.75z"/><path d="m24.0093822 35.7133369c-.4140625 0-.75.3359375-.75.75v.1757813c0 .4140625.3359375.75.75.75s.75-.3359375.75-.75v-.1757813c0-.4140625-.3359375-.75-.75-.75z"/><path d="m16.1021557 43.6620674c-.5505524.5524788-.0039692 1.5042725.8100586 1.2299805.4792747-.1917076.6422863-.8376923.25-1.2299805-.2766724-.2766685-.7675972-.2924614-1.0600586 0z"/></g></svg>