<svg fill="#fff" id="Layer_1" enable-background="new 0 0 68 68" height="512" viewBox="0 0 68 68" width="512" xmlns="http://www.w3.org/2000/svg"><g id="_x33_8"><path d="m23.9470844 5.5263453c.3828125-.1582031.5644531-.5966797.4057617-.9794922-.2104492-.5068359-.3300781-1.0419924-.355957-1.5908206-.0195313-.4140625-.3730469-.75-.7841797-.7138672-.4140625.0195313-.7333984.3701172-.7138672.7841797.0336914.7226563.1914063 1.4277346.4682617 2.0947268.158825.3837705.5990677.5639877.9799805.4052735z"/><path d="m31.1458149 5.1503687c.3217773 0 .6191406-.2089844.7172852-.5322266l.6127949-2.0214846c.1201172-.3964844-.1035156-.8154296-.5000019-.9355468-.3964844-.1171875-.8144531.1025391-.9355469.4999999l-.612793 2.0214846c-.1457367.4810491.2146072.9677735.7182617.9677735z"/><path d="m38.7942543 7.8779078c.6723633-.3662109 1.265625-.8867188 1.7163086-1.5039063.2441406-.3349609.1704102-.8046875-.1640625-1.0488281-.3349609-.2431641-.8037109-.1708984-1.0478516.1640625-.3208008.4404297-.7436523.8105469-1.222168 1.0722656-.3637695.1982422-.4980469.6533203-.2998047 1.0175781.2002412.3660345.6586266.4960194 1.0175782.2988282z"/><path d="m52.6326332 51.3759537c-.8764648-.3203125-1.9394531-.6240234-3.1601563-.9033203-1.2856445-.2900391-2.621582.2402344-3.1713867 1.2675781-.1627197.3045044-.3056641.6152954-.4545898.9242554-2.3434944-.9405327-4.6406288-2.8146362-6.7807617-3.1713257-3.1205521-.764431-3.2489281-.4766769-5.3505859-2.9492188-.9327316-1.097332-1.1784248-1.3447113-1.8748798-1.8960571.8654346-.480793 1.5953541-1.2981186 1.9292622-2.2694702.7860603-.2144051 1.3060646-1.2842598 1.0682983-2.156189-.1313477-.5689812-.0025063-.5266647.1959839-.7252808.9299698-1.0355225.4201965-2.4343491-.1665649-2.3129883.624279-.5313034.8848991-1.5309105.3135986-2.3521729-.0015259-.0022583-.00354-.0043335-.005127-.0065918.5083618-.2979736.9691162-.7127686 1.0940552-1.0526733.5166016-1.4053955.229248-2.9186401.8917847-4.3838501.6340332-1.4020996 1.6402588-2.6065674 2.4581909-3.9013672 2.1516113-3.4061279 2.4754028-7.7316284.8613281-11.4412222-1.6769562-3.8538952-4.0724983-6.2246108-8.3475342-7.3577881-5.2383976-1.9643993-10.8315964.3354244-13.5985737 4.3839722-2.434082 3.5595703-2.7480459 8.5166006-.7827148 12.3320303 1.4290791 2.7831097 3.4489002 4.7061176 3.6494141 7.734375.0888672 1.3466797.3461914 2.8359375 1.5805664 3.6582031.0286255.019104.0615234.0228882.0916138.0375366l.0387573.0728149c-.4967556 1.0522995-.3989029 1.9129829-.0170898 2.5322266-.497366.8261757-.4334297 1.7992668.0375977 2.5341797-.2489796.9091988.0827999 1.8450356.7211914 2.3222656l.0996094.1005859c.4850788.629467 1.1063271 1.5115204 1.8653564 2.3117065-.2264347.495327-.2503223.9889946-.1461182 1.524231.1621094.6220703.515625 1.0996094.8969727 1.5761719 1.6911621 2.0994835 3.0168552 4.3340874 5.1871338 6.2460327-1.9267197-.3163643-5.1747093-1.3615646-6.9888916-2.0038452-3.413702-1.1117172-7.2771797-3.5837975-10.1230459-5.84375-.3857422-.3076172-.8652344-.6894531-1.4228516-.8730469-1.3006964-.427166-2.7986794.5510063-2.4042969 2.2615356-.4622316 1.4150696.2414093 2.7518082 1.0712891 3.907959 6.1475573 8.5653687 17.9290886 13.1348724 31.1748657 10.0970459-.1166992.9939575-.2580566 2.0188599-.3813477 3.0211182-.0532227.4330444.3091431.8236694.8374023.9237671 4.5147896.8556976 5.1877937 1.0478973 6.0740356.5664063l.6514893-.3540039c.0609322.0086288.4160347.0566406.4838867.0566406.3657227 0 .6865234-.2685547.7412109-.640625.0600586-.4101563-.2236328-.7910156-.6333008-.8515625-2.0349808-.2989655-3.8997192-.4849319-5.8339844-.7548828-.15625-3.7773438.7446289-7.609375 2.6201172-11.1201172.2294922-.4287109.8945313-.6533203 1.5151367-.5117188 2.8131065.6422501 2.2615433.7507935 4.671875 1.2958984.5893555.1328125 1.5141602.3417969 1.925293.5351563-1.2336884 3.5064697-1.3947983 6.0269661-2.3515625 8.4482422-.1518555.3847656.0371094.8203125.4223633.9726563.3833008.1542969.8203125-.0361328.9731445-.421875.5107422-1.2929688.8066406-2.5859375 1.1201172-3.9541016.3378906-1.4736328.6865234-2.9980469 1.3476563-4.8173828.6820382-1.8756102-3.1350585-2.0770644-4.6152335-2.6181639zm-33.5463886-28.6582032c-1.7211914-3.3408203-1.4448242-7.6806631.6870117-10.7998037 2.0956478-3.0642986 6.0623283-4.973671 10.0229492-4.3388672 3.4521503.5742188 6.6142597 3.0869141 8.0571308 6.4013672.9731445 2.234374 1.1054688 4.9169912.3706055 7.5546865-1.2844734 4.7217178-4.6933937 6.1622696-4.7241211 10.6279297-.0034103.5009155.0088272 1.1964493-.4098511 1.4616699-.1079102.0087242-5.4664478.8711052-9.2342548-.0343628-.0157471-.0123901-.0244751-.0302734-.0414429-.0415649-.6914063-.4609375-.8510742-1.5273438-.9155273-2.5097656-.2315521-3.4884605-2.4210968-5.6106777-3.8125-8.3212891zm5.7973633 18.4863282c-.1026669-.107933-.2695961-.1579933-.3217773-.4746094-.0956116-.5890961.3965816-.6135025.0952148-1.2539063-.0512695-.1083984-.1352539-.2021484-.2358398-.2744141-.2791843-.3771439-.1919918-.902565.0893555-1.1474609.1894531-.1650391.2836914-.4150391.2509766-.6640625l-.0195313-.1474609c-.0752964-.5612984-.508976-.3949242-.4658203-1.0380859.0209961-.3232422.1826172-.65625.3383789-.9404297 2.2832031.347229 5.1415405.2816162 7.425539.0231934.1220322.2134399.2918854.5464516.3171387.7922363.0249023.2294922-.0341797.4501953-.144043.5380859-.3312073.2637939-.2679043.5959435-.290041.6962891-.0143795.2343369.078043.470871.2968769.6523438.2726135.2362099.3706779.7008514.1611328 1.0722656-.362915.2282639-.4605579.7119637-.21875 1.0615234.1770744.2557755.1533966.6492805-.003418.8330078-.0009766.0009766-.0019531.0029297-.0029297.0039063-.3926582.2116928-1.8394566 2.0313263-2.3573627 2.5884399-.9962978-.311718-2.0267315-.3851776-2.9547119.1046753-.6875516-.7403412-.857996-1.1011315-1.9603882-2.4255371zm18.8459491 18.2537842c-13.70858.4927902-21.1075726.370121-30.1721191-10.1043701-.4504395-.5605469-1.7657824-2.2358246-1.1328125-2.5830078.4470234-.2450333 1.3582125.7484627 1.8544922 1.0283203 4.1370077 2.9808769 3.5433111 2.8879204 10.0371084 5.6816406 2.1129665.6519966 8.1356602 3.0147743 9.958498 1.8095703.5653038-.3720779.3887863-1.2498627-.2926636-1.3603516-.0324097-.0333862-.0560303-.072876-.09552-.1005859-2.7059555-1.8987122-4.2017498-4.5453072-6.1464863-6.9599609-.4910126-.6131325-.9226112-1.1765556-.3867188-1.7880859.1889648-.1835938.5517578-.2978516.9570313-.3056641 1.8649368 0 3.1959934 1.4864197 4.2617207 2.7392578.3726311.4392967 1.3824387 1.5597534 1.5058594 1.6230469 1.0274849 1.0415611 2.7761307 1.4045601 3.8012695 1.6259766 1.9178352.4152031 2.1981506.510994 4.4926758 1.8105469.944519.5354004 1.9140015 1.0758667 2.864624 1.4630737-.7207041 1.7647094-1.234376 3.5819701-1.506959 5.4205932z"/><path d="m49.0711098 52.6425552c-.5813065-.1611862-1.2222557.4502182-1.3183594 1.0996094-.219574 1.4825287 1.8237076 2.061882 2.7260742 1.0585938.862278-.9546662-.043396-2.4395066-1.4077148-2.1582032z"/><path d="m11.722476 15.6152124c2.7403212 1.2272062 2.6626701 1.2763662 2.9541016 1.2763662.8017044 0 1.0435963-1.0971489.3120117-1.4326162l-2.6411133-1.2070313c-.378418-.1738281-.8217773-.0078125-.9941406.3691406-.1728516.3769532-.0073242.8222657.3691406.9941407z"/><path d="m16.6179829 9.4452906c.2812195.3071213.7565632.3261232 1.0595703.0478516.3061523-.2792969.3276367-.7529297.0488281-1.0595703l-1.2861328-1.4091797c-.2797852-.3056641-.7543936-.328125-1.0595694-.0478516-.3061523.2792969-.3276367.7529297-.0488281 1.0595703z"/><path d="m42.8372231 14.3583765c.5336914-.2958984 1.1064453-.5136719 1.7021484-.6455078.4047852-.0898438.659668-.4902344.5703125-.8945313-.0898438-.4042969-.4897461-.6601563-.8950195-.5703125-.7373047.1640625-1.4458008.4326172-2.105957.7998047-.3623047.2011719-.4926758.6572266-.2915039 1.0195313.2027473.3650903.6623763.4910526 1.0200195.2910156z"/><path d="m42.5252113 22.241188c-.0258789.4130859.2880859.7695313.7016602.7949219.0482826.003006 1.959137.1240234 2.0073242.1240234.3935547 0 .7236328-.3066406.7480469-.7041016.0253906-.4130859-.2890625-.7695313-.7026367-.7949219l-1.9589844-.1210938c-.4208984-.0498045-.7695313.2880861-.7954102.701172z"/><path d="m12.0950346 21.2304459c-.4140625 0-.75.3359375-.75.75s.3359375.75.75.75h2.8178711c.4140625 0 .75-.3359375.75-.75s-.3359375-.75-.75-.75z"/></g></svg>