<svg width="1042" height="173" viewBox="0 0 1042 173" fill="none" xmlns="http://www.w3.org/2000/svg">
<path d="M993.15 169.381L968.763 129.441C974.61 129.441 978.918 129.826 981.072 129.672C992.073 128.825 994.227 122.207 994.227 122.207C996.15 119.129 992.611 118.128 992.611 118.128C982.687 113.742 971.686 109.355 969.148 98.6583C966.686 87.9613 953.454 76.4178 949.839 74.6478C946.146 72.8778 947.608 69.107 947.608 69.107L958.609 50.7913C944.146 50.9452 929.914 56.7939 920.837 61.4113L882.372 3.30913H930.453L958.993 50.7143L986.611 3.30913H1034.46L983.687 81.9587L1041.15 169.612H993.073L993.15 169.381ZM877.91 165.995L875.679 169.381H923.068L945.454 130.826C925.222 133.75 899.989 142.216 877.91 165.995ZM584.35 169.381H624.969V106.046H694.897V68.7222H624.969V40.4022H704.513V3.15522H584.273V169.381H584.35ZM720.899 52.7922C715.975 64.9513 714.36 77.2643 714.36 88.2691C714.36 130.98 749.362 172.537 801.751 172.537C854.139 172.537 889.757 132.519 889.757 86.2683C889.757 40.0174 853.139 0 801.982 0C750.824 0 729.669 31.2443 720.899 52.7922ZM756.825 85.8065C756.825 62.4117 772.749 37.247 802.212 37.247C831.676 37.247 847.37 64.8743 847.37 86.4222C847.37 107.97 832.753 135.136 802.674 135.136C772.595 135.136 756.825 111.356 756.825 85.7296V85.8065Z" fill="url(#paint0_linear_975_1147)"/>
<path d="M333.41 169.38L380.875 3.1543H392.722L440.187 169.38H416.416C408.492 145.601 398.645 133.75 386.721 133.75C374.797 133.75 364.95 145.601 357.027 169.38H333.256H333.41ZM386.798 62.4878L369.028 121.898C380.875 113.972 392.799 113.972 404.646 121.898L386.875 62.4878H386.798Z" fill="#E7308F"/>
<path d="M23.771 3.1543C46.6957 3.1543 66.3126 11.2347 82.5445 27.4726C98.7765 43.7104 106.854 63.2573 106.854 86.2673C106.854 109.277 98.7765 128.824 82.5445 145.062C66.3126 161.3 46.7727 169.38 23.771 169.38H0V3.1543H23.771ZM23.771 145.678C40.1568 145.678 54.1578 139.906 65.6971 128.286C77.3134 116.665 83.083 102.659 83.083 86.3443C83.083 70.0295 77.3134 55.9465 65.6971 44.403C54.0809 32.7826 40.0799 27.0108 23.771 27.0108V145.755V145.678Z" fill="#E7308F"/>
<path d="M319.946 3.1543V26.9339H260.557V74.416H308.022V98.1956H260.557V145.678H319.946V169.457H236.863V3.1543H319.946Z" fill="#E7308F"/>
<path d="M455.342 4.30864L454.727 3.1543H481.19L508.731 59.3326L536.271 3.1543H562.735L562.119 4.30864V169.38H538.348V52.7913L508.654 113.202L478.959 52.7913V169.38H455.188V4.30864H455.342Z" fill="#E7308F"/>
<path d="M192.014 121.744L211.015 169.38H183.705L168.858 132.21C164.089 133.211 159.165 133.75 154.011 133.75H148.087V169.38H124.316V3.1543H154.011C172.089 3.1543 187.475 9.54169 200.168 22.2395C212.938 35.0143 219.246 50.4056 219.246 68.4134C219.246 86.4213 212.861 101.89 200.168 114.587C197.553 117.204 194.86 119.59 192.014 121.744ZM148.087 110.047H154.011C165.473 110.047 175.243 105.968 183.398 97.8878C191.475 89.8073 195.552 79.9569 195.552 68.4904C195.552 57.0239 191.475 47.2504 183.398 39.093C175.32 31.0126 165.473 26.9339 154.011 26.9339H148.087V110.047Z" fill="#E7308F"/>
<defs>
<linearGradient id="paint0_linear_975_1147" x1="584.35" y1="86.2683" x2="1041.23" y2="86.2683" gradientUnits="userSpaceOnUse">
<stop stop-color="#E72F8F"/>
<stop offset="1" stop-color="#F15A5B"/>
</linearGradient>
</defs>
</svg>
