<svg width="1048" height="172" viewBox="0 0 1048 172" fill="none" xmlns="http://www.w3.org/2000/svg">
<path d="M694.589 106.431C698.205 105.892 701.436 105.815 703.975 105.892L699.359 98.2734L694.666 106.431H694.589Z" fill="white"/>
<path d="M696.974 91.5781C696.974 91.5781 701.667 91.732 702.205 95.349C702.205 95.349 697.59 95.6568 696.974 91.5781Z" fill="#010101"/>
<path d="M996.535 171.613L972.148 131.673C977.995 131.673 982.303 132.058 984.457 131.904C995.458 131.057 997.612 124.439 997.612 124.439C999.535 121.361 995.996 120.36 995.996 120.36C986.072 115.974 975.071 111.587 972.533 100.89C970.071 90.1932 956.839 78.6498 953.224 76.8798C949.531 75.1098 950.993 71.3389 950.993 71.3389L961.994 53.0232C947.531 53.1772 933.299 59.0258 924.222 63.6432L885.757 5.54106H933.838L962.378 52.9463L989.996 5.54106H1037.85L987.072 84.1906L1044.54 171.844H996.458L996.535 171.613ZM881.295 168.227L879.064 171.613H926.453L948.839 133.058C928.607 135.982 903.374 144.448 881.295 168.227ZM587.735 171.613H628.354V108.278H698.282V70.9541H628.354V42.6341H707.898V5.38715H587.658V171.613H587.735ZM724.284 55.0241C719.36 67.1832 717.745 79.4963 717.745 90.5011C717.745 133.212 752.747 174.768 805.136 174.768C857.524 174.768 893.142 134.751 893.142 88.5002C893.142 42.2493 856.524 2.23193 805.367 2.23193C754.209 2.23193 733.054 33.4763 724.284 55.0241ZM760.21 88.0385C760.21 64.6437 776.134 39.4789 805.597 39.4789C835.061 39.4789 850.755 67.1063 850.755 88.6541C850.755 110.202 836.138 137.368 806.059 137.368C775.98 137.368 760.21 113.588 760.21 87.9615V88.0385Z" fill="url(#paint0_linear_16_224)"/>
<path d="M336.794 171.613L384.259 5.38721H396.106L443.571 171.613H419.8C411.876 147.834 402.029 135.982 390.105 135.982C378.181 135.982 368.335 147.834 360.411 171.613H336.64H336.794ZM390.182 64.7207L372.412 124.131C384.259 116.205 396.183 116.205 408.03 124.131L390.259 64.7207H390.182Z" fill="#E7308F"/>
<path d="M27.1557 5.38721C50.0805 5.38721 69.6973 13.4676 85.9293 29.7055C102.161 45.9433 110.239 65.4902 110.239 88.5003C110.239 111.51 102.161 131.057 85.9293 147.295C69.6973 163.533 50.1574 171.613 27.1557 171.613H3.38477V5.38721H27.1557ZM27.1557 147.911C43.5416 147.911 57.5426 142.139 69.0819 130.519C80.6981 118.898 86.4678 104.892 86.4678 88.5772C86.4678 72.2624 80.6981 58.1794 69.0819 46.6359C57.4657 35.0155 43.4646 29.2437 27.1557 29.2437V147.988V147.911Z" fill="#E7308F"/>
<path d="M323.331 5.38721V29.1668H263.942V76.6489H311.407V100.429H263.942V147.911H323.331V171.69H240.248V5.38721H323.331Z" fill="#E7308F"/>
<path d="M458.726 6.54155L458.11 5.38721H484.574L512.114 61.5655L539.655 5.38721H566.118L565.503 6.54155V171.613H541.732V55.0242L512.037 115.435L482.343 55.0242V171.613H458.572V6.54155H458.726Z" fill="#E7308F"/>
<path d="M195.399 123.977L214.4 171.613H187.091L172.243 134.443C167.474 135.444 162.55 135.982 157.396 135.982H151.473V171.613H127.702V5.38721H157.396C175.474 5.38721 190.86 11.7746 203.553 24.4724C216.324 37.2472 222.632 52.6385 222.632 70.6463C222.632 88.6542 216.247 104.122 203.553 116.82C200.938 119.437 198.245 121.822 195.399 123.977ZM151.473 112.28H157.396C168.859 112.28 178.628 108.201 186.783 100.121C194.86 92.0403 198.938 82.1898 198.938 70.7233C198.938 59.2568 194.86 49.4833 186.783 41.3259C178.705 33.2455 168.859 29.1668 157.396 29.1668H151.473V112.28Z" fill="#E7308F"/>
<defs>
<linearGradient id="paint0_linear_16_224" x1="587.735" y1="88.5002" x2="1044.62" y2="88.5002" gradientUnits="userSpaceOnUse">
<stop stop-color="#E72F8F"/>
<stop offset="1" stop-color="#F15A5B"/>
</linearGradient>
</defs>
</svg>
