<svg width="1158" height="296" viewBox="0 0 1158 296" fill="none" xmlns="http://www.w3.org/2000/svg">
<path d="M281.641 243.3H222.441V52.0996H281.641V243.3Z" fill="#0DA0F7"/>
<path d="M462.341 52.0996V157.7L355.741 62.0996C351.141 57.8996 347.041 55.0996 343.441 53.8996C339.841 52.6996 336.241 52.0996 332.741 52.0996C329.241 52.0996 324.741 52.7996 320.941 53.9996C317.141 55.2996 313.841 57.2996 310.941 60.0996C308.041 62.8996 305.741 66.4996 304.041 70.8996C302.241 75.2996 301.441 80.5996 301.441 86.6996V243.3H360.641V138L466.941 233.4C471.341 237.6 475.341 240.4 478.941 241.6C482.541 242.8 486.141 243.4 489.841 243.4C493.541 243.4 497.841 242.7 501.741 241.5C505.641 240.2 508.941 238.1 511.841 235.3C514.741 232.5 517.041 228.8 518.741 224.4C520.541 220 521.341 214.7 521.341 208.6V52.2996H462.141L462.341 52.0996Z" fill="#0DA0F7"/>
<path d="M775.342 108C769.642 96.4996 761.642 86.5996 751.442 78.2996C741.242 69.9996 729.142 63.5996 715.042 58.9996C700.942 54.3996 685.542 52.0996 668.742 52.0996H612.542C565.742 52.0996 540.742 101.8 540.742 101.8H668.742C676.742 101.8 684.142 103 691.042 105.4C697.842 107.8 703.842 111 709.042 115.1C714.142 119.2 718.142 124.1 721.042 129.8C723.942 135.5 725.342 141.7 725.342 148.4C725.342 155.1 723.942 160.9 721.042 166.6C718.142 172.2 714.242 177 709.342 181C704.342 185 698.442 188.1 691.442 190.3C684.442 192.5 676.942 193.6 668.742 193.6H600.142V122.8H540.742V243.3H668.742C685.342 243.3 700.642 240.8 714.742 235.9C728.842 230.9 740.942 224.2 751.142 215.5C761.342 206.8 769.342 196.5 775.142 184.6C780.942 172.7 783.842 159.8 783.842 145.9C783.842 132 780.942 119.6 775.242 108H775.342Z" fill="#0DA0F7"/>
<path d="M862.442 243.3H803.242V52.0996H862.442V243.3Z" fill="#0DA0F7"/>
<path d="M995.342 193.6C987.342 193.6 979.942 192.5 973.042 190.2C966.142 187.9 960.242 184.7 955.342 180.6C950.342 176.5 946.442 171.6 943.642 165.9C940.942 160.4 939.542 154.3 939.442 147.7C939.442 141.1 940.942 135.1 943.642 129.5C946.542 123.8 950.442 118.9 955.342 114.8C960.342 110.7 966.242 107.5 973.042 105.2C979.942 102.9 987.342 101.8 995.342 101.8H1057.54C1104.34 101.8 1129.34 52.0996 1129.34 52.0996H995.342C978.742 52.0996 963.442 54.2996 949.342 58.7996C935.242 63.2996 923.142 69.6996 912.942 77.8996C902.742 86.1996 894.742 96.0996 888.942 107.6C883.142 119.1 880.242 131.9 880.242 145.8C880.242 159.7 880.442 147 880.442 147.6C880.442 148.2 880.242 148.8 880.242 149.4C880.242 163.3 883.142 176 888.942 187.6C894.742 199.1 902.742 209 912.942 217.3C923.142 225.6 935.242 232 949.342 236.4C963.442 240.9 978.742 243.1 995.342 243.1H1057.54C1104.34 243.1 1129.34 193.4 1129.34 193.4H995.342V193.6Z" fill="#0DA0F7"/>
<path d="M130.942 154.6C130.942 154.6 119.442 162.3 90.6424 156.6C66.9424 151.9 49.9424 140.5 39.9424 138.1C29.8424 135.7 20.7424 138.6 17.8424 142.1C13.6424 147.2 2.94241 157.8 10.2424 178.7C17.4424 199.6 116.342 211.8 130.742 210.7C143.742 209.7 145.342 208.1 145.342 208.1L159.542 180.7L137.942 145.7L130.942 154.6Z" fill="url(#paint0_linear_1394_1164)"/>
<path d="M92.644 179.6C69.044 174.1 49.544 165.3 39.444 162.9C29.344 160.5 20.844 138.5 17.944 142C13.744 147.1 3.04398 157.7 10.344 178.6C17.544 199.5 116.444 211.7 130.844 210.6C143.844 209.6 145.444 208 145.444 208L149.944 205L152.744 171.2C152.744 171.2 140.744 190.7 92.644 179.5V179.6Z" fill="url(#paint1_linear_1394_1164)"/>
<path d="M40.0418 138.1C25.1418 136.1 24.0418 152.6 43.5418 160.2C73.4418 171.9 103.342 182.8 117.642 202.9C134.142 226.1 133.442 243.8 127.742 261.4C121.142 281.8 99.1418 295.5 99.1418 295.5C99.1418 295.5 102.742 266.8 73.7418 241.8C44.7418 216.8 20.2418 204.9 13.4418 192.8C6.64184 180.7 5.34184 172.3 7.44184 161.8C9.44184 151.3 12.6418 144.5 20.7418 139.7C28.8418 134.9 40.0418 138.1 40.0418 138.1Z" fill="url(#paint2_linear_1394_1164)"/>
<path d="M40.0418 138.1C13.8418 133.3 17.5418 158.9 29.2418 168C56.4418 189.2 86.4418 186.9 106.142 213.2C120.942 232.9 120.542 250.8 115.342 269.3C110.142 287.8 99.2418 295.5 99.2418 295.5C99.2418 295.5 101.842 266.8 72.8418 241.8C43.8418 216.8 20.3418 204.9 13.4418 192.8C6.64184 180.7 5.34184 172.3 7.44184 161.8C9.44184 151.3 12.6418 144.5 20.7418 139.7C28.8418 134.9 40.0418 138.1 40.0418 138.1Z" fill="url(#paint3_linear_1394_1164)"/>
<path d="M40.0424 138.1C9.14237 131 7.64237 161.9 12.7424 174.6C25.0424 205.7 62.4424 205.9 89.9424 229.3C105.442 242.4 111.142 257.7 106.442 275C101.742 292.4 99.1424 295.4 99.1424 295.4C99.1424 295.4 101.842 267.7 72.8424 242.7C43.8424 217.7 23.2424 207.8 13.4424 192.7C5.84237 181.1 4.54237 171.6 6.54237 161.1C8.54237 150.6 13.2424 143.8 20.4424 139.5C28.5424 134.7 40.0424 138 40.0424 138V138.1Z" fill="url(#paint4_linear_1394_1164)"/>
<path d="M17.042 0C17.042 0 -11.558 59.2 5.34204 89C22.242 118.8 105.142 139.3 128.542 160.2C151.842 181.1 149.842 202.5 145.342 208.1C145.342 208.1 163.142 200.1 172.742 171.1C182.442 142.1 178.742 112.7 157.042 91.8C135.342 70.9 77.942 54.3 49.142 33.8C29.742 20 16.942 0 16.942 0H17.042Z" fill="url(#paint5_linear_1394_1164)"/>
<path style="mix-blend-mode:soft-light" d="M16.943 0.799988C16.943 0.799988 29.843 20.8 49.243 34.6C78.043 55 135.343 71.6 157.143 92.6C171.343 106.2 177.743 123.5 177.843 141.9C177.843 123.2 171.443 105.6 157.143 91.8C135.443 70.9 78.043 54.3 49.243 33.8C29.843 20 17.043 0 17.043 0C17.043 0 0.0429688 35.3 0.0429688 65.1C0.342969 35.5 16.943 0.899994 16.943 0.899994V0.799988Z" fill="url(#paint6_linear_1394_1164)"/>
<path d="M17.042 0C17.042 0 -11.558 59.2 5.34204 89C22.242 118.8 105.142 139.3 128.542 160.2C151.842 181.1 149.842 202.5 145.342 208.1C145.342 208.1 163.142 200.1 172.742 171.1C177.942 155.6 162.742 132.5 138.042 115.2C109.542 95.2 75.942 95.1 39.742 67.5C10.242 45.1 16.942 0 16.942 0H17.042Z" fill="url(#paint7_linear_1394_1164)"/>
<path opacity="0.2" d="M146.242 207.3C150.142 201 152.742 180.3 129.442 159.4C106.142 138.5 23.142 117.9 6.24205 88.1996C-8.75795 61.8996 11.942 12.4996 16.842 1.49962C16.842 0.599619 17.042 0.0996094 17.042 0.0996094C17.042 0.0996094 -11.558 59.2996 5.34204 89.0996C22.242 118.9 105.142 139.4 128.542 160.3C151.842 181.2 149.842 202.6 145.342 208.2C145.342 208.2 154.142 204.2 162.742 191.8C154.442 203.2 146.242 207.3 146.242 207.3Z" fill="black"/>
<path d="M1136.74 215.699H1142.84C1143.94 215.699 1145.14 215.899 1146.24 216.299C1147.54 217.099 1148.54 218.599 1148.34 220.099C1148.34 221.099 1148.34 221.999 1147.54 222.999C1146.54 224.099 1145.24 224.699 1143.74 224.699L1149.14 231.799H1144.94L1140.14 225.099V231.799H1136.74V215.699ZM1139.94 218.699V222.699H1142.04C1143.94 222.699 1144.94 221.899 1144.94 220.599C1144.94 219.299 1144.94 219.299 1144.14 218.899C1143.54 218.699 1142.84 218.499 1142.24 218.699H1139.94Z" fill="#0DA0F7"/>
<path d="M1156.24 223.1H1154.74C1154.74 230 1149.04 235.7 1142.14 235.7C1135.24 235.7 1129.54 230 1129.54 223.1C1129.54 216.2 1135.24 210.5 1142.14 210.5C1149.04 210.5 1148.64 211.8 1150.94 214.1C1153.24 216.4 1154.54 219.6 1154.54 223.1H1157.44C1157.44 214.5 1150.54 207.6 1141.94 207.6C1133.34 207.6 1126.44 214.5 1126.44 223.1C1126.44 231.7 1133.34 238.6 1141.94 238.6C1150.54 238.6 1157.44 231.7 1157.44 223.1H1156.34H1156.24Z" fill="#0DA0F7"/>
<defs>
<linearGradient id="paint0_linear_1394_1164" x1="7.74241" y1="174" x2="159.542" y2="174" gradientUnits="userSpaceOnUse">
<stop stop-color="#F8EC1D" stop-opacity="0.9"/>
<stop offset="1" stop-color="#279200" stop-opacity="0.9"/>
</linearGradient>
<linearGradient id="paint1_linear_1394_1164" x1="-107.656" y1="176.2" x2="152.644" y2="176.2" gradientUnits="userSpaceOnUse">
<stop stop-color="#F8EC1D" stop-opacity="0.9"/>
<stop offset="1" stop-color="#279200" stop-opacity="0.9"/>
</linearGradient>
<linearGradient id="paint2_linear_1394_1164" x1="6.54184" y1="216.2" x2="131.442" y2="216.2" gradientUnits="userSpaceOnUse">
<stop stop-color="#EFE354"/>
<stop offset="0.1" stop-color="#F0D24D"/>
<stop offset="0.4" stop-color="#F3A53D"/>
<stop offset="0.8" stop-color="#F75F23"/>
<stop offset="1" stop-color="#FA4018"/>
</linearGradient>
<linearGradient id="paint3_linear_1394_1164" x1="6.54184" y1="216.2" x2="118.642" y2="216.2" gradientUnits="userSpaceOnUse">
<stop stop-color="#EFE354"/>
<stop offset="0.3" stop-color="#F39F3B"/>
<stop offset="0.6" stop-color="#F76B28"/>
<stop offset="0.9" stop-color="#F94B1C"/>
<stop offset="1" stop-color="#FA4018"/>
</linearGradient>
<linearGradient id="paint4_linear_1394_1164" x1="5.74237" y1="216.2" x2="108.042" y2="216.2" gradientUnits="userSpaceOnUse">
<stop stop-color="#F1C147"/>
<stop offset="0.2" stop-color="#F39A39"/>
<stop offset="0.4" stop-color="#F6792D"/>
<stop offset="0.5" stop-color="#F76023"/>
<stop offset="0.7" stop-color="#F94E1D"/>
<stop offset="0.8" stop-color="#F94319"/>
<stop offset="1" stop-color="#FA4018"/>
</linearGradient>
<linearGradient id="paint5_linear_1394_1164" x1="0.0420437" y1="104.1" x2="177.942" y2="104.1" gradientUnits="userSpaceOnUse">
<stop stop-color="#0DA0F7" stop-opacity="0.9"/>
<stop offset="1" stop-color="#5ADCFA"/>
</linearGradient>
<linearGradient id="paint6_linear_1394_1164" x1="0.0429688" y1="71" x2="177.943" y2="71" gradientUnits="userSpaceOnUse">
<stop stop-color="white"/>
<stop offset="1" stop-color="white"/>
</linearGradient>
<linearGradient id="paint7_linear_1394_1164" x1="0.0420437" y1="104.1" x2="173.842" y2="104.1" gradientUnits="userSpaceOnUse">
<stop stop-color="#5ADCFA"/>
<stop offset="1" stop-color="#0DA0F7" stop-opacity="0.9"/>
</linearGradient>
</defs>
</svg>
