<?xml version="1.0" encoding="UTF-8"?>
<svg id="Layer_1" xmlns="http://www.w3.org/2000/svg" xmlns:xlink="http://www.w3.org/1999/xlink" version="1.1" viewBox="0 0 1062.68 275.6">
  <!-- Generator: Adobe Illustrator 29.8.2, SVG Export Plug-In . SVG Version: 2.1.1 Build 3)  -->
  <defs>
    <style>
      .st0 {
        fill: url(#linear-gradient);
      }

      .st1 {
        fill: #37b34a;
      }
    </style>
    <linearGradient id="linear-gradient" x1="0" y1="144.8" x2="1054.1" y2="144.8" gradientTransform="translate(0 282.6) scale(1 -1)" gradientUnits="userSpaceOnUse">
      <stop offset="0" stop-color="#470638"/>
      <stop offset="1" stop-color="#a34a82"/>
    </linearGradient>
  </defs>
  <g>
    <path class="st1" d="M772.1,20.8s23.9-3.4,48.1,25.7c-7.6-44.9-43.8-39.8-55.7-40.1-11-.3-19.1-5.4-19.1-5.4,2,13.5,7.8,29.1,18.3,38.2,15.7,13.6,39,12.8,51,9.5-8.4-11.2-22.6-25.3-42.6-27.9h0Z"/>
    <path class="st1" d="M848.4,37.1s-7.3,9.8-26.4,8c18.7,13.3,29.9-1.4,34.2-5.6,4-3.8,8.7-4.9,8.7-4.9-5.5-4.1-13.2-7.6-20.2-7.1-10.5.8-18.5,9.4-21.6,14.8,7,1,17.1,1,25.2-5.3l.1.1Z"/>
  </g>
  <path class="st0" d="M165.7.5h42.1v212.1h-42.1V.5h0ZM621.8,212v-79.5c0-21.4-6.2-38.1-18.6-50.4-12.4-12.2-28.2-18.3-47.4-18.3-10.8,0-20.2,1.9-28.4,5.8-8.1,3.8-15,9.6-20.6,17.3l-.6.8-.6-.8c-5.6-7.7-12.4-13.4-20.6-17.3-8.1-3.8-17.6-5.8-28.4-5.8-19.3,0-35,6.1-47.4,18.3-12.4,12.2-18.6,28.9-18.6,50.4v79.5h42.3v-79.5c0-9.1,2.4-16.3,7.2-21.4s11.1-7.7,18.9-7.7,14.1,2.6,18.9,7.7c4.8,5.1,7.2,12.3,7.2,21.4v79.5h42.3v-79.5c0-9.1,2.4-16.3,7.2-21.4s11.1-7.7,18.9-7.7,14.1,2.6,18.9,7.7c4.8,5.1,7.2,12.3,7.2,21.4v79.5h42.3-.1ZM144.3,108.3c-5.7-13.5-15.2-24.9-27.2-33-6-4-12.6-7.3-19.7-9.5-7.1-2.2-14.6-3.4-22.3-3.4-10.3,0-20.2,2.1-29.2,5.9-13.5,5.7-24.9,15.2-33,27.2-4,6-7.3,12.6-9.5,19.7s-3.4,14.6-3.4,22.3v1.2h0v136.9h41.9v-70.7c3.5,1.7,7.1,3.2,10.8,4.3,7.1,2.2,14.6,3.4,22.3,3.4,10.3,0,20.2-2.1,29.2-5.9,13.5-5.7,24.9-15.2,33-27.2,4-6,7.3-12.6,9.5-19.7s3.4-14.6,3.4-22.3c0-10.3-2.1-20.2-5.9-29.2h.1ZM105.7,150.4c-2.5,5.9-6.7,11-12,14.6-2.6,1.8-5.5,3.2-8.6,4.2s-6.4,1.5-9.9,1.5c-4.6,0-8.9-.9-12.9-2.6-5.9-2.5-11-6.7-14.6-12-1.8-2.6-3.2-5.5-4.2-8.6s-1.5-6.4-1.5-9.9c0-4.6.9-8.9,2.6-12.9,2.5-5.9,6.7-11,12-14.6,2.6-1.8,5.5-3.2,8.6-4.2s6.4-1.5,9.9-1.5c4.6,0,8.9.9,12.9,2.6,5.9,2.5,11,6.7,14.6,12,1.8,2.6,3.2,5.5,4.2,8.6s1.5,6.4,1.5,9.9c0,4.6-.9,8.9-2.6,12.9ZM1050.6,116.8c-2.2-7.1-5.4-13.7-9.5-19.7-8.1-12-19.5-21.5-33-27.2-9-3.8-18.9-5.9-29.2-5.9-7.7,0-15.2,1.2-22.3,3.4-3.7,1.2-7.3,2.6-10.8,4.3V0h-41.9v137.9h0v1.2c0,7.7,1.2,15.2,3.4,22.3,2.2,7.1,5.4,13.7,9.5,19.7,8.1,12,19.5,21.5,33,27.2,9,3.8,18.9,5.9,29.2,5.9,7.7,0,15.2-1.2,22.3-3.4,7.1-2.2,13.7-5.4,19.7-9.5,12-8.1,21.5-19.5,27.2-33,3.8-9,5.9-18.9,5.9-29.2,0-7.7-1.2-15.2-3.4-22.3h-.1ZM1010.6,149c-1,3.1-2.4,6-4.2,8.6-3.6,5.3-8.7,9.5-14.6,12-3.9,1.7-8.2,2.6-12.9,2.6-3.5,0-6.8-.5-9.9-1.5s-6-2.4-8.6-4.2c-5.3-3.6-9.5-8.7-12-14.6-1.7-3.9-2.6-8.2-2.6-12.9,0-3.5.5-6.8,1.5-9.8,1-3.1,2.4-6,4.2-8.6,3.6-5.3,8.7-9.5,14.6-12,3.9-1.7,8.2-2.6,12.9-2.6,3.5,0,6.8.5,9.9,1.5s6,2.4,8.6,4.2c5.3,3.6,9.5,8.7,12,14.6,1.7,3.9,2.6,8.2,2.6,12.9,0,3.5-.5,6.8-1.5,9.9v-.1ZM682.1.4v125.8c0,6.1-1.2,11.7-3.4,16.9-3.3,7.8-8.8,14.4-15.8,19.1-3.5,2.3-7.3,4.2-11.3,5.5-4.1,1.3-8.4,1.9-12.9,1.9v42.3c11.8,0,23.1-2.4,33.4-6.7,15.4-6.5,28.5-17.4,37.7-31,4.6-6.8,8.3-14.4,10.8-22.5s3.9-16.7,3.9-25.5V.4h-42.4ZM888.5,138.2h0c0-10.3-2.1-20.1-5.9-29.1-5.7-13.5-15.2-24.9-27.2-33-6-4-12.6-7.3-19.7-9.5-7.1-2.2-14.6-3.4-22.3-3.4-10.3,0-20.2,2.1-29.2,5.9-13.5,5.7-24.9,15.2-33,27.2-4,6-7.3,12.6-9.5,19.7-2.2,7-3.4,14.5-3.4,22.2h0c0,7.7,1.2,15.2,3.4,22.2,2.2,7.1,5.4,13.7,9.5,19.7,8.1,12,19.5,21.5,33,27.2,9,3.8,18.9,5.9,29.2,5.9,7.7,0,15.2-1.2,22.3-3.4,7.1-2.2,13.7-5.4,19.7-9.5,12-8.1,21.5-19.5,27.2-33,3.8-9,5.9-18.8,5.9-29.1h0ZM845,147.9c-1,3.1-2.4,6-4.2,8.6-3.6,5.3-8.7,9.5-14.6,12-3.9,1.7-8.2,2.6-12.9,2.6-3.5,0-6.8-.5-9.8-1.5-3.1-1-6-2.4-8.6-4.2-5.3-3.6-9.5-8.7-12-14.6-1.7-3.9-2.6-8.2-2.6-12.8s.9-8.9,2.6-12.8c2.5-5.9,6.7-11,12-14.6,2.6-1.8,5.5-3.2,8.6-4.2s6.4-1.5,9.9-1.5c4.6,0,8.9.9,12.9,2.6,5.9,2.5,11,6.7,14.6,12,1.8,2.6,3.2,5.5,4.2,8.6s1.5,6.3,1.5,9.8-.5,6.7-1.5,9.8l-.1.2ZM333.9,62.5v75c0,4.7-.9,9.1-2.6,13.1-2.5,6-6.9,11.2-12.2,14.9-2.7,1.8-5.7,3.3-8.8,4.2-3.2,1-6.5,1.5-10,1.5-4.7,0-9.1-.9-13.1-2.6-6-2.5-11.2-6.9-14.9-12.2-1.8-2.7-3.3-5.7-4.2-8.8-1-3.2-1.5-6.5-1.5-10V62.6h-42.8v75c0,10.5,2.1,20.6,6,29.8,5.8,13.8,15.5,25.4,27.7,33.6,6.1,4.1,12.8,7.4,20,9.6s14.9,3.4,22.7,3.4c10.5,0,20.6-2.1,29.8-6,13.8-5.8,25.4-15.5,33.6-27.7,4.1-6.1,7.4-12.8,9.6-20,2.2-7.2,3.4-14.9,3.4-22.7V62.6h-42.8l.1-.1Z"/>
</svg>