<svg width="1080" height="149" viewBox="0 0 1080 149" fill="none" xmlns="http://www.w3.org/2000/svg">
<g clip-path="url(#clip0_1604_1163)">
<path d="M0 86.7L87.6 0H0V86.7Z" fill="#FF6400"/>
<path d="M88.1016 0L175.202 86.7V0H88.1016Z" fill="#FF6400"/>
<path d="M26.2969 148.301L149.197 148.101L87.8969 86.8008L26.2969 148.301Z" fill="#047EC0"/>
<path d="M566.298 112.102H521.398L492.398 86.8016C482.498 78.2016 477.898 74.0016 474.598 70.7016C474.698 75.2016 474.998 79.9016 474.998 84.5016V112.102H445.098V16.1016H474.998V38.4016C474.998 44.3016 474.698 50.2016 474.398 55.2016C478.098 51.8016 483.298 46.9016 492.098 39.6016L519.798 16.2016H562.898L526.098 43.8016C513.298 53.4016 507.398 57.7016 501.298 61.5016C506.798 65.2016 514.198 70.5016 526.598 80.6016L566.398 112.302L566.298 112.102Z" fill="white"/>
<path d="M671.7 87.4L652.6 112.1H604.4C571.1 112.1 546.5 91 546.5 63.1C546.5 35.2 571 16 604.4 16H671.7L652.6 41H604.4C588.3 41 576.3 50.6 576.3 64.4C576.3 78.2 588.2 87.4 604.4 87.4H671.7Z" fill="white"/>
<path d="M949.498 112.1H909.698L888.298 86.7H842.598V112.1H812.898V63H896.498C905.698 63 912.898 58.8 912.898 52.2C912.898 45.6 906.698 41 896.498 41H812.898L832.298 16H893.998C915.798 16 943.398 22.9 943.398 50.3C943.398 77.7 934.098 77.6 918.298 80.7C921.598 83.1 925.198 86.6 931.798 93.3L949.498 112V112.1Z" fill="white"/>
<path d="M1032.4 87.6H982.199V112.1H952.599V63H1035.3C1044.5 63 1049.8 58.5 1049.8 51.9C1049.8 45.3 1044.5 41 1035.3 41H952.599C952.099 32.6 942.599 19.1 932.699 16H1032.5C1062.2 16 1079.6 30.6 1079.6 52C1079.6 73.4 1062.2 87.5 1032.4 87.5V87.6Z" fill="white"/>
<path d="M219 16.1016V41.0016H263.1V112.102H292.8V41.0016H337.7L356.9 16.1016H219Z" fill="white"/>
<path d="M360.4 74.4H419.4L436.5 52.5H367H330.5V74.4H360.4Z" fill="white"/>
<path d="M360.4 41.0016H422.6L441.8 16.1016H330.5V41.1016H360.4V41.0016Z" fill="white"/>
<path d="M367 87.4023H330.5V112.102H423L442.1 87.4023H367Z" fill="white"/>
<path d="M806.699 64.1016C806.699 97.3016 783.899 112.202 738.699 112.202C693.499 112.202 670.699 97.3016 670.699 64.1016C670.699 30.9016 693.399 16.1016 738.699 16.1016C783.999 16.1016 806.699 30.8016 806.699 64.1016ZM777.999 64.1016C777.999 44.1016 767.599 40.3016 738.599 40.3016C709.599 40.3016 699.199 44.1016 699.199 64.1016C699.199 84.1016 709.599 88.0016 738.599 88.0016C767.599 88.0016 777.999 84.1016 777.999 64.1016Z" fill="white"/>
<path d="M1066.4 99.5H1069.8C1070.7 99.5 1071.3 99.5 1071.7 99.8C1072.5 100.2 1072.8 100.9 1072.8 101.9C1072.8 102.9 1072.6 103 1072.3 103.5C1071.9 104 1071.2 104.4 1070.2 104.5L1073.1 108.4H1070.8L1068.2 104.7V108.4H1066.3V99.6L1066.4 99.5ZM1068.2 101.2V103.4H1069.4C1070.4 103.4 1070.9 103 1070.9 102.2C1070.9 101.4 1070.8 101.5 1070.5 101.3C1070.3 101.2 1070 101.1 1069.4 101.1H1068.2V101.2Z" fill="white"/>
<path d="M1077.2 103.701H1076.4C1076.4 105.601 1075.6 107.401 1074.4 108.601C1073.1 109.901 1071.4 110.601 1069.5 110.601C1067.6 110.601 1065.8 109.801 1064.6 108.601C1063.3 107.301 1062.6 105.601 1062.6 103.701C1062.6 101.801 1063.4 100.001 1064.6 98.8012C1065.9 97.5012 1067.6 96.8012 1069.5 96.8012C1071.4 96.8012 1073.2 97.6012 1074.4 98.8012C1075.7 100.101 1076.4 101.801 1076.4 103.701H1078C1078 98.4012 1073.1 94.2012 1067.6 95.3012C1062.1 96.4012 1061.7 98.6012 1061.1 101.801C1059.9 107.301 1064.1 112.201 1069.5 112.201C1074.2 112.201 1078.1 108.401 1078.1 103.601H1077.3L1077.2 103.701Z" fill="white"/>
</g>
<defs>
<clipPath id="clip0_1604_1163">
<rect width="1080" height="149" fill="white"/>
</clipPath>
</defs>
</svg>
