<?xml version="1.0" encoding="UTF-8"?>
<svg id="Layer_1" xmlns="http://www.w3.org/2000/svg" xmlns:xlink="http://www.w3.org/1999/xlink" version="1.1" viewBox="0 0 1366 305.12">
  <!-- Generator: Adobe Illustrator 29.8.2, SVG Export Plug-In . SVG Version: 2.1.1 Build 3)  -->
  <defs>
    <linearGradient id="linear-gradient" x1="37.7" y1="104.59" x2="1043.1" y2="104.59" gradientTransform="translate(0 281.03) scale(1 -1)" gradientUnits="userSpaceOnUse">
      <stop offset="0" stop-color="#470638"/>
      <stop offset="1" stop-color="#a34a82"/>
    </linearGradient>
    <linearGradient id="linear-gradient1" x1="286.1" y1="115.07" x2="1312.2" y2="115.07" gradientTransform="translate(0 281.03) scale(1 -1)" gradientUnits="userSpaceOnUse">
      <stop offset="0" stop-color="#470638"/>
      <stop offset="1" stop-color="#a34a82"/>
    </linearGradient>
    <linearGradient id="linear-gradient2" x1="934.3" y1="231.82" x2="977.1" y2="231.82" gradientTransform="translate(0 281.03) scale(1 -1)" gradientUnits="userSpaceOnUse">
      <stop offset="0" stop-color="#a34a82"/>
      <stop offset="1" stop-color="#a34a82"/>
    </linearGradient>
  </defs>
  <path d="M103.7,26.42s23.9-3.4,48.1,25.7c-7.6-44.9-43.8-39.8-55.7-40.1-11-.3-19.1-5.4-19.1-5.4,2,13.5,7.8,29.1,18.3,38.2,15.7,13.6,39,12.8,51,9.5-8.4-11.2-22.6-25.3-42.6-27.9Z" style="fill: #37b34a;"/>
  <path d="M180.1,42.72s-7.3,9.8-26.4,8c18.7,13.3,29.9-1.4,34.2-5.6,4-3.8,8.7-4.9,8.7-4.9-5.5-4.1-13.2-7.6-20.2-7.1-10.5.8-18.5,9.4-21.6,14.8,7,1,17.1,1,25.2-5.3l.1.1Z" style="fill: #37b34a;"/>
  <path d="M265.8,123.42c-6.3-50.6-64.6-73.2-115.1-46.7,0,0-72.8-38.8-107,25.3-34.2,64.1,14,129.1,25.5,141.4,11.6,12.3,28.4,29.6,67,42.2,38.5,12.5,85.8-32,99.5-50.6,13.7-18.5,36.4-60.9,30.1-111.5v-.1ZM74.1,175.22s-15.3-55.4,9.5-81.6c24.7-26.2,56.7-10.1,56.7-10.1-45.9,20.4-66.2,91.7-66.2,91.7h0ZM248.2,204.92c-9.3,33.2-26.5,45.1-34.4,47.7-7.9,2.6-26.3,4-20.4-23.3,5.9-27.3,29.7-39.3,39.8-27,10.1,12.4,1.3,30,1.3,30,0,0,17.7-24.3,1.3-47.4-16.4-23.1-51.2-7.7-63.6,15.4-12.4,23.1-10.1,44.2,6.7,59.6,0,0-32.8-11.1-18.3-57.7,14.5-46.6,50.7-58.1,64.4-53.8s32.4,23.1,23.1,56.4l.1.1ZM256.2,195.62s6.9-64.7-37.4-74c-44.3-9.3-68.4,21.7-68.4,21.7,0,0-26,22.2-30.5,65.8-4.5,43.7,36.4,63.7,36.4,63.7,0,0-39.1-3.8-43.8-49.1-4.7-45.3,20.6-81.9,37.4-98.3,16.9-16.4,47.1-46.4,86.2-23,39.2,23.4,20.1,93.1,20.1,93.1v.1Z" style="fill: url(#linear-gradient);"/>
  <path d="M453.8,26.82h42.1v206.7h-42.1V26.82ZM908.9,232.82v-79.5c0-21.4-6.2-38.1-18.6-50.4-12.4-12.2-28.2-18.3-47.4-18.3-10.8,0-20.2,1.9-28.4,5.8-8.1,3.8-15,9.6-20.6,17.3l-.6.8-.6-.8c-5.6-7.7-12.4-13.4-20.6-17.3-8.1-3.8-17.6-5.8-28.4-5.8-19.3,0-35,6.1-47.4,18.3s-18.6,28.9-18.6,50.4v79.5h42.3v-79.5c0-9.1,2.4-16.3,7.2-21.4,4.8-5.1,11.1-7.7,18.9-7.7s14.1,2.6,18.9,7.7c4.8,5.1,7.2,12.3,7.2,21.4v79.5h42.3v-79.5c0-9.1,2.4-16.3,7.2-21.4,4.8-5.1,11.1-7.7,18.9-7.7s14.1,2.6,18.9,7.7c4.8,5.1,7.2,12.3,7.2,21.4v79.5h42.3-.1ZM430.4,129.02c-5.7-13.5-15.2-24.9-27.2-33-6-4-12.6-7.3-19.7-9.5s-14.6-3.4-22.3-3.4c-10.3,0-20.2,2.1-29.2,5.9-13.5,5.7-24.9,15.2-33,27.2-4,6-7.3,12.6-9.5,19.7-2.2,7.1-3.4,14.6-3.4,22.3v1.2h0v136.9h41.9v-70.7c3.5,1.7,7.1,3.2,10.8,4.3,7.1,2.2,14.6,3.4,22.3,3.4,10.3,0,20.2-2.1,29.2-5.9,13.5-5.7,24.9-15.2,33-27.2,4-6,7.3-12.6,9.5-19.7,2.2-7.1,3.4-14.6,3.4-22.3,0-10.3-2.1-20.2-5.9-29.2h.1ZM391.8,171.12c-2.5,5.9-6.7,11-12,14.6-2.6,1.8-5.5,3.2-8.6,4.2s-6.4,1.5-9.9,1.5c-4.6,0-8.9-.9-12.9-2.6-5.9-2.5-11-6.7-14.6-12-1.8-2.6-3.2-5.5-4.2-8.6s-1.5-6.4-1.5-9.9c0-4.6.9-8.9,2.6-12.9,2.5-5.9,6.7-11,12-14.6,2.6-1.8,5.5-3.2,8.6-4.2s6.4-1.5,9.9-1.5c4.6,0,8.9.9,12.9,2.6,5.9,2.5,11,6.7,14.6,12,1.8,2.6,3.2,5.5,4.2,8.6s1.5,6.4,1.5,9.9c0,4.6-.9,8.9-2.6,12.9ZM1312.1,221.22c0-7.7-1.2-15.2-3.4-22.3-2.2-7.1-5.4-13.7-9.5-19.7-8.1-12-19.5-21.5-33-27.2-9-3.8-18.9-5.9-29.2-5.9-7.7,0-15.2,1.2-22.3,3.4-3.7,1.2-7.3,2.6-10.8,4.3v-70.7h-41.9v136.9h0v1.2c0,7.7,1.2,15.2,3.4,22.3,2.2,7.1,5.4,13.7,9.5,19.7,8.1,12,19.5,21.5,33,27.2,9,3.8,18.9,5.9,29.2,5.9,7.7,0,15.2-1.2,22.3-3.4,7.1-2.2,13.7-5.4,19.7-9.5,12-8.1,21.5-19.5,27.2-33,3.8-9,5.9-18.9,5.9-29.2h-.1ZM1270.2,221.22c0,3.5-.5,6.8-1.5,9.9-1,3.1-2.4,6-4.2,8.6-3.6,5.3-8.7,9.5-14.6,12-3.9,1.7-8.2,2.6-12.9,2.6-3.5,0-6.8-.5-9.9-1.5s-6-2.4-8.6-4.2c-5.3-3.6-9.5-8.7-12-14.6-1.7-3.9-2.6-8.2-2.6-12.9,0-3.5.5-6.8,1.5-9.9,1-3.1,2.4-6,4.2-8.6,3.6-5.3,8.7-9.5,14.6-12,3.9-1.7,8.2-2.6,12.9-2.6,3.5,0,6.8.5,9.9,1.5s6,2.4,8.6,4.2c5.3,3.6,9.5,8.7,12,14.6,1.7,3.9,2.6,8.2,2.6,12.9ZM616.2,171.12c-2.5,5.9-6.7,11-12,14.6-2.6,1.8-5.5,3.2-8.6,4.2s-6.4,1.5-9.9,1.5c-4.6,0-8.9-.9-12.9-2.6-5.9-2.5-11-6.7-14.6-12-1.8-2.6-3.2-5.5-4.2-8.6s-1.5-6.4-1.5-9.8h-41.9c0,10.3,2.1,20.2,5.9,29.2,5.7,13.5,15.2,24.9,27.2,33,6,4,12.6,7.3,19.7,9.5,7.1,2.2,14.6,3.4,22.3,3.4,10.3,0,20.2-2.1,29.2-5.9,13.5-5.7,24.9-15.2,33-27.2,4-6,7.3-12.6,9.5-19.7,2.2-7.1,3.4-14.6,3.4-22.3h-41.9c0,4.6-.9,8.9-2.6,12.9l-.1-.2ZM934.8,84.62v134.8c0,6.1-1.2,11.7-3.4,16.9-3.3,7.8-8.8,14.4-15.8,19.1-3.5,2.3-7.3,4.2-11.3,5.5-4.1,1.3-8.4,1.9-12.9,1.9v42.3c11.8,0,23.1-2.4,33.4-6.7,15.4-6.5,28.5-17.4,37.7-31,4.6-6.8,8.3-14.4,10.8-22.5s3.9-16.7,3.9-25.5V84.62h-42.4ZM1039,146.22c2.5-5.9,6.7-11,12-14.6,2.6-1.8,5.5-3.2,8.6-4.2s6.4-1.5,9.9-1.5c4.6,0,8.9.9,12.9,2.6,5.9,2.5,11,6.7,14.6,12,1.8,2.6,3.2,5.5,4.2,8.6s1.5,6.4,1.5,9.8h41.9c0-10.3-2.1-20.2-5.9-29.2-5.7-13.5-15.2-24.9-27.2-33-6-4-12.6-7.3-19.7-9.5s-14.6-3.4-22.3-3.4c-10.3,0-20.2,2.1-29.2,5.9-13.5,5.7-24.9,15.2-33,27.2-4,6-7.3,12.6-9.5,19.7-2.2,7.1-3.4,14.6-3.4,22.3h41.9c0-4.6.9-8.9,2.6-12.9l.1.2Z" style="fill: url(#linear-gradient1);"/>
  <circle cx="955.7" cy="49.22" r="21.4" style="fill: url(#linear-gradient2);"/>
</svg>