<?xml version="1.0" encoding="utf-8"?>
<!-- Generator: Adobe Illustrator 28.0.0, SVG Export Plug-In . SVG Version: 6.00 Build 0)  -->
<svg version="1.1" xmlns="http://www.w3.org/2000/svg" xmlns:xlink="http://www.w3.org/1999/xlink" x="0px" y="0px" width="2500px"
	 height="2599.219px" viewBox="0 0 2500 2599.219" style="enable-background:new 0 0 2500 2599.219;" xml:space="preserve">
<style type="text/css">
	.st0{fill:#5500E6;}
	.st1{fill:#8600D7;}
	.st2{fill:#4ADA85;}
	.st3{fill:#FDA4FF;}
	.st4{fill:#FFFFFF;}
	.st5{fill:#FED101;}
	.st6{fill:#8C7BFF;}
	.st7{fill:#955B50;}
	.st8{fill:#020202;}
</style>
<g id="Background">
</g>
<g id="Illustration">
	<g>
		<path class="st0" d="M1115.568,1829.75l-7.27-43.637l-27.096,4.549c-4.012-9.588-9.498-18.299-16.132-25.903l15.961-22.457
			l-35.88-25.696l-15.962,22.457c-9.322-3.823-19.313-6.196-29.65-6.884l-4.532-27.199l-43.472,7.298l4.532,27.199
			c-9.552,4.027-18.23,9.533-25.806,16.193l-22.372-16.022l-25.599,36.016l22.372,16.022c-3.809,9.358-6.172,19.386-6.858,29.763
			l-27.096,4.549l7.27,43.637l27.096-4.549c4.012,9.588,9.498,18.299,16.132,25.903l-15.961,22.457l35.881,25.696l15.961-22.457
			c9.322,3.823,19.313,6.196,29.65,6.884l4.532,27.199l43.472-7.298l-4.531-27.199c9.552-4.027,18.23-9.533,25.806-16.193
			l22.372,16.022l25.598-36.016l-22.372-16.022c3.809-9.358,6.172-19.386,6.858-29.763L1115.568,1829.75z M1002.306,1882.9
			c-30.275,5.082-58.922-15.433-63.986-45.823c-5.063-30.39,15.375-59.146,45.65-64.228c30.275-5.082,58.922,15.433,63.985,45.823
			C1053.019,1849.061,1032.581,1877.817,1002.306,1882.9z"/>
		<path class="st0" d="M1501.547,2270.77c-0.653,0-1.294-0.203-1.833-0.585c-0.681-0.487-1.14-1.226-1.278-2.052l-9.528-57.181
			c-20.985-1.648-41.541-6.42-61.17-14.201l-33.55,47.203c-0.487,0.684-1.226,1.146-2.052,1.285
			c-0.822,0.139-1.676-0.055-2.357-0.545l-78.664-56.334c-1.414-1.013-1.74-2.976-0.736-4.393l33.559-47.218
			c-13.724-16.105-24.909-34.064-33.291-53.456l-56.954,9.562c-0.827,0.129-1.674-0.058-2.354-0.542
			c-0.682-0.487-1.143-1.226-1.28-2.052l-15.938-95.669c-0.287-1.716,0.872-3.339,2.589-3.629l56.957-9.562
			c1.642-21.071,6.398-41.71,14.155-61.426l-47.036-33.686c-1.414-1.013-1.742-2.976-0.735-4.393l56.122-78.96
			c0.487-0.684,1.226-1.146,2.052-1.285c0.829-0.126,1.676,0.059,2.357,0.545l47.024,33.676
			c16.043-13.773,33.932-24.999,53.244-33.411l-9.528-57.187c-0.286-1.716,0.872-3.339,2.588-3.629l95.308-16
			c0.838-0.136,1.676,0.058,2.357,0.542c0.681,0.487,1.14,1.226,1.278,2.052l9.528,57.181c20.985,1.648,41.541,6.42,61.17,14.201
			l33.55-47.203c0.487-0.684,1.226-1.146,2.052-1.285c0.826-0.132,1.676,0.058,2.356,0.545l78.664,56.334
			c1.414,1.013,1.74,2.976,0.736,4.393l-33.562,47.218c13.727,16.108,24.915,34.071,33.294,53.456l56.953-9.562
			c0.838-0.139,1.676,0.059,2.357,0.542c0.681,0.487,1.14,1.226,1.278,2.052l15.939,95.669c0.287,1.716-0.872,3.339-2.588,3.629
			l-56.959,9.562c-1.642,21.074-6.398,41.71-14.158,61.426l47.036,33.685c1.414,1.014,1.741,2.976,0.736,4.393l-56.121,78.96
			c-0.487,0.684-1.226,1.146-2.052,1.284c-0.825,0.133-1.676-0.058-2.357-0.545l-47.024-33.676
			c-16.04,13.773-33.932,24.999-53.247,33.411l9.531,57.187c0.286,1.716-0.872,3.339-2.588,3.629l-95.308,16
			C1501.895,2270.755,1501.719,2270.77,1501.547,2270.77z M1426.607,2189.74c0.404,0,0.807,0.077,1.198,0.237
			c20.473,8.394,42.012,13.394,64.016,14.86c1.46,0.099,2.662,1.186,2.902,2.631l9.417,56.512l89.086-14.956l-9.42-56.521
			c-0.24-1.439,0.539-2.856,1.885-3.426c20.335-8.573,39.083-20.335,55.721-34.961c1.097-0.97,2.723-1.051,3.919-0.197
			l46.476,33.282l52.464-73.819l-46.491-33.294c-1.186-0.85-1.636-2.403-1.084-3.755c8.367-20.556,13.348-42.179,14.808-64.272
			c0.099-1.457,1.183-2.658,2.625-2.902l56.3-9.451l-14.904-89.443l-56.287,9.448c-1.46,0.228-2.868-0.542-3.435-1.895
			c-8.539-20.405-20.257-39.224-34.838-55.933c-0.958-1.1-1.038-2.711-0.194-3.9l33.174-46.673l-73.535-52.659l-33.156,46.651
			c-0.853,1.198-2.412,1.654-3.771,1.091c-20.473-8.395-42.012-13.394-64.016-14.86c-1.46-0.099-2.661-1.186-2.902-2.631
			l-9.417-56.512l-89.086,14.956l9.417,56.521c0.24,1.439-0.539,2.856-1.885,3.426c-20.332,8.57-39.076,20.332-55.717,34.961
			c-1.103,0.964-2.726,1.047-3.919,0.197l-46.476-33.282l-52.468,73.819l46.491,33.294c1.186,0.85,1.636,2.403,1.084,3.755
			c-8.364,20.559-13.345,42.182-14.805,64.272c-0.099,1.457-1.183,2.658-2.625,2.902l-56.3,9.451l14.902,89.443l56.289-9.448
			c1.454-0.231,2.868,0.542,3.435,1.895c8.539,20.412,20.261,39.23,34.834,55.933c0.958,1.1,1.038,2.711,0.194,3.9l-33.171,46.673
			l73.535,52.658l33.156-46.651C1424.641,2190.214,1425.609,2189.74,1426.607,2189.74z M1505.385,2123.681
			c-25.732,0-50.776-7.972-72.164-23.23c-27.284-19.466-45.349-48.435-50.869-81.572c-11.37-68.23,34.687-133.026,102.668-144.44
			c32.863-5.523,65.899,2.116,93.05,21.484c27.281,19.466,45.345,48.435,50.866,81.572c11.37,68.23-34.69,133.026-102.671,144.439
			l-0.524-3.111l0.524,3.111C1519.294,2123.105,1512.313,2123.681,1505.385,2123.681z M1505.89,1879.001
			c-6.58,0-13.206,0.548-19.823,1.66c-64.556,10.837-108.29,72.377-97.493,137.182c5.243,31.471,22.402,58.986,48.312,77.472
			c25.775,18.387,57.159,25.648,88.331,20.396c64.558-10.837,108.293-72.377,97.495-137.182
			c-5.243-31.471-22.399-58.986-48.309-77.472C1554.1,1886.573,1530.316,1879.001,1505.89,1879.001z"/>
		<g>
			<g>
				<path class="st1" d="M543.612,411.504c-0.653,0-1.294-0.203-1.831-0.585c-0.682-0.487-1.143-1.226-1.28-2.052l-5.403-32.422
					c-11.709-1.02-23.178-3.681-34.165-7.935l-19.025,26.767c-0.485,0.684-1.223,1.146-2.05,1.285
					c-0.829,0.142-1.674-0.056-2.357-0.545l-45.992-32.937c-1.414-1.014-1.742-2.976-0.735-4.393l19.033-26.782
					c-7.592-9.054-13.836-19.078-18.6-29.86l-32.292,5.422c-0.829,0.129-1.673-0.059-2.354-0.542
					c-0.682-0.487-1.143-1.226-1.28-2.052l-9.319-55.936c-0.286-1.716,0.872-3.339,2.589-3.629l32.296-5.422
					c1.012-11.755,3.667-23.276,7.909-34.317l-26.674-19.102c-1.414-1.013-1.742-2.976-0.735-4.393l32.814-46.165
					c0.485-0.684,1.223-1.146,2.05-1.285c0.84-0.132,1.677,0.059,2.357,0.545l26.66,19.093c9.017-7.615,18.999-13.878,29.741-18.662
					l-5.403-32.432c-0.287-1.716,0.872-3.339,2.589-3.629l55.724-9.356c0.83-0.129,1.673,0.059,2.354,0.542
					c0.682,0.487,1.143,1.226,1.28,2.052l5.402,32.426c11.708,1.017,23.178,3.678,34.168,7.932l19.024-26.764
					c0.485-0.684,1.223-1.146,2.05-1.285c0.836-0.12,1.676,0.062,2.357,0.545l45.992,32.937c1.414,1.013,1.742,2.976,0.735,4.393
					l-19.033,26.779c7.587,9.051,13.833,19.078,18.6,29.863l32.29-5.422c0.827-0.129,1.674,0.059,2.354,0.542
					c0.682,0.487,1.143,1.226,1.28,2.052l9.32,55.933c0.287,1.716-0.872,3.339-2.589,3.629l-32.296,5.422
					c-1.012,11.758-3.666,23.279-7.909,34.317l26.674,19.102c1.414,1.013,1.742,2.976,0.735,4.393l-32.814,46.168
					c-0.485,0.684-1.223,1.146-2.05,1.285c-0.833,0.139-1.676-0.059-2.357-0.545l-26.66-19.096
					c-9.015,7.612-19.001,13.878-29.742,18.662l5.405,32.435c0.287,1.716-0.872,3.339-2.589,3.629l-55.724,9.353
					C543.96,411.488,543.786,411.504,543.612,411.504z M499.799,361.507c0.401,0,0.807,0.077,1.195,0.237
					c11.835,4.855,24.29,7.747,37.017,8.595c1.46,0.099,2.662,1.186,2.902,2.631l5.291,31.745l49.502-8.308l-5.292-31.757
					c-0.24-1.439,0.541-2.856,1.885-3.426c11.758-4.957,22.599-11.758,32.222-20.217c1.106-0.967,2.732-1.047,3.918-0.197
					l26.103,18.696l29.159-41.026l-26.121-18.705c-1.188-0.85-1.636-2.403-1.086-3.755c4.84-11.888,7.721-24.391,8.564-37.167
					c0.097-1.46,1.185-2.662,2.626-2.905l31.626-5.311l-8.284-49.707l-31.617,5.308c-1.445,0.243-2.867-0.542-3.432-1.894
					c-4.94-11.805-11.718-22.688-20.145-32.349c-0.96-1.1-1.04-2.711-0.194-3.9l18.637-26.224l-40.862-29.262l-18.626,26.203
					c-0.847,1.195-2.412,1.648-3.767,1.09c-11.84-4.855-24.296-7.747-37.02-8.592c-1.46-0.099-2.662-1.186-2.902-2.631L545.81,96.93
					l-49.503,8.311l5.291,31.754c0.24,1.439-0.541,2.856-1.885,3.426c-11.757,4.957-22.597,11.758-32.221,20.217
					c-1.1,0.97-2.725,1.051-3.918,0.197l-26.103-18.693l-29.159,41.023l26.121,18.705c1.188,0.85,1.636,2.403,1.086,3.755
					c-4.839,11.891-7.721,24.395-8.564,37.166c-0.097,1.46-1.184,2.662-2.626,2.905l-31.626,5.311l8.282,49.71l31.618-5.308
					c1.46-0.222,2.868,0.542,3.432,1.894c4.937,11.798,11.714,22.682,20.145,32.346c0.96,1.1,1.04,2.711,0.194,3.9l-18.639,26.228
					l40.863,29.262l18.628-26.206C497.832,361.981,498.801,361.507,499.799,361.507z M545.851,325.508
					c-15.313,0-30.218-4.744-42.947-13.825c-16.237-11.586-26.99-28.825-30.275-48.546c-6.766-40.604,20.644-79.166,61.104-85.959
					c19.557-3.281,39.223,1.26,55.377,12.784c16.237,11.586,26.99,28.824,30.275,48.546c6.765,40.604-20.647,79.166-61.105,85.959
					C554.132,325.163,549.975,325.508,545.851,325.508z M546.147,182.448c-3.774,0-7.573,0.314-11.37,0.952
					c-37.033,6.217-62.12,41.522-55.925,78.701c3.008,18.055,12.852,33.84,27.717,44.443c14.783,10.551,32.772,14.71,50.667,11.7
					c37.031-6.217,62.12-41.522,55.927-78.701c-3.008-18.055-12.852-33.84-27.717-44.443
					C573.799,186.789,560.159,182.448,546.147,182.448z"/>
			</g>
		</g>
		<path class="st2" d="M1182.26,2165.288l-11.231-67.408l-41.856,7.027c-6.197-14.811-14.671-28.267-24.92-40.013l24.656-34.691
			l-55.426-39.693l-24.656,34.69c-14.4-5.906-29.834-9.571-45.802-10.633l-7-42.015l-67.154,11.273l7,42.015
			c-14.755,6.22-28.16,14.726-39.863,25.014l-34.559-24.749l-39.544,55.636l34.559,24.749c-5.884,14.455-9.535,29.947-10.594,45.976
			l-41.856,7.027l11.231,67.408l41.856-7.027c6.197,14.811,14.671,28.267,24.92,40.014l-24.656,34.69l55.426,39.693l24.656-34.69
			c14.4,5.906,29.833,9.571,45.801,10.633l7,42.015l67.154-11.273l-7-42.015c14.755-6.22,28.16-14.726,39.863-25.014l34.559,24.75
			l39.543-55.636l-34.56-24.75c5.884-14.455,9.535-29.947,10.594-45.976L1182.26,2165.288z M1007.3,2247.39
			c-46.767,7.851-91.02-23.84-98.841-70.785c-7.821-46.944,23.75-91.365,70.518-99.216c46.767-7.851,91.02,23.84,98.841,70.785
			S1054.067,2239.539,1007.3,2247.39z"/>
		<g>
			<g>
				<rect x="755.584" y="298.817" class="st3" width="1107.559" height="1334.898"/>
				<g>
					<g>
						<rect x="789.475" y="263.207" class="st4" width="1109.69" height="1427.89"/>
						<path d="M1899.165,1694.25H789.474c-1.742,0-3.154-1.411-3.154-3.154V263.208c0-1.743,1.412-3.154,3.154-3.154h1109.691
							c1.744,0,3.154,1.411,3.154,3.154v1427.888C1902.32,1692.839,1900.909,1694.25,1899.165,1694.25z M792.629,1687.941h1103.382
							V266.363H792.629V1687.941z"/>
					</g>
				</g>
				<g>
					<g>
						<rect x="943.934" y="760.025" class="st3" width="785.813" height="85.123"/>
						<g>
							<path class="st3" d="M1729.746,1593.058H943.933c-1.742,0-3.154-1.411-3.154-3.154V760.026c0-1.744,1.412-3.155,3.154-3.155
								h785.813c1.743,0,3.154,1.411,3.154,3.155v829.878C1732.9,1591.647,1731.489,1593.058,1729.746,1593.058z M947.088,1586.749
								h779.504V763.18H947.088V1586.749z"/>
							<g>
								<path class="st3" d="M1729.746,963.75H943.933c-1.742,0-3.154-1.411-3.154-3.154c0-1.744,1.412-3.155,3.154-3.155h785.813
									c1.743,0,3.154,1.411,3.154,3.155C1732.9,962.339,1731.489,963.75,1729.746,963.75z"/>
								<path class="st3" d="M1104.432,1593.058c-1.742,0-3.154-1.411-3.154-3.154V760.026c0-1.744,1.412-3.155,3.154-3.155
									s3.154,1.411,3.154,3.155v829.878C1107.586,1591.647,1106.174,1593.058,1104.432,1593.058z"/>
								<path class="st3" d="M1464.334,1593.058c-1.744,0-3.154-1.411-3.154-3.154V759.179c0-1.743,1.411-3.154,3.154-3.154
									c1.744,0,3.155,1.411,3.155,3.154v830.725C1467.488,1591.647,1466.078,1593.058,1464.334,1593.058z"/>
								<path class="st3" d="M1729.746,1035.687H943.933c-1.742,0-3.154-1.411-3.154-3.154c0-1.744,1.412-3.155,3.154-3.155h785.813
									c1.743,0,3.154,1.411,3.154,3.155C1732.9,1034.276,1731.489,1035.687,1729.746,1035.687z"/>
								<path class="st3" d="M1729.746,1223.072H943.933c-1.742,0-3.154-1.411-3.154-3.155c0-1.744,1.412-3.154,3.154-3.154h785.813
									c1.743,0,3.154,1.411,3.154,3.154C1732.9,1221.661,1731.489,1223.072,1729.746,1223.072z"/>
								<path class="st3" d="M1729.746,1410.454H943.933c-1.742,0-3.154-1.411-3.154-3.154c0-1.744,1.412-3.155,3.154-3.155h785.813
									c1.743,0,3.154,1.411,3.154,3.155C1732.9,1409.043,1731.489,1410.454,1729.746,1410.454z"/>
								<path class="st3" d="M1729.746,1121.713H943.933c-1.742,0-3.154-1.411-3.154-3.154c0-1.744,1.412-3.154,3.154-3.154h785.813
									c1.743,0,3.154,1.411,3.154,3.154C1732.9,1120.302,1731.489,1121.713,1729.746,1121.713z"/>
							</g>
						</g>
					</g>
					<g>
						
							<rect x="945.656" y="519.696" transform="matrix(-1 -1.224647e-16 1.224647e-16 -1 2091.6733 1071.8756)" class="st3" width="200.36" height="32.485"/>
						
							<rect x="945.656" y="595.321" transform="matrix(-1 -1.224647e-16 1.224647e-16 -1 2091.6733 1223.1267)" class="st3" width="200.36" height="32.485"/>
					</g>
					<g>
						
							<rect x="1220.012" y="519.705" transform="matrix(-1 -1.224647e-16 1.224647e-16 -1 2950.7546 1071.8953)" class="st3" width="510.731" height="32.485"/>
						
							<rect x="1220.012" y="595.331" transform="matrix(-1 -1.224647e-16 1.224647e-16 -1 2950.7546 1223.1464)" class="st3" width="510.731" height="32.485"/>
					</g>
				</g>
				<g>
					<path d="M1365.671,281.494c-0.105,0-0.213-0.006-0.317-0.015c-1.734-0.176-2.997-1.722-2.825-3.453l9.972-99.125
						c1.291-12.837-2.936-25.689-11.595-35.263c-8.687-9.605-21.105-15.113-34.068-15.113c-12.963,0-25.38,5.508-34.067,15.113
						c-8.659,9.574-12.886,22.426-11.595,35.263l9.972,99.125c0.173,1.731-1.09,3.278-2.825,3.453
						c-1.71,0.185-3.278-1.091-3.453-2.825l-9.972-99.125c-1.469-14.605,3.342-29.228,13.194-40.124
						c9.882-10.923,24.004-17.189,38.747-17.189c14.744,0,28.865,6.266,38.747,17.189c9.852,10.896,14.663,25.519,13.194,40.124
						l-9.972,99.125C1368.644,280.28,1367.273,281.494,1365.671,281.494z"/>
					<rect x="1174.205" y="233.706" class="st3" width="335.745" height="111.518"/>
					<path d="M1387.653,281.494c-0.105,0-0.213-0.006-0.317-0.015c-1.734-0.176-2.997-1.722-2.825-3.453l9.972-99.125
						c1.291-12.837-2.936-25.689-11.595-35.263c-8.687-9.605-21.104-15.113-34.067-15.113s-25.38,5.508-34.068,15.113
						c-8.659,9.574-12.886,22.426-11.595,35.263l9.972,99.125c0.172,1.731-1.09,3.278-2.825,3.453
						c-1.707,0.185-3.278-1.091-3.453-2.825l-9.972-99.125c-1.469-14.605,3.342-29.228,13.194-40.124
						c9.882-10.923,24.004-17.189,38.747-17.189c14.743,0,28.865,6.266,38.747,17.189c9.852,10.896,14.663,25.519,13.194,40.124
						l-9.972,99.125C1390.626,280.28,1389.255,281.494,1387.653,281.494z"/>
					<path d="M1508.798,347.802h-334.593c-1.742,0-3.154-1.411-3.154-3.154V233.706c0-1.744,1.412-3.155,3.154-3.155h334.593
						c1.744,0,3.155,1.411,3.155,3.155v110.942C1511.953,346.392,1510.542,347.802,1508.798,347.802z M1177.36,341.494h328.284
						V236.86H1177.36V341.494z"/>
				</g>
			</g>
			<g>
				<g>
					<polygon points="2067.544,1901.677 1467.328,1901.677 1467.328,1242.429 2229.558,1242.429 					"/>
					<polygon points="1535.879,1029.891 2298.109,1029.891 2229.558,1242.429 1467.328,1242.429 					"/>
					<rect x="1486.186" y="1242.429" class="st4" width="762.23" height="659.248"/>
					<path d="M2076.073,1904.832h-589.886c-1.744,0-3.154-1.411-3.154-3.155V1242.43c0-1.744,1.411-3.154,3.154-3.154h762.229
						c1.744,0,3.155,1.411,3.155,3.154v514.592c0,1.744-1.411,3.154-3.155,3.154c-1.743,0-3.154-1.411-3.154-3.154v-511.438
						h-755.921v652.939h586.732c1.744,0,3.155,1.411,3.155,3.154C2079.228,1903.421,2077.817,1904.832,2076.073,1904.832z"/>
					<g>
						<polygon class="st4" points="1554.737,1029.891 2316.967,1029.891 2248.416,1242.429 1486.186,1242.429 						"/>
						<path d="M2248.417,1245.584h-762.229c-1.007,0-1.956-0.484-2.551-1.297c-0.594-0.816-0.761-1.867-0.453-2.825l68.551-212.541
							c0.422-1.303,1.636-2.187,3.004-2.187h762.229c1.007,0,1.956,0.484,2.551,1.297c0.595,0.816,0.761,1.867,0.453,2.825
							l-68.551,212.541C2250.998,1244.7,2249.784,1245.584,2248.417,1245.584z M1490.518,1239.275h755.6l66.518-206.232h-755.6
							L1490.518,1239.275z"/>
					</g>
					<polygon class="st5" points="1609.318,1067.617 2238.049,1067.617 2193.834,1204.702 1565.104,1204.702 					"/>
					
						<rect x="2076.073" y="1331.786" transform="matrix(-1 -1.224647e-16 1.224647e-16 -1 4279.478 2756.9421)" class="st6" width="127.332" height="93.37"/>
					
						<rect x="1898.418" y="1331.786" transform="matrix(-1 -1.224647e-16 1.224647e-16 -1 3924.1682 2756.9421)" class="st6" width="127.332" height="93.37"/>
					
						<rect x="1720.763" y="1331.786" transform="matrix(-1 -1.224647e-16 1.224647e-16 -1 3568.8584 2756.9421)" class="st6" width="127.332" height="93.37"/>
					
						<rect x="1543.108" y="1331.786" transform="matrix(-1 -1.224647e-16 1.224647e-16 -1 3213.5486 2756.9421)" class="st3" width="127.332" height="93.37"/>
					<path d="M2203.404,1565.413h-127.331c-1.743,0-3.154-1.411-3.154-3.154v-93.371c0-1.744,1.411-3.154,3.154-3.154h127.331
						c1.743,0,3.154,1.411,3.154,3.154v93.371C2206.558,1564.003,2205.147,1565.413,2203.404,1565.413z M2079.228,1559.104h121.021
						v-87.062h-121.021V1559.104z"/>
					<path d="M2025.75,1565.413h-127.333c-1.744,0-3.154-1.411-3.154-3.154v-93.371c0-1.744,1.411-3.154,3.154-3.154h127.333
						c1.744,0,3.155,1.411,3.155,3.154v93.371C2028.905,1564.003,2027.494,1565.413,2025.75,1565.413z M1901.571,1559.104h121.025
						v-87.062h-121.025V1559.104z"/>
					<path d="M1848.096,1565.413h-127.333c-1.744,0-3.154-1.411-3.154-3.154v-93.371c0-1.744,1.411-3.154,3.154-3.154h127.333
						c1.744,0,3.154,1.411,3.154,3.154v93.371C1851.251,1564.003,1849.84,1565.413,1848.096,1565.413z M1723.917,1559.104h121.025
						v-87.062h-121.025V1559.104z"/>
					
						<rect x="1543.108" y="1468.889" transform="matrix(-1 -1.224647e-16 1.224647e-16 -1 3213.5486 3031.1472)" class="st6" width="127.332" height="93.37"/>
					<path d="M2203.404,1702.515h-127.331c-1.743,0-3.154-1.411-3.154-3.155v-93.371c0-1.744,1.411-3.155,3.154-3.155h127.331
						c1.743,0,3.154,1.411,3.154,3.155v93.371C2206.558,1701.104,2205.147,1702.515,2203.404,1702.515z M2079.228,1696.206h121.021
						v-87.062h-121.021V1696.206z"/>
					<path d="M2025.75,1702.515h-127.333c-1.744,0-3.154-1.411-3.154-3.155v-93.371c0-1.744,1.411-3.155,3.154-3.155h127.333
						c1.744,0,3.155,1.411,3.155,3.155v93.371C2028.905,1701.104,2027.494,1702.515,2025.75,1702.515z M1901.571,1696.206h121.025
						v-87.062h-121.025V1696.206z"/>
					<path d="M1848.096,1702.515h-127.333c-1.744,0-3.154-1.411-3.154-3.155v-93.371c0-1.744,1.411-3.155,3.154-3.155h127.333
						c1.744,0,3.154,1.411,3.154,3.155v93.371C1851.251,1701.104,1849.84,1702.515,1848.096,1702.515z M1723.917,1696.206h121.025
						v-87.062h-121.025V1696.206z"/>
					
						<rect x="1543.108" y="1605.991" transform="matrix(-1 -1.224647e-16 1.224647e-16 -1 3213.5486 3305.3521)" class="st6" width="127.332" height="93.37"/>
					<path d="M2076.073,1839.617c-1.743,0-3.154-1.411-3.154-3.155v-93.371c0-1.744,1.411-3.155,3.154-3.155h127.331
						c1.743,0,3.154,1.411,3.154,3.155v31.012c0,1.744-1.411,3.154-3.154,3.154c-1.744,0-3.155-1.411-3.155-3.154v-27.857h-121.021
						v90.216C2079.228,1838.206,2077.817,1839.617,2076.073,1839.617z"/>
					<path d="M2025.75,1839.617h-127.333c-1.744,0-3.154-1.411-3.154-3.155v-93.371c0-1.744,1.411-3.155,3.154-3.155h127.333
						c1.744,0,3.155,1.411,3.155,3.155v93.371C2028.905,1838.206,2027.494,1839.617,2025.75,1839.617z M1901.571,1833.308h121.025
						v-87.062h-121.025V1833.308z"/>
					<path d="M1848.096,1839.617h-127.333c-1.744,0-3.154-1.411-3.154-3.155v-93.371c0-1.744,1.411-3.155,3.154-3.155h127.333
						c1.744,0,3.154,1.411,3.154,3.155v93.371C1851.251,1838.206,1849.84,1839.617,1848.096,1839.617z M1723.917,1833.308h121.025
						v-87.062h-121.025V1833.308z"/>
					
						<rect x="1543.108" y="1743.094" transform="matrix(-1 -1.224647e-16 1.224647e-16 -1 3213.5486 3579.5569)" class="st6" width="127.332" height="93.37"/>
				</g>
				<g>
					<g>
						<g>
							<path class="st4" d="M2441.568,2162.389v69.399c0,103.018-83.584,186.53-186.691,186.53
								c-103.106,0-186.691-83.512-186.691-186.53v-69.399H2441.568z"/>
							<path d="M2254.876,2421.473c-104.679,0-189.844-85.09-189.844-189.683v-69.401c0-1.743,1.411-3.154,3.155-3.154
								c1.743,0,3.154,1.411,3.154,3.154v69.401c0,101.112,82.333,183.375,183.535,183.375
								c101.204,0,183.538-82.262,183.538-183.375v-69.401c0-1.743,1.411-3.154,3.155-3.154s3.154,1.411,3.154,3.154v69.401
								C2444.723,2336.382,2359.559,2421.473,2254.876,2421.473z"/>
						</g>
						<ellipse class="st5" cx="2254.877" cy="2162.389" rx="186.691" ry="186.53"/>
						<path d="M2254.876,2352.075c-104.679,0-189.844-85.094-189.844-189.687s85.164-189.683,189.844-189.683
							c104.682,0,189.846,85.09,189.846,189.683S2359.559,2352.075,2254.876,2352.075z M2254.876,1979.014
							c-101.201,0-183.535,82.262-183.535,183.374c0,101.115,82.333,183.377,183.535,183.377
							c101.204,0,183.538-82.262,183.538-183.377C2438.414,2061.276,2356.081,1979.014,2254.876,1979.014z"/>
						<path d="M2120.59,2184.161c-1.553,0-2.905-1.143-3.121-2.723c-0.863-6.263-1.3-12.67-1.3-19.05
							c0-48.497,25.904-94.104,67.608-119.022c1.488-0.893,3.428-0.407,4.325,1.091c0.893,1.494,0.407,3.432-1.091,4.325
							c-39.807,23.788-64.534,67.319-64.534,113.607c0,6.094,0.416,12.211,1.238,18.188c0.24,1.728-0.967,3.318-2.692,3.555
							C2120.877,2184.152,2120.732,2184.161,2120.59,2184.161z"/>
						<path d="M2180.75,2278.955c-0.591,0-1.189-0.167-1.722-0.514c-24.98-16.33-44.341-40.694-54.519-68.606
							c-0.598-1.636,0.246-3.447,1.882-4.045c1.633-0.592,3.444,0.25,4.045,1.882c9.716,26.64,28.199,49.898,52.042,65.489
							c1.46,0.952,1.87,2.908,0.915,4.365C2182.789,2278.453,2181.779,2278.955,2180.75,2278.955z"/>
						<path d="M2254.876,2300.981c-19.7,0-38.728-4.042-56.564-12.011c-1.59-0.712-2.304-2.575-1.593-4.168
							c0.708-1.586,2.566-2.313,4.168-1.593c17.02,7.606,35.183,11.463,53.989,11.463c48.98,0,93.756-26.837,116.857-70.039
							c0.819-1.537,2.729-2.11,4.27-1.294c1.537,0.823,2.116,2.733,1.294,4.27
							C2353.096,2272.865,2306.189,2300.981,2254.876,2300.981z"/>
						<path d="M2386.285,2198.926c-0.259,0-0.518-0.031-0.779-0.095c-1.688-0.431-2.711-2.147-2.283-3.835
							c2.689-10.591,4.054-21.561,4.054-32.607c0-35.333-13.773-68.554-38.781-93.537c-1.232-1.229-1.232-3.229,0-4.461
							s3.229-1.232,4.461,0c26.2,26.172,40.629,60.976,40.629,97.998c0,11.567-1.429,23.061-4.245,34.16
							C2388.978,2197.978,2387.693,2198.926,2386.285,2198.926z"/>
						<path d="M2330.664,2053.236c-0.607,0-1.22-0.176-1.762-0.539c-21.896-14.777-47.493-22.59-74.025-22.59
							c-11.647,0-23.199,1.513-34.336,4.491c-1.679,0.453-3.413-0.548-3.863-2.23c-0.45-1.685,0.548-3.413,2.23-3.863
							c11.669-3.124,23.769-4.707,35.968-4.707c27.795,0,54.612,8.185,77.555,23.668c1.445,0.977,1.823,2.936,0.85,4.38
							C2332.672,2052.749,2331.677,2053.236,2330.664,2053.236z"/>
						<path d="M2215.483,2417.299c-1.743,0-3.154-1.411-3.154-3.155v-53.438c0-1.744,1.411-3.155,3.154-3.155
							c1.744,0,3.155,1.411,3.155,3.155v53.438C2218.637,2415.888,2217.226,2417.299,2215.483,2417.299z"/>
						<path d="M2184.225,2406.889c-1.743,0-3.154-1.411-3.154-3.154v-53.438c0-1.744,1.411-3.155,3.154-3.155
							c1.744,0,3.155,1.411,3.155,3.155v53.438C2187.379,2405.479,2185.968,2406.889,2184.225,2406.889z"/>
						<path d="M2156.441,2393.009c-1.744,0-3.155-1.411-3.155-3.154v-29.148c0-1.744,1.411-3.155,3.155-3.155
							c1.743,0,3.154,1.411,3.154,3.155v29.148C2159.596,2391.598,2158.185,2393.009,2156.441,2393.009z"/>
					</g>
					<g>
						<g>
							<path class="st4" d="M2496.845,1982.996v69.399c0,103.018-83.584,186.53-186.691,186.53
								c-103.106,0-186.691-83.512-186.691-186.53v-69.399H2496.845z"/>
							<path d="M2310.153,2242.082c-104.679,0-189.843-85.094-189.843-189.687v-69.398c0-1.744,1.411-3.155,3.154-3.155
								c1.744,0,3.155,1.411,3.155,3.155v69.398c0,101.115,82.333,183.377,183.534,183.377
								c101.205,0,183.538-82.262,183.538-183.377v-69.398c0-1.744,1.411-3.155,3.155-3.155c1.744,0,3.155,1.411,3.155,3.155v69.398
								C2500,2156.988,2414.836,2242.082,2310.153,2242.082z"/>
						</g>
						<ellipse class="st5" cx="2310.154" cy="1982.996" rx="186.691" ry="186.53"/>
						<path d="M2310.153,2172.68c-104.679,0-189.843-85.09-189.843-189.683s85.164-189.686,189.843-189.686
							c104.683,0,189.847,85.093,189.847,189.686S2414.836,2172.68,2310.153,2172.68z M2310.153,1799.62
							c-101.201,0-183.534,82.262-183.534,183.377c0,101.112,82.333,183.374,183.534,183.374
							c101.205,0,183.538-82.262,183.538-183.374C2493.691,1881.882,2411.358,1799.62,2310.153,1799.62z"/>
						<path d="M2175.867,2004.767c-1.552,0-2.905-1.143-3.121-2.723c-0.863-6.256-1.3-12.667-1.3-19.047
							c0-48.497,25.904-94.107,67.608-119.025c1.488-0.893,3.429-0.41,4.325,1.09c0.893,1.494,0.407,3.432-1.091,4.325
							c-39.806,23.788-64.534,67.319-64.534,113.61c0,6.093,0.416,12.211,1.238,18.184c0.24,1.728-0.967,3.318-2.692,3.555
							C2176.154,2004.758,2176.009,2004.767,2175.867,2004.767z"/>
						<path d="M2236.027,2099.564c-0.592,0-1.189-0.166-1.722-0.514c-24.977-16.33-44.341-40.697-54.519-68.609
							c-0.598-1.636,0.246-3.447,1.882-4.045c1.636-0.598,3.444,0.246,4.045,1.882c9.716,26.643,28.199,49.901,52.042,65.492
							c1.46,0.952,1.87,2.908,0.915,4.365C2238.066,2099.062,2237.056,2099.564,2236.027,2099.564z"/>
						<path d="M2310.153,2121.587c-19.697,0-38.725-4.038-56.564-12.008c-1.59-0.712-2.304-2.575-1.593-4.168
							c0.709-1.586,2.569-2.313,4.168-1.593c17.02,7.603,35.186,11.459,53.989,11.459c48.98,0,93.759-26.838,116.86-70.039
							c0.819-1.534,2.729-2.11,4.27-1.294c1.537,0.822,2.116,2.732,1.294,4.27
							C2408.376,2093.471,2361.466,2121.587,2310.153,2121.587z"/>
						<path d="M2441.562,2019.532c-0.259,0-0.518-0.031-0.78-0.096c-1.688-0.431-2.711-2.147-2.282-3.835
							c2.689-10.591,4.054-21.56,4.054-32.604c0-35.337-13.77-68.554-38.778-93.54c-1.232-1.229-1.232-3.228,0-4.461
							c1.232-1.232,3.229-1.232,4.461,0c26.197,26.175,40.626,60.979,40.626,98.001c0,11.567-1.429,23.058-4.245,34.157
							C2444.255,2018.583,2442.97,2019.532,2441.562,2019.532z"/>
						<path d="M2385.94,1873.845c-0.607,0-1.22-0.176-1.762-0.539c-21.893-14.781-47.49-22.593-74.025-22.593
							c-11.647,0-23.199,1.513-34.335,4.491c-1.685,0.456-3.413-0.548-3.863-2.23c-0.45-1.685,0.548-3.413,2.23-3.863
							c11.669-3.124,23.769-4.707,35.968-4.707c27.796,0,54.615,8.185,77.555,23.671c1.445,0.977,1.823,2.936,0.85,4.381
							C2387.949,1873.358,2386.954,1873.845,2385.94,1873.845z"/>
						<path d="M2425.858,2200.245c-1.744,0-3.155-1.411-3.155-3.155v-52.812c0-1.744,1.411-3.155,3.155-3.155
							c1.743,0,3.154,1.411,3.154,3.155v52.812C2429.012,2198.834,2427.601,2200.245,2425.858,2200.245z"/>
						<path d="M2398.075,2217.594c-1.744,0-3.155-1.411-3.155-3.154v-35.463c0-1.743,1.411-3.154,3.155-3.154
							c1.743,0,3.154,1.411,3.154,3.154v35.463C2401.229,2216.183,2399.818,2217.594,2398.075,2217.594z"/>
						<path d="M2366.817,2231.472c-1.744,0-3.155-1.411-3.155-3.154v-35.46c0-1.744,1.411-3.154,3.155-3.154
							s3.154,1.411,3.154,3.154v35.46C2369.971,2230.061,2368.56,2231.472,2366.817,2231.472z"/>
						<g>
							<path d="M2274.86,1977.415c-1.167,0-2.289-0.647-2.834-1.765c-2.859-5.828-4.307-12.097-4.307-18.631
								c0-23.381,19.035-42.4,42.434-42.4c16.407,0,31.505,9.596,38.454,24.45c0.74,1.577,0.059,3.456-1.519,4.193
								c-1.577,0.749-3.456,0.058-4.193-1.519c-5.921-12.646-18.773-20.815-32.743-20.815c-19.919,0-36.125,16.191-36.125,36.092
								c0,5.563,1.232,10.899,3.66,15.852c0.767,1.565,0.123,3.456-1.442,4.22
								C2275.799,1977.313,2275.325,1977.415,2274.86,1977.415z"/>
							<path d="M2310.153,2053.874c-12.381,0-24.111-5.385-32.188-14.774c-1.137-1.322-0.989-3.315,0.333-4.448
								c1.328-1.137,3.315-0.986,4.448,0.333c6.879,7.997,16.866,12.581,27.407,12.581c19.922,0,36.128-16.191,36.128-36.094
								c0-5.875-1.442-11.703-4.174-16.857c-0.816-1.537-0.228-3.447,1.312-4.263c1.525-0.819,3.447-0.231,4.263,1.312
								c3.21,6.059,4.907,12.907,4.907,19.808C2352.591,2034.851,2333.553,2053.874,2310.153,2053.874z"/>
							<path d="M2308.314,2082.042c-1.707,0-3.111-1.362-3.154-3.074l-0.708-28.168c-0.043-1.743,1.334-3.188,3.074-3.234
								c0.028,0,0.056,0,0.08,0c1.707,0,3.111,1.361,3.155,3.074l0.708,28.168c0.043,1.744-1.334,3.188-3.074,3.235
								C2308.367,2082.042,2308.339,2082.042,2308.314,2082.042z"/>
							<path d="M2310.15,1920.927c-1.664,0-3.056-1.3-3.145-2.982l-1.839-33.572c-0.095-1.74,1.235-3.228,2.976-3.321
								c1.74-0.222,3.228,1.235,3.321,2.976l1.839,33.572c0.095,1.74-1.235,3.228-2.976,3.321
								C2310.267,1920.927,2310.209,1920.927,2310.15,1920.927z"/>
							<path d="M2330.476,1989.001c-0.206,0-0.416-0.019-0.625-0.062l-42.613-8.579c-1.71-0.345-2.812-2.008-2.47-3.715
								c0.342-1.71,2.005-2.825,3.715-2.471l42.613,8.579c1.71,0.345,2.812,2.009,2.471,3.715
								C2333.263,1987.966,2331.948,1989.001,2330.476,1989.001z"/>
						</g>
					</g>
					<g>
						<g>
							<g>
								<path class="st4" d="M2081.139,2340.134v69.399c0,103.018-83.584,186.53-186.691,186.53
									c-103.106,0-186.691-83.512-186.691-186.53v-69.399H2081.139z"/>
								<path d="M1894.449,2599.219c-104.682,0-189.846-85.093-189.846-189.687v-69.398c0-1.744,1.411-3.155,3.155-3.155
									c1.744,0,3.154,1.411,3.154,3.155v69.398c0,101.115,82.333,183.377,183.537,183.377
									c101.202,0,183.535-82.262,183.535-183.377v-69.398c0-1.744,1.411-3.155,3.155-3.155s3.155,1.411,3.155,3.155v69.398
									C2084.292,2514.126,1999.128,2599.219,1894.449,2599.219z"/>
							</g>
							<ellipse class="st5" cx="1894.448" cy="2340.134" rx="186.691" ry="186.53"/>
							<path d="M1894.449,2529.818c-104.682,0-189.846-85.09-189.846-189.683s85.164-189.683,189.846-189.683
								c104.679,0,189.844,85.09,189.844,189.683S1999.128,2529.818,1894.449,2529.818z M1894.449,2156.76
								c-101.204,0-183.537,82.262-183.537,183.375s82.333,183.374,183.537,183.374c101.202,0,183.535-82.262,183.535-183.374
								S1995.65,2156.76,1894.449,2156.76z"/>
							<path d="M1760.16,2361.908c-1.552,0-2.905-1.146-3.124-2.726c-0.859-6.281-1.297-12.689-1.297-19.047
								c0-48.494,25.907-94.101,67.611-119.025c1.488-0.893,3.429-0.406,4.325,1.091c0.893,1.494,0.407,3.432-1.091,4.325
								c-39.806,23.791-64.537,67.325-64.537,113.61c0,6.072,0.416,12.19,1.238,18.19c0.237,1.725-0.97,3.318-2.695,3.555
								C1760.446,2361.898,1760.301,2361.908,1760.16,2361.908z"/>
							<path d="M1820.319,2456.701c-0.591,0-1.189-0.166-1.722-0.514c-24.98-16.33-44.341-40.697-54.516-68.61
								c-0.598-1.639,0.246-3.447,1.882-4.045c1.636-0.595,3.45,0.246,4.045,1.882c9.713,26.643,28.193,49.901,52.039,65.492
								c1.46,0.952,1.87,2.908,0.915,4.365C1822.359,2456.199,1821.348,2456.701,1820.319,2456.701z"/>
							<path d="M1894.449,2478.727c-19.691,0-38.722-4.042-56.564-12.011c-1.59-0.712-2.304-2.575-1.593-4.168
								c0.712-1.586,2.569-2.316,4.168-1.593c17.026,7.606,35.189,11.463,53.989,11.463c48.977,0,93.756-26.838,116.857-70.042
								c0.819-1.537,2.729-2.116,4.27-1.294c1.537,0.822,2.116,2.732,1.294,4.27
								C1992.668,2450.611,1945.758,2478.727,1894.449,2478.727z"/>
							<path d="M2025.858,2376.673c-0.259,0-0.517-0.031-0.779-0.095c-1.688-0.428-2.711-2.144-2.282-3.835
								c2.689-10.597,4.051-21.57,4.051-32.607c0-35.334-13.77-68.551-38.778-93.54c-1.232-1.229-1.232-3.229,0-4.461
								c1.232-1.232,3.228-1.232,4.461,0c26.197,26.178,40.626,60.982,40.626,98.001c0,11.561-1.426,23.055-4.242,34.16
								C2028.55,2375.721,2027.266,2376.673,2025.858,2376.673z"/>
							<path d="M1970.236,2230.982c-0.607,0-1.22-0.176-1.762-0.539c-21.893-14.781-47.489-22.593-74.025-22.593
								c-11.647,0-23.199,1.512-34.339,4.491c-1.676,0.456-3.413-0.548-3.863-2.23c-0.45-1.685,0.548-3.413,2.23-3.863
								c11.672-3.124,23.776-4.707,35.971-4.707c27.796,0,54.615,8.185,77.555,23.671c1.445,0.977,1.824,2.936,0.85,4.381
								C1972.245,2230.496,1971.25,2230.982,1970.236,2230.982z"/>
							<path d="M1855.052,2595.045c-1.744,0-3.155-1.411-3.155-3.155v-53.441c0-1.744,1.411-3.155,3.155-3.155
								c1.744,0,3.154,1.411,3.154,3.155v53.441C1858.207,2593.634,1856.796,2595.045,1855.052,2595.045z"/>
							<path d="M1823.797,2584.633c-1.744,0-3.154-1.411-3.154-3.154v-53.438c0-1.743,1.411-3.154,3.154-3.154
								c1.744,0,3.155,1.411,3.155,3.154v53.438C1826.952,2583.222,1825.541,2584.633,1823.797,2584.633z"/>
							<path d="M1796.014,2570.755c-1.744,0-3.154-1.411-3.154-3.155v-29.151c0-1.744,1.411-3.155,3.154-3.155
								c1.744,0,3.155,1.411,3.155,3.155v29.151C1799.168,2569.344,1797.758,2570.755,1796.014,2570.755z"/>
						</g>
						<g>
							<g>
								<path class="st4" d="M2113.32,2181.562v69.399c0,103.018-83.584,186.53-186.691,186.53
									c-103.106,0-186.691-83.512-186.691-186.53v-69.399H2113.32z"/>
								<path d="M1926.628,2440.646c-104.679,0-189.844-85.09-189.844-189.683v-69.401c0-1.744,1.411-3.155,3.154-3.155
									c1.744,0,3.155,1.411,3.155,3.155v69.401c0,101.112,82.333,183.374,183.535,183.374
									c101.204,0,183.538-82.262,183.538-183.374v-69.401c0-1.744,1.411-3.155,3.154-3.155c1.744,0,3.155,1.411,3.155,3.155
									v69.401C2116.475,2355.556,2031.311,2440.646,1926.628,2440.646z"/>
							</g>
							<ellipse class="st5" cx="1926.629" cy="2181.562" rx="186.691" ry="186.53"/>
							<path d="M1926.628,2371.248c-104.679,0-189.844-85.093-189.844-189.686c0-104.593,85.164-189.683,189.844-189.683
								c104.682,0,189.846,85.09,189.846,189.683C2116.475,2286.155,2031.311,2371.248,1926.628,2371.248z M1926.628,1998.187
								c-101.201,0-183.535,82.262-183.535,183.374c0,101.115,82.333,183.377,183.535,183.377
								c101.204,0,183.538-82.262,183.538-183.377C2110.166,2080.449,2027.833,1998.187,1926.628,1998.187z"/>
							<path d="M1792.342,2203.334c-1.552,0-2.905-1.143-3.12-2.723c-0.863-6.262-1.3-12.67-1.3-19.05
								c0-48.497,25.904-94.104,67.608-119.022c1.488-0.894,3.429-0.407,4.325,1.09c0.893,1.494,0.406,3.432-1.091,4.325
								c-39.807,23.788-64.534,67.319-64.534,113.607c0,6.093,0.416,12.211,1.238,18.187c0.24,1.728-0.967,3.318-2.692,3.555
								C1792.628,2203.325,1792.484,2203.334,1792.342,2203.334z"/>
							<path d="M1852.501,2298.128c-0.592,0-1.189-0.166-1.722-0.514c-24.98-16.33-44.341-40.694-54.519-68.606
								c-0.598-1.635,0.246-3.447,1.882-4.045c1.63-0.591,3.444,0.243,4.045,1.882c9.716,26.641,28.199,49.898,52.042,65.489
								c1.46,0.952,1.87,2.908,0.915,4.365C1854.541,2297.626,1853.53,2298.128,1852.501,2298.128z"/>
							<path d="M1926.628,2320.154c-19.7,0-38.728-4.042-56.565-12.011c-1.59-0.712-2.304-2.575-1.593-4.168
								c0.709-1.586,2.569-2.304,4.168-1.593c17.02,7.606,35.183,11.463,53.989,11.463c48.98,0,93.759-26.837,116.86-70.039
								c0.819-1.537,2.729-2.116,4.27-1.294c1.537,0.823,2.116,2.732,1.294,4.27
								C2024.851,2292.038,1977.94,2320.154,1926.628,2320.154z"/>
							<path d="M2058.037,2218.1c-0.259,0-0.518-0.031-0.779-0.095c-1.688-0.431-2.711-2.147-2.283-3.835
								c2.689-10.591,4.054-21.561,4.054-32.607c0-35.334-13.77-68.551-38.778-93.537c-1.232-1.229-1.232-3.229,0-4.461
								s3.228-1.232,4.461,0c26.197,26.175,40.626,60.979,40.626,97.998c0,11.567-1.429,23.061-4.245,34.16
								C2060.729,2217.151,2059.445,2218.1,2058.037,2218.1z"/>
							<path d="M2002.415,2072.409c-0.607,0-1.22-0.176-1.762-0.539c-21.896-14.777-47.493-22.589-74.025-22.589
								c-11.645,0-23.196,1.51-34.336,4.488c-1.676,0.45-3.413-0.548-3.863-2.23c-0.45-1.685,0.548-3.413,2.23-3.863
								c11.672-3.12,23.776-4.704,35.968-4.704c27.796,0,54.612,8.185,77.555,23.668c1.445,0.977,1.824,2.936,0.85,4.381
								C2004.424,2071.923,2003.429,2072.409,2002.415,2072.409z"/>
							<path d="M2042.333,2398.809c-1.744,0-3.154-1.411-3.154-3.155v-52.812c0-1.744,1.411-3.155,3.154-3.155
								c1.744,0,3.155,1.411,3.155,3.155v52.812C2045.487,2397.398,2044.076,2398.809,2042.333,2398.809z"/>
							<path d="M2014.549,2416.159c-1.744,0-3.154-1.411-3.154-3.155v-35.46c0-1.744,1.411-3.155,3.154-3.155
								c1.744,0,3.154,1.411,3.154,3.155v35.46C2017.704,2414.748,2016.293,2416.159,2014.549,2416.159z"/>
							<path d="M1983.291,2430.04c-1.744,0-3.154-1.411-3.154-3.154v-35.463c0-1.743,1.411-3.154,3.154-3.154
								c1.744,0,3.155,1.411,3.155,3.154v35.463C1986.446,2428.629,1985.035,2430.04,1983.291,2430.04z"/>
							<g>
								<path d="M1891.335,2175.983c-1.168,0-2.289-0.65-2.837-1.765c-2.856-5.832-4.303-12.1-4.303-18.634
									c0-23.378,19.034-42.4,42.434-42.4c16.407,0,31.501,9.599,38.454,24.453c0.739,1.577,0.059,3.456-1.519,4.193
									c-1.58,0.749-3.456,0.059-4.193-1.519c-5.921-12.646-18.773-20.818-32.743-20.818c-19.919,0-36.125,16.191-36.125,36.092
									c0,5.563,1.232,10.899,3.663,15.855c0.764,1.565,0.117,3.456-1.445,4.223
									C1892.274,2175.881,1891.8,2175.983,1891.335,2175.983z"/>
								<path d="M1926.628,2252.438c-12.381,0-24.114-5.385-32.188-14.771c-1.137-1.322-0.989-3.315,0.333-4.448
									c1.328-1.137,3.315-0.986,4.448,0.333c6.876,7.994,16.866,12.578,27.407,12.578c19.922,0,36.128-16.191,36.128-36.091
									c0-5.872-1.445-11.703-4.174-16.86c-0.816-1.54-0.228-3.447,1.312-4.263c1.546-0.823,3.447-0.225,4.263,1.312
									c3.21,6.062,4.907,12.914,4.907,19.811C1969.065,2233.416,1950.028,2252.438,1926.628,2252.438z"/>
								<path d="M1924.789,2280.61c-1.707,0-3.111-1.362-3.155-3.074l-0.708-28.171c-0.043-1.744,1.334-3.188,3.074-3.235
									c0.028,0,0.056,0,0.08,0c1.707,0,3.111,1.362,3.154,3.074l0.708,28.171c0.043,1.743-1.334,3.188-3.074,3.235
									C1924.841,2280.61,1924.814,2280.61,1924.789,2280.61z"/>
								<path d="M1926.625,2119.492c-1.663,0-3.056-1.3-3.145-2.982l-1.839-33.572c-0.095-1.74,1.235-3.229,2.976-3.321
									c1.71-0.213,3.228,1.235,3.321,2.976l1.839,33.572c0.095,1.74-1.235,3.229-2.976,3.321
									C1926.742,2119.492,1926.684,2119.492,1926.625,2119.492z"/>
								<path d="M1946.95,2187.568c-0.207,0-0.416-0.018-0.625-0.062l-42.613-8.579c-1.71-0.345-2.812-2.009-2.471-3.715
									s2.005-2.831,3.715-2.47l42.613,8.579c1.71,0.345,2.812,2.009,2.471,3.715
									C1949.738,2186.533,1948.423,2187.568,1946.95,2187.568z"/>
							</g>
						</g>
					</g>
				</g>
			</g>
			<g>
				<g>
					<path d="M2255.192,19.554h-435.787c-25.145,0-45.529,20.384-45.529,45.529v474.813c0,25.145,20.384,45.529,45.529,45.529
						h435.787c25.145,0,45.529-20.384,45.529-45.529V65.083C2300.721,39.938,2280.337,19.554,2255.192,19.554z"/>
					<g>
						<path class="st4" d="M2239.094,30.774h-435.787c-25.145,0-45.529,20.384-45.529,45.529v474.813
							c0,25.145,20.384,45.529,45.529,45.529h435.787c25.145,0,45.529-20.384,45.529-45.529V76.303
							C2284.623,51.158,2264.239,30.774,2239.094,30.774z"/>
						<path d="M2239.095,599.799h-435.786c-26.844,0-48.685-21.838-48.685-48.682V76.303c0-26.844,21.841-48.685,48.685-48.685
							h435.786c26.844,0,48.681,21.841,48.681,48.685v474.814C2287.776,577.961,2265.939,599.799,2239.095,599.799z
							 M1803.309,33.928c-23.366,0-42.376,19.01-42.376,42.376v474.814c0,23.366,19.01,42.373,42.376,42.373h435.786
							c23.366,0,42.373-19.007,42.373-42.373V76.303c0-23.366-19.007-42.376-42.373-42.376H1803.309z"/>
					</g>
				</g>
				<g>
					<g>
						<path class="st3" d="M2004.475,143.431v233.533h-22.45v72.41c0,13.913-11.275,25.205-25.206,25.205h-40.489
							c-37.55,0-68-30.451-68-68.017c0-5.412,1.887-10.356,5.027-14.265c3.141-3.908,7.55-6.747,12.612-7.917
							c-22.467-8.636-38.418-30.401-38.418-55.907c0-14.214,4.927-27.26,13.179-37.499c0.585-0.701,1.153-1.404,1.754-2.072
							c9.304-10.556,22.249-17.805,36.882-19.777c-15.535-5.261-26.709-19.944-26.709-37.249c0-20.329,8.085-38.77,21.197-52.283
							c13.112-13.513,31.269-22.115,51.43-22.751v-13.413c0-21.865,17.74-39.588,39.604-39.588c10.941,0,20.83,4.427,27.996,11.592
							C2000.049,122.602,2004.475,132.491,2004.475,143.431z"/>
						<path class="st3" d="M2217.363,325.417v6.013c-1.17,24.22-16.738,44.649-38.335,52.951c5.061,1.17,9.471,4.009,12.611,7.917
							c3.14,3.909,5.028,8.853,5.028,14.265c0,37.567-30.45,68.017-68.017,68.017h-40.489c-13.914,0-25.206-11.292-25.206-25.205
							v-72.41h-22.432V143.431c0-10.941,4.426-20.83,11.592-27.996c7.166-7.165,17.054-11.592,27.995-11.592
							c21.865,0,39.588,17.723,39.588,39.588v13.413c20.161,0.635,38.334,9.238,51.447,22.751
							c13.113,13.513,21.197,31.954,21.197,52.283c0,17.305-11.191,31.987-26.726,37.249c14.633,1.971,27.595,9.22,36.882,19.777
							C2211.166,298.725,2216.661,311.436,2217.363,325.417z"/>
					</g>
					<g>
						<g>
							<g>
								<g>
									<path d="M2385.712,538.062c-0.807,0-1.614-0.308-2.23-0.924L2233.88,387.535h-92.135c-1.743,0-3.154-1.411-3.154-3.154
										c0-1.743,1.411-3.154,3.154-3.154h94.748l151.451,151.451c1.232,1.232,1.232,3.228,0,4.461
										C2387.327,537.754,2386.52,538.062,2385.712,538.062z"/>
									<path d="M2094.501,432.335c-1.743,0-3.154-1.411-3.154-3.154v-90.235l72.044-72.044c1.232-1.232,3.229-1.232,4.461,0
										c1.232,1.232,1.232,3.228,0,4.461l-70.196,70.196v87.622C2097.656,430.924,2096.245,432.335,2094.501,432.335z"/>
									<path d="M2076.754,300.978c-0.807,0-1.614-0.308-2.23-0.924c-1.232-1.232-1.232-3.228,0-4.461l42.019-42.018v-96.728
										c0-1.744,1.411-3.155,3.155-3.155c1.743,0,3.154,1.411,3.154,3.155v99.341l-43.866,43.867
										C2078.369,300.67,2077.562,300.978,2076.754,300.978z"/>
									<path d="M2079.502,230.225c-1.743,0-3.154-1.411-3.154-3.154v-73.378h43.352c1.744,0,3.155,1.411,3.155,3.155
										c0,1.744-1.411,3.154-3.155,3.154h-37.043v67.069C2082.657,228.814,2081.246,230.225,2079.502,230.225z"/>
									<g>
										
											<ellipse transform="matrix(0.9871 -0.1602 0.1602 0.9871 -10.4683 336.1089)" class="st4" cx="2079.503" cy="232.985" rx="10.489" ry="10.489"/>
										<path d="M2079.502,246.629c-7.522,0-13.644-6.121-13.644-13.644c0-7.523,6.121-13.644,13.644-13.644
											c7.523,0,13.644,6.121,13.644,13.644C2093.146,240.508,2087.025,246.629,2079.502,246.629z M2079.502,225.65
											c-4.045,0-7.335,3.29-7.335,7.335s3.29,7.335,7.335,7.335s7.335-3.29,7.335-7.335S2083.547,225.65,2079.502,225.65z"/>
									</g>
									<circle cx="2070.546" cy="303.251" r="10.489"/>
									
										<ellipse transform="matrix(0.7071 -0.7071 0.7071 0.7071 358.8989 1560.3519)" cx="2062.961" cy="346.947" rx="10.489" ry="10.489"/>
									<g>
										<circle class="st4" cx="2133.807" cy="384.378" r="10.489"/>
										<path d="M2133.809,398.021c-7.523,0-13.644-6.121-13.644-13.644c0-7.523,6.121-13.644,13.644-13.644
											s13.641,6.121,13.641,13.644C2147.449,391.9,2141.332,398.021,2133.809,398.021z M2133.809,377.043
											c-4.045,0-7.335,3.29-7.335,7.335c0,4.045,3.29,7.335,7.335,7.335c4.042,0,7.332-3.29,7.332-7.335
											C2141.14,380.333,2137.85,377.043,2133.809,377.043z"/>
									</g>
									<g>
										
											<ellipse transform="matrix(0.7071 -0.7071 0.7071 0.7071 303.5372 1609.4124)" class="st4" cx="2094.501" cy="438.304" rx="10.489" ry="10.489"/>
										<path d="M2094.501,451.949c-7.522,0-13.644-6.121-13.644-13.644c0-7.523,6.121-13.644,13.644-13.644
											c7.523,0,13.644,6.121,13.644,13.644C2108.145,445.828,2102.024,451.949,2094.501,451.949z M2094.501,430.97
											c-4.045,0-7.335,3.29-7.335,7.335c0,4.045,3.29,7.335,7.335,7.335s7.335-3.29,7.335-7.335
											C2101.836,434.26,2098.546,430.97,2094.501,430.97z"/>
									</g>
									<g>
										<path class="st4" d="M2378.786,536.919c-1.401,7.389,4.957,13.747,12.347,12.347c4.128-0.783,7.458-4.112,8.241-8.24
											c1.401-7.39-4.958-13.748-12.347-12.347C2382.898,529.461,2379.569,532.79,2378.786,536.919z"/>
										<path d="M2389.116,552.611c-3.613,0-7.104-1.411-9.682-3.992c-3.198-3.198-4.599-7.791-3.746-12.288
											c1.026-5.406,5.345-9.728,10.751-10.751c4.507-0.866,9.088,0.548,12.285,3.743c3.198,3.198,4.599,7.791,3.749,12.288
											c-1.026,5.409-5.345,9.728-10.751,10.754C2390.854,552.531,2389.982,552.611,2389.116,552.611z M2389.083,531.639
											c-0.484,0-0.973,0.046-1.466,0.139c-2.837,0.536-5.191,2.893-5.73,5.73c-0.471,2.48,0.262,4.904,2.009,6.651
											c1.743,1.743,4.168,2.468,6.651,2.008c2.837-0.539,5.191-2.893,5.73-5.73c0.468-2.48-0.265-4.904-2.012-6.654
											C2392.865,532.384,2391.033,531.639,2389.083,531.639z M2378.788,536.919h0.031H2378.788z"/>
									</g>
									<path d="M2199.686,289.088c-0.807,0-1.614-0.308-2.23-0.924c-1.232-1.232-1.232-3.228,0-4.461l76.832-76.831h177.386
										c1.744,0,3.155,1.411,3.155,3.154s-1.411,3.154-3.155,3.154h-174.773l-74.983,74.983
										C2201.3,288.78,2200.493,289.088,2199.686,289.088z"/>
									<g>
										<circle class="st4" cx="2453.41" cy="210.026" r="10.489"/>
										<path d="M2453.41,223.67c-7.523,0-13.644-6.121-13.644-13.644c0-7.523,6.121-13.644,13.644-13.644
											s13.644,6.121,13.644,13.644C2467.054,217.549,2460.933,223.67,2453.41,223.67z M2453.41,202.691
											c-4.045,0-7.335,3.29-7.335,7.335s3.29,7.335,7.335,7.335s7.335-3.29,7.335-7.335S2457.455,202.691,2453.41,202.691z"/>
									</g>
									<g>
										<path d="M2127.864,1149.965c-1.744,0-3.155-1.411-3.155-3.154v-513.08l-86.418-86.433
											c-0.592-0.592-0.924-1.396-0.924-2.23V143.431c0-11.419,4.445-22.155,12.516-30.226
											c8.074-8.074,18.803-12.516,30.223-12.516c0.046,0,0.089,0,0.136,0c23.495,0.074,42.61,19.771,42.61,43.91v9.248
											c19.201,1.346,37.056,9.639,50.558,23.551c14.244,14.682,22.087,34.031,22.087,54.479
											c0,14.934-7.794,28.492-20.119,36.116c11.333,3.339,21.576,9.836,29.487,18.828c9.377,10.625,14.938,24.278,15.649,38.439
											c0.052,1.075,0.086,2.147,0.086,3.216c0,1.053-0.019,2.113-0.09,3.17c-1.075,22.318-13.976,42.253-33.498,52.566
											c2.699,1.583,5.111,3.653,7.085,6.109c3.746,4.664,5.724,10.28,5.724,16.244c0,39.246-31.927,71.172-71.172,71.172
											h-40.487c-15.64,0-28.362-12.723-28.362-28.362v-95.376c0-1.743,1.411-3.154,3.154-3.154c1.744,0,3.155,1.411,3.155,3.154
											v95.376c0,12.162,9.895,22.053,22.053,22.053h40.487c35.765,0,64.864-29.099,64.864-64.863
											c0-4.51-1.497-8.761-4.331-12.291c-2.742-3.41-6.602-5.831-10.865-6.817c-1.349-0.314-2.338-1.473-2.434-2.856
											c-0.099-1.38,0.718-2.665,2.015-3.164c20.979-8.065,35.235-27.752,36.313-50.157c0.068-0.98,0.08-1.891,0.08-2.803
											c0-0.97-0.034-1.938-0.08-2.908c-0.641-12.732-5.64-25.014-14.081-34.576c-9.032-10.267-21.437-16.921-34.936-18.739
											c-1.451-0.197-2.578-1.365-2.717-2.825c-0.142-1.457,0.739-2.819,2.129-3.29c14.703-4.981,24.583-18.748,24.583-34.262
											c0-18.8-7.211-36.587-20.307-50.086c-13.068-13.465-30.571-21.203-49.282-21.792c-1.704-0.055-3.056-1.451-3.056-3.154
											v-12.245c0-20.67-16.293-37.539-36.319-37.601c-0.04,0-0.077,0-0.117,0c-9.734,0-18.881,3.786-25.762,10.668
											c-6.879,6.879-10.668,16.031-10.668,25.765v400.33l86.418,86.433c0.591,0.591,0.924,1.392,0.924,2.23v514.386
											C2131.018,1148.554,2129.607,1149.965,2127.864,1149.965z"/>
										<g>
											<path class="st4" d="M2118.16,1154.909c-1.085,7.088,4.932,13.105,12.02,12.02c4.417-0.676,8.027-4.286,8.703-8.703
												c1.086-7.088-4.932-13.105-12.02-12.02C2122.446,1146.882,2118.836,1150.492,2118.16,1154.909z"/>
											<path d="M2128.507,1170.213c-3.614,0-7.036-1.405-9.633-3.999c-3.105-3.105-4.504-7.399-3.832-11.783
												c0.887-5.794,5.554-10.458,11.343-11.342c4.386-0.687,8.675,0.724,11.78,3.829c3.108,3.105,4.507,7.402,3.835,11.786
												c-0.887,5.791-5.551,10.455-11.342,11.343C2129.937,1170.158,2129.219,1170.213,2128.507,1170.213z M2121.277,1155.387
												c-0.364,2.375,0.388,4.695,2.058,6.367c1.67,1.67,3.974,2.409,6.367,2.058c3.044-0.468,5.594-3.019,6.062-6.062
												c0.364-2.375-0.388-4.698-2.061-6.37c-1.67-1.667-3.986-2.4-6.365-2.055
												C2124.293,1149.789,2121.745,1152.34,2121.277,1155.387z"/>
										</g>
									</g>
									<g>
										<g>
											<path d="M2412.301,958.754c-0.807,0-1.614-0.308-2.23-0.924l-172.559-172.556V536.552l-72.094-72.093
												c-1.232-1.232-1.232-3.228,0-4.461s3.229-1.232,4.461,0l73.942,73.942v248.722l170.71,170.707
												c1.232,1.232,1.232,3.228,0,4.461C2413.915,958.445,2413.108,958.754,2412.301,958.754z"/>
										</g>
										<g>
											<path class="st4" d="M2410.095,961.721c-1.085,7.088,4.932,13.105,12.02,12.02c4.417-0.676,8.027-4.286,8.703-8.703
												c1.086-7.088-4.932-13.106-12.02-12.02C2414.381,953.694,2410.771,957.304,2410.095,961.721z"/>
											<path d="M2420.442,977.024c-3.614,0-7.036-1.405-9.633-3.999c-3.105-3.105-4.504-7.399-3.832-11.783
												c0.887-5.791,5.551-10.455,11.343-11.342c4.38-0.675,8.678,0.727,11.786,3.835c3.105,3.105,4.501,7.399,3.829,11.78
												c-0.887,5.794-5.554,10.458-11.343,11.343C2421.872,976.969,2421.154,977.024,2420.442,977.024z M2413.212,962.198
												c-0.364,2.375,0.388,4.695,2.058,6.367c1.673,1.667,3.977,2.421,6.367,2.058c3.047-0.465,5.594-3.016,6.063-6.062
												c0.363-2.375-0.385-4.695-2.055-6.364c-1.673-1.673-3.995-2.415-6.37-2.061
												C2416.231,956.603,2413.681,959.154,2413.212,962.198z"/>
										</g>
									</g>
								</g>
							</g>
						</g>
						<g>
							<g>
								<g>
									<path d="M1968.234,300.978c-0.807,0-1.614-0.308-2.23-0.924l-43.87-43.867v-99.341c0-1.744,1.411-3.155,3.154-3.155
										c1.744,0,3.154,1.411,3.154,3.155v96.728l42.021,42.018c1.232,1.232,1.232,3.228,0,4.461
										C1969.848,300.67,1969.041,300.978,1968.234,300.978z"/>
									<path d="M1965.486,230.225c-1.744,0-3.154-1.411-3.154-3.154v-67.069h-37.043c-1.744,0-3.154-1.411-3.154-3.154
										c0-1.744,1.411-3.155,3.154-3.155h43.352v73.378C1968.64,228.814,1967.229,230.225,1965.486,230.225z"/>
									<g>
										
											<ellipse transform="matrix(0.1602 -0.9871 0.9871 0.1602 1420.6721 2135.77)" class="st4" cx="1965.485" cy="232.985" rx="10.489" ry="10.489"/>
										<path d="M1965.486,246.629c-7.523,0-13.644-6.121-13.644-13.644c0-7.523,6.121-13.644,13.644-13.644
											c7.523,0,13.644,6.121,13.644,13.644C1979.13,240.508,1973.009,246.629,1965.486,246.629z M1965.486,225.65
											c-4.045,0-7.335,3.29-7.335,7.335s3.29,7.335,7.335,7.335s7.335-3.29,7.335-7.335S1969.531,225.65,1965.486,225.65z"/>
									</g>
									<g>
										<g>
											
												<ellipse transform="matrix(0.9239 -0.3827 0.3827 0.9239 -19.2602 779.7811)" class="st4" cx="1950.487" cy="438.304" rx="10.489" ry="10.489"/>
											<path d="M1950.487,451.949c-7.523,0-13.644-6.121-13.644-13.644c0-7.523,6.121-13.644,13.644-13.644
												c7.523,0,13.644,6.121,13.644,13.644C1964.13,445.828,1958.01,451.949,1950.487,451.949z M1950.487,430.97
												c-4.045,0-7.335,3.29-7.335,7.335c0,4.045,3.29,7.335,7.335,7.335c4.045,0,7.335-3.29,7.335-7.335
												C1957.822,434.26,1954.531,430.97,1950.487,430.97z"/>
										</g>
										<g>
											<path d="M1950.49,430.964c-1.744,0-3.155-1.411-3.155-3.154v-86.255l-70.202-70.199c-1.232-1.232-1.232-3.228,0-4.461
												c1.232-1.232,3.228-1.232,4.461,0l72.05,72.047v88.867C1953.644,429.553,1952.233,430.964,1950.49,430.964z"/>
										</g>
									</g>
									<g>
										<path d="M2150.348,168.229c-0.807,0-1.614-0.308-2.23-0.924c-1.232-1.232-1.232-3.229,0-4.461l69.309-69.309V25.49
											c0-1.744,1.411-3.154,3.155-3.154s3.155,1.411,3.155,3.154v70.658l-71.157,71.157
											C2151.962,167.921,2151.155,168.229,2150.348,168.229z"/>
									</g>
									<g>
										<path d="M1899.979,929.621h-106.802c-1.744,0-3.155-1.411-3.155-3.155c0-1.744,1.411-3.154,3.155-3.154h105.496
											l102.649-102.649V143.431c0-9.734-3.789-18.887-10.668-25.765c-6.882-6.879-16.034-10.668-25.765-10.668
											c-20.1,0-36.452,16.345-36.452,36.433v13.413c0,1.704-1.352,3.099-3.056,3.151c-18.699,0.591-36.196,8.33-49.264,21.795
											c-13.095,13.499-20.307,31.286-20.307,50.086c0,15.517,9.873,29.284,24.567,34.262c1.386,0.471,2.267,1.833,2.125,3.29
											c-0.139,1.46-1.266,2.628-2.717,2.825c-13.484,1.817-25.889,8.471-34.936,18.736c-0.471,0.527-0.903,1.047-1.337,1.574
											l-0.357,0.428c-8.019,9.95-12.452,22.565-12.452,35.484c0,23.31,14.626,44.594,36.396,52.96
											c1.294,0.499,2.113,1.781,2.015,3.164c-0.096,1.383-1.084,2.541-2.434,2.856c-4.267,0.986-8.126,3.407-10.865,6.817
											c-2.834,3.53-4.331,7.781-4.331,12.291c0,35.765,29.089,64.863,64.845,64.863h40.49c12.159,0,22.05-9.895,22.05-22.053
											v-95.376c0-1.743,1.411-3.154,3.154-3.154c1.744,0,3.155,1.411,3.155,3.154v95.376c0,15.64-12.723,28.362-28.359,28.362
											h-40.49c-39.234,0-71.154-31.926-71.154-71.172c0-5.964,1.978-11.58,5.724-16.241c1.974-2.461,4.39-4.531,7.094-6.118
											c-20.362-10.813-33.599-32.355-33.599-55.73c0-14.355,4.929-28.375,13.881-39.483l0.376-0.456
											c0.49-0.588,0.98-1.177,1.485-1.741c7.908-8.974,18.147-15.464,29.468-18.804c-12.313-7.621-20.103-21.179-20.103-36.116
											c0-20.449,7.843-39.797,22.087-54.479c13.502-13.912,31.35-22.204,50.539-23.551v-10.415
											c0-23.569,19.182-42.742,42.761-42.742c11.416,0,22.152,4.445,30.226,12.516c8.071,8.071,12.516,18.807,12.516,30.226
											v678.538c0,0.838-0.333,1.639-0.924,2.23l-104.497,104.497C1901.617,929.288,1900.816,929.621,1899.979,929.621z"/>
										<g>
											<path class="st4" d="M1782.876,924.419c-1.401,7.389,4.957,13.747,12.347,12.347c4.129-0.783,7.458-4.112,8.241-8.24
												c1.401-7.39-4.957-13.748-12.347-12.347C1786.988,916.961,1783.659,920.29,1782.876,924.419z"/>
											<path d="M1793.208,940.11c-3.614,0-7.1-1.411-9.682-3.989c-3.197-3.197-4.599-7.791-3.749-12.288
												c0-0.003,0-0.003,0-0.003c1.026-5.406,5.345-9.725,10.751-10.751c4.513-0.856,9.091,0.551,12.288,3.746
												c3.198,3.197,4.599,7.791,3.746,12.288c-1.023,5.406-5.345,9.725-10.751,10.751
												C1794.942,940.03,1794.07,940.11,1793.208,940.11z M1785.974,925.003c-0.468,2.483,0.265,4.907,2.011,6.657
												c1.744,1.744,4.162,2.468,6.648,2.005c2.837-0.539,5.194-2.893,5.73-5.73c0.471-2.48-0.262-4.904-2.008-6.651
												c-1.747-1.744-4.177-2.471-6.651-2.009C1788.867,919.816,1786.514,922.169,1785.974,925.003z"/>
										</g>
									</g>
									<g>
										<g>
											<path d="M1922.987,160.654h-199.575c-0.838,0-1.639-0.333-2.23-0.924l-143.87-143.867h-150.967
												c-1.744,0-3.154-1.411-3.154-3.155c0-1.744,1.411-3.154,3.154-3.154h152.273c0.838,0,1.639,0.333,2.23,0.924
												l143.87,143.867h198.269c1.744,0,3.154,1.411,3.154,3.154C1926.141,159.244,1924.73,160.654,1922.987,160.654z"/>
										</g>
										<g>
											
												<ellipse transform="matrix(0.3827 -0.9239 0.9239 0.3827 861.2931 1316.2765)" class="st4" cx="1415.619" cy="13.631" rx="10.489" ry="10.489"/>
											<path d="M1415.619,27.274c-7.523,0-13.644-6.121-13.644-13.644c0-7.523,6.121-13.644,13.644-13.644
												c7.523,0,13.644,6.121,13.644,13.644C1429.262,21.153,1423.141,27.274,1415.619,27.274z M1415.619,6.296
												c-4.045,0-7.335,3.29-7.335,7.335c0,4.045,3.29,7.335,7.335,7.335c4.045,0,7.335-3.29,7.335-7.335
												C1422.953,9.585,1419.663,6.296,1415.619,6.296z"/>
										</g>
									</g>
									<g>
										<g>
											<circle class="st4" cx="1911.18" cy="384.378" r="10.489"/>
											<path d="M1911.179,398.021c-7.523,0-13.641-6.121-13.641-13.644c0-7.523,6.118-13.644,13.641-13.644
												c7.523,0,13.644,6.121,13.644,13.644C1924.823,391.9,1918.702,398.021,1911.179,398.021z M1911.179,377.043
												c-4.042,0-7.332,3.29-7.332,7.335c0,4.045,3.29,7.335,7.332,7.335c4.045,0,7.335-3.29,7.335-7.335
												C1918.514,380.333,1915.224,377.043,1911.179,377.043z"/>
										</g>
										<g>
											<path d="M1900.693,387.535h-34.724c-1.744,0-3.154-1.411-3.154-3.154c0-1.743,1.411-3.154,3.154-3.154h34.727
												c1.743,0,3.154,1.411,3.154,3.154C1903.851,386.124,1902.437,387.535,1900.693,387.535z"/>
										</g>
									</g>
									<g>
										<path d="M1862.938,686.287c-0.807,0-1.614-0.308-2.23-0.924c-1.232-1.232-1.232-3.228,0-4.461l58.897-58.897v-148.29
											c0-1.744,1.411-3.154,3.155-3.154c1.744,0,3.154,1.411,3.154,3.154v150.903l-60.745,60.745
											C1864.552,685.979,1863.745,686.287,1862.938,686.287z"/>
										<g>
											
												<ellipse transform="matrix(0.9239 -0.3827 0.3827 0.9239 -123.0503 763.125)" class="st4" cx="1856.723" cy="690.871" rx="10.489" ry="10.489"/>
											<path d="M1856.722,704.515c-7.523,0-13.641-6.121-13.641-13.644c0-7.523,6.118-13.644,13.641-13.644
												c7.523,0,13.644,6.121,13.644,13.644C1870.365,698.394,1864.245,704.515,1856.722,704.515z M1856.722,683.536
												c-4.042,0-7.332,3.29-7.332,7.335c0,4.045,3.29,7.335,7.332,7.335c4.045,0,7.335-3.29,7.335-7.335
												C1864.057,686.826,1860.767,683.536,1856.722,683.536z"/>
										</g>
									</g>
								</g>
							</g>
						</g>
					</g>
					<g>
						<g>
							<path d="M2110.496,246.787v123.195c0,12.388-10.035,22.423-22.423,22.423h-123.196c-7.656,0-14.41-3.828-18.451-9.679
								l-0.024-0.023c-2.52-3.614-3.971-7.989-3.971-12.722V246.787c0-12.412,10.035-22.447,22.447-22.447h123.196
								c4.233,0,8.204,1.189,11.604,3.258h0.024C2106.169,231.521,2110.496,238.632,2110.496,246.787z"/>
						</g>
						<g>
							<path class="st6" d="M2081.247,217.915h-123.196c-12.393,0-22.44,10.046-22.44,22.44v123.196
								c0,12.393,10.047,22.44,22.44,22.44h123.196c12.393,0,22.44-10.047,22.44-22.44V240.355
								C2103.687,227.962,2093.64,217.915,2081.247,217.915z"/>
						</g>
						<g>
							<path class="st4" d="M2013.338,262.814h-9.036l-6.895,18.047l-22.018,57.687l-0.975,2.544h10.653l7.347-20.497h32.79
								l7.49,20.497h10.582L2013.338,262.814z M1995.551,312.177l1.855-5.112l11.413-31.506l13.341,36.618H1995.551z"/>
							<path class="st4" d="M2054.57,262.814v78.278h10.319v-78.278H2054.57z"/>
						</g>
						<g>
							<path d="M2081.246,389.146h-123.193c-14.115,0-25.596-11.481-25.596-25.596V240.354c0-14.112,11.481-25.593,25.596-25.593
								h123.193c14.115,0,25.596,11.481,25.596,25.593V363.55C2106.842,377.665,2095.361,389.146,2081.246,389.146z
								 M1958.052,221.07c-10.634,0-19.287,8.65-19.287,19.284V363.55c0,10.634,8.653,19.287,19.287,19.287h123.193
								c10.634,0,19.287-8.653,19.287-19.287V240.354c0-10.634-8.653-19.284-19.287-19.284H1958.052z"/>
						</g>
					</g>
				</g>
			</g>
		</g>
		<g>
			<g>
				<g>
					<g>
						<polygon class="st4" points="273.286,2465.241 25.885,2465.241 134.685,2256.061 309.553,2256.061 						"/>
						<path d="M273.287,2468.395H25.884c-1.103,0-2.124-0.576-2.697-1.519c-0.571-0.939-0.61-2.113-0.102-3.093l108.801-209.18
							c0.544-1.041,1.622-1.698,2.799-1.698h174.867c0.93,0,1.814,0.41,2.414,1.125c0.599,0.712,0.853,1.651,0.695,2.569
							l-36.265,209.18C276.134,2467.292,274.821,2468.395,273.287,2468.395z M31.081,2462.086h239.551l35.172-202.871H136.6
							L31.081,2462.086z"/>
					</g>
					<polygon points="311.714,2293.819 91.857,2338.402 134.685,2256.061 309.553,2256.061 					"/>
					<path class="st1" d="M237.9,2476.85c0.508-1.283,1.02-2.563,1.504-3.867c22.126-59.655,9.395-117.932-28.435-130.167
						c-37.83-12.234-86.436,26.207-108.563,85.862c-6.112,16.478-9.552,32.845-10.55,48.172H237.9z"/>
					<polygon points="290.601,2539.182 243.659,2539.182 223.624,2515.318 203.526,2539.182 109.077,2539.182 87.873,2515.318 
						65.879,2539.182 0,2539.182 8.939,2460.572 281.662,2460.572 					"/>
				</g>
				<g>
					<path class="st1" d="M111.807,2263.642l199.907,30.177l166.814-501.733l67.479-664.842l-174.86-26.396l-25.053,64.668
						c-65.851,169.979-94.625,352.065-84.395,534.066l4.515,80.317L111.807,2263.642z"/>
					<polygon points="438.318,1779.898 266.321,2286.967 311.714,2293.819 478.528,1792.085 533.84,1456.479 469.01,1412.435 					
						"/>
					<path class="st1" d="M690.179,2289.404H513.985V1113.925h176.195l23.017,85.211c50.007,185.133,63.787,378.181,40.582,568.54
						L690.179,2289.404z"/>
					<path d="M690.179,2292.558H513.986c-1.742,0-3.154-1.411-3.154-3.154v-846.661c0-1.744,1.412-3.155,3.154-3.155
						s3.154,1.411,3.154,3.155v843.506h170.247l63.26-518.954c23.266-190.845,9.641-381.723-40.495-567.337l-23.018-85.21
						c-0.454-1.682,0.541-3.413,2.223-3.869c1.693-0.447,3.412,0.545,3.868,2.224l23.018,85.21
						c50.348,186.399,64.032,378.091,40.668,569.746l-63.599,521.727C693.118,2291.369,691.773,2292.558,690.179,2292.558z"/>
					<polygon points="363.325,1121.036 687.45,1100.847 708.077,1180.184 					"/>
					<path d="M266.211,1783.052c-1.462,0-2.774-1.02-3.085-2.507c-0.356-1.707,0.738-3.38,2.443-3.734l58.991-12.338
						c1.697-0.351,3.378,0.733,3.734,2.44c0.356,1.707-0.738,3.379-2.443,3.734l-58.991,12.337
						C266.642,1783.03,266.425,1783.052,266.211,1783.052z"/>
					<path d="M513.982,1445.898c-0.607,0-1.218-0.176-1.759-0.539l-61.655-41.547c-1.445-0.973-1.827-2.933-0.853-4.377
						c0.974-1.448,2.933-1.824,4.377-0.853l61.655,41.547c1.445,0.974,1.827,2.933,0.853,4.377
						C515.992,1445.411,514.996,1445.898,513.982,1445.898z"/>
				</g>
				<g>
					<g>
						<path class="st4" d="M783.149,2485.402c0.897-6.042,1.373-12.22,1.373-18.511c0-69.067-55.991-125.057-125.057-125.057
							c-69.068,0-125.058,55.99-125.058,125.057c0,6.291,0.478,12.469,1.373,18.511H783.149z"/>
						<polygon class="st4" points="761.54,2457.096 496.64,2457.096 529.042,2289.404 664.332,2289.404 						"/>
						<polygon points="683.156,2321.876 517.464,2349.328 529.042,2289.404 664.332,2289.404 						"/>
						<path d="M723.64,2394.865c-1.089,0-2.147-0.564-2.732-1.571l-25.34-43.716c-0.873-1.509-0.36-3.438,1.148-4.313
							c1.508-0.872,3.438-0.357,4.311,1.146l25.34,43.716c0.873,1.51,0.36,3.438-1.148,4.312
							C724.721,2394.73,724.176,2394.865,723.64,2394.865z"/>
						<path class="st1" d="M496.639,2457.096h97.416c0.593-4.323,0.924-8.73,0.924-13.217c0-46.779-33.319-85.766-77.516-94.552
							L496.639,2457.096z"/>
						<path d="M784.523,2470.046c-0.036,0-0.071,0-0.108-0.003l-287.883-9.793c-0.921-0.031-1.784-0.465-2.358-1.186
							c-0.576-0.721-0.806-1.657-0.631-2.563l32.402-167.694c0.286-1.485,1.586-2.557,3.097-2.557h135.291
							c1.124,0,2.166,0.601,2.729,1.571l33.374,57.578c52.233,17.596,87.24,66.265,87.24,121.493c0,0.856-0.346,1.673-0.963,2.267
							C786.127,2469.728,785.34,2470.046,784.523,2470.046z M500.439,2454.07l280.887,9.556
							c-1.357-51.537-34.767-96.534-83.997-112.612c-0.738-0.24-1.36-0.745-1.75-1.414l-33.063-57.042h-130.87L500.439,2454.07z"/>
					</g>
					<polygon points="799.177,2539.182 748.129,2539.182 726.342,2513.833 704.486,2539.182 601.776,2539.182 578.716,2513.833 
						554.799,2539.182 483.157,2539.182 492.878,2457.096 789.456,2457.096 					"/>
				</g>
			</g>
			<g>
				<g>
					<g>
						<path class="st7" d="M968.676,719.231l27.841,1.294l6.247-55.978c0.92-8.24-4.567-15.21-12.255-15.567
							c-7.688-0.357-14.666,6.033-15.585,14.273L968.676,719.231z"/>
						<path class="st7" d="M987.575,731.68l27.841,1.294l6.247-55.978c0.92-8.24-4.567-15.21-12.255-15.567
							c-7.688-0.357-14.666,6.033-15.586,14.273L987.575,731.68z"/>
						<path class="st7" d="M943.377,694.882l26.76,13.351l45.152-102.695c3.206-6.889,0.221-15.069-6.667-18.271
							c-6.888-3.202-15.07-0.213-18.276,6.676L943.377,694.882z"/>
						<path class="st7" d="M899.228,783.209l-29.076,86.757l81.555,25.962l43.497-88.752c5.056-10.316,11.931-25.281,14.228-36.536
							l6.611-43.796l-72.666-31.961L899.228,783.209z"/>
						<g>
							<path d="M997.291,717.622c-0.114,0-0.229-0.006-0.347-0.018c-1.733-0.191-2.982-1.747-2.792-3.481l5.476-49.92
								c0.826-7.387-1.418-9.356-3.969-10.384c-1.614-0.653-2.395-2.492-1.744-4.106c0.652-1.617,2.488-2.387,4.106-1.747
								c9.348,3.774,8.24,13.678,7.877,16.934l-5.474,49.914C1000.246,716.427,998.879,717.622,997.291,717.622z"/>
							<path d="M1016.048,729.999c-0.119,0-0.237-0.006-0.357-0.018c-1.731-0.197-2.977-1.759-2.782-3.49l5.619-49.849
								c0.365-3.268-0.545-6.457-2.497-8.743c-1.722-2.018-4.126-3.194-6.769-3.318c-1.697-0.102-3.387,0.265-5.007,1.029
								c-1.582,0.748-3.456,0.068-4.199-1.506c-0.744-1.577-0.069-3.456,1.506-4.199c2.528-1.192,5.285-1.744,7.996-1.627
								c4.402,0.206,8.407,2.169,11.273,5.527c3.079,3.607,4.525,8.542,3.966,13.542l-5.619,49.852
								C1018.996,728.81,1017.631,729.999,1016.048,729.999z"/>
							<path d="M970.495,710.644c-0.424,0-0.855-0.086-1.268-0.268c-1.594-0.699-2.32-2.56-1.619-4.156l44.794-101.95
								c2.494-5.363,0.189-11.678-5.109-14.146c-5.299-2.464-11.618-0.154-14.086,5.148l-46.97,100.94
								c-0.733,1.583-2.606,2.261-4.191,1.528c-1.58-0.733-2.264-2.609-1.53-4.189l46.97-100.94
								c3.934-8.453,14.013-12.122,22.466-8.207c8.453,3.934,12.13,14.01,8.197,22.466l-44.766,101.888
								C972.865,709.942,971.708,710.644,970.495,710.644z"/>
							<g>
								<path class="st7" d="M899.228,783.209l45.108-34.731l-30.631-91.406c-1.95-7.802-9.606-11.958-17.099-9.283
									s-11.987,11.169-10.036,18.971l10.591,42.366L899.228,783.209z"/>
								<path d="M874.567,858.057c-0.34,0-0.687-0.055-1.026-0.172c-1.648-0.567-2.524-2.36-1.958-4.008l24.475-71.151
									l-2.042-73.169l-10.506-42.034c-2.33-9.316,3.068-19.5,12.034-22.703c4.447-1.59,9.105-1.282,13.115,0.869
									c4.059,2.172,6.937,5.945,8.106,10.622l19.246,57.399c0.553,1.651-0.337,3.438-1.989,3.992
									c-1.662,0.552-3.441-0.339-3.994-1.99l-19.315-57.637c-0.801-3.164-2.563-5.505-5.034-6.826
									c-2.418-1.297-5.263-1.469-8.016-0.49c-5.995,2.144-9.6,8.977-8.034,15.233l10.589,42.37
									c0.055,0.222,0.086,0.447,0.092,0.675l2.069,74.084c0.011,0.379-0.046,0.758-0.169,1.115l-24.661,71.693
									C877.101,857.237,875.876,858.057,874.567,858.057z"/>
							</g>
							<path d="M923.055,736.94c-0.491,0-0.99-0.114-1.457-0.357c-1.545-0.807-2.143-2.714-1.336-4.257l20.319-38.904
								c0.806-1.543,2.712-2.138,4.256-1.337c1.545,0.807,2.143,2.714,1.336,4.257l-20.319,38.904
								C925.291,736.324,924.193,736.94,923.055,736.94z"/>
							<path d="M957.778,886.669c-0.456,0-0.92-0.099-1.359-0.308c-1.571-0.752-2.238-2.634-1.486-4.205l43.693-91.445
								c4.176-8.518,7.244-17.516,9.132-26.779l5.16-37.518c0.236-1.728,1.828-2.951,3.555-2.692
								c1.727,0.237,2.933,1.827,2.695,3.555l-5.194,37.718c-2.032,9.987-5.272,19.494-9.67,28.464l-43.679,91.414
								C960.084,886.006,958.955,886.669,957.778,886.669z"/>
						</g>
					</g>
					<polygon class="st8" points="876.659,853.316 958.214,879.278 976.847,844.791 891.437,805.773 					"/>
				</g>
				<g>
					
						<rect x="809.912" y="838.67" transform="matrix(0.9168 0.3994 -0.3994 0.9168 453.9768 -273.8)" class="st0" width="148.112" height="227.482"/>
					<path d="M906.429,1089.419c-0.42,0-0.849-0.083-1.258-0.262l-135.785-59.158c-0.767-0.336-1.369-0.961-1.676-1.737
						c-0.306-0.779-0.29-1.648,0.043-2.415l90.86-208.549c0.693-1.596,2.554-2.332,4.153-1.633l135.785,59.158
						c0.767,0.336,1.369,0.961,1.676,1.737c0.307,0.779,0.29,1.648-0.043,2.415l-90.86,208.548
						C908.806,1088.711,907.646,1089.419,906.429,1089.419z M774.798,1025.474l130,56.639l88.34-202.763l-130-56.638
						L774.798,1025.474z"/>
				</g>
				<g>
					<path class="st0" d="M221.13,1103.774c-35.547-27.418-40.257-80.899-10.519-119.453L344.666,810.66l124.687,104.386
						L339.338,1083.61C309.601,1122.164,256.677,1131.192,221.13,1103.774z"/>
					<path d="M228.872,963.817c-0.673,0-1.352-0.216-1.925-0.656c-1.38-1.066-1.634-3.047-0.57-4.427l83.527-108.203
						c1.064-1.377,3.051-1.627,4.424-0.57c1.38,1.066,1.634,3.047,0.57,4.427l-83.527,108.203
						C230.75,963.395,229.815,963.817,228.872,963.817z"/>
					<path class="st0" d="M892.057,1013.804L749.802,829.74c-26.839-34.727-65.71-58.144-108.955-65.638l-120.776-20.929
						l-104.083,17.831c-49.134,8.418-85.054,51.015-85.054,100.865v259.167h377.143v-79.579l55.254,71.634
						c27.417,35.548,78.461,42.139,114.007,14.72C912.886,1100.392,919.476,1049.348,892.057,1013.804z"/>
					<path d="M879.108,1000.201c-0.943,0-1.876-0.422-2.497-1.226L747.307,831.669c-26.425-34.188-64.423-57.082-106.999-64.46
						L519.532,746.28c-1.716-0.299-2.866-1.932-2.569-3.647c0.299-1.716,1.927-2.865,3.647-2.569l120.777,20.929
						c44.132,7.649,83.522,31.378,110.911,66.82l129.303,167.306c1.066,1.377,0.812,3.358-0.567,4.424
						C880.462,999.986,879.782,1000.201,879.108,1000.201z"/>
					<path d="M827.868,1147.9c-3.644,0-7.312-0.234-10.987-0.709c-22.369-2.89-42.274-14.315-56.049-32.176l-55.254-71.635
						c-1.063-1.377-0.807-3.358,0.571-4.424c1.379-1.063,3.356-0.81,4.425,0.573l55.254,71.635
						c12.744,16.524,31.163,27.096,51.861,29.77c20.698,2.668,41.196-2.877,57.721-15.621c9.955-7.677,17.979-17.728,23.21-29.062
						l10.563-24.207c0.695-1.599,2.551-2.332,4.153-1.629c1.597,0.699,2.326,2.557,1.63,4.156l-10.589,24.265
						c-5.682,12.313-14.357,23.175-25.113,31.474C864.338,1141.822,846.411,1147.9,827.868,1147.9z"/>
					<path d="M330.935,1124.189c-1.742,0-3.155-1.411-3.155-3.155V926.672c0-1.744,1.412-3.155,3.155-3.155
						c1.742,0,3.154,1.411,3.154,3.155v194.362C334.089,1122.778,332.677,1124.189,330.935,1124.189z"/>
					<path d="M708.079,1044.61c-0.944,0-1.878-0.422-2.5-1.229l-88.052-114.158c-1.063-1.377-0.807-3.358,0.572-4.424
						c1.38-1.069,3.358-0.813,4.425,0.573l88.052,114.158c1.063,1.377,0.807,3.358-0.571,4.424
						C709.429,1044.398,708.752,1044.61,708.079,1044.61z"/>
				</g>
			</g>
			<g>
				
					<ellipse transform="matrix(0.9891 -0.1475 0.1475 0.9891 -89.1021 83.0657)" class="st7" cx="515.549" cy="642.335" rx="67.407" ry="79.949"/>
				<path d="M549.303,636.847c18.999-19.979,26.418-43.69,16.602-60.387c-13.442-22.865-57.716-24.32-90.782-2.343
					c-70.614,46.933-40.104,98.055-43.642,106.224c-5.254,12.138-27.369,18.589-32.789,32.708
					c-4.891,12.744,7.187,32.251,2.547,46.233c-4.378,13.188-25.776,21.635-29.614,35.616c-3.725,13.57,10.359,31.662,7.428,45.698
					c-2.905,13.904-23.075,24.959-24.924,39.055c-1.863,14.19,14.785,29.907,14.268,44.017
					c-0.527,14.376-18.237,29.058-17.074,43.063c1.192,14.365,21.061,25.613,24.344,39.279l209.924-10.936
					c1.415-8.309,3.01-16.736,0.632-23.525c-4.667-13.326-25.903-21.886-29.345-35.776c-3.42-13.799,11.327-31.45,8.957-45.456
					c-2.391-14.139-22.104-25.846-23.587-39.839c-1.527-14.419,15.314-30.087,14.578-43.967
					c-0.78-14.711-19.143-28.466-19.238-42.116c-0.106-15.125,18.132-29.199,18.596-42.417
					c0.563-16.024-16.519-31.418-15.583-43.605C541.867,661.917,546.211,646.282,549.303,636.847z"/>
			</g>
		</g>
	</g>
</g>
</svg>
